<?xml version="1.0" encoding="UTF-8" standalone="no"?>
<!-- Created with Inkscape (http://www.inkscape.org/) -->

<svg
   version="1.1"
   id="svg1"
   width="1208.36"
   height="456.82666"
   viewBox="0 0 1208.36 456.82666"
   sodipodi:docname="Logo_MAX.eps"
   xmlns:inkscape="http://www.inkscape.org/namespaces/inkscape"
   xmlns:sodipodi="http://sodipodi.sourceforge.net/DTD/sodipodi-0.dtd"
   xmlns="http://www.w3.org/2000/svg"
   xmlns:svg="http://www.w3.org/2000/svg">
  <defs
     id="defs1" />
  <sodipodi:namedview
     id="namedview1"
     pagecolor="#ffffff"
     bordercolor="#000000"
     borderopacity="0.25"
     inkscape:showpageshadow="2"
     inkscape:pageopacity="0.0"
     inkscape:pagecheckerboard="0"
     inkscape:deskcolor="#d1d1d1">
    <inkscape:page
       x="0"
       y="0"
       inkscape:label="1"
       id="page1"
       width="1208.36"
       height="456.82666"
       margin="0"
       bleed="0" />
  </sodipodi:namedview>
  <g
     id="g1"
     inkscape:groupmode="layer"
     inkscape:label="1">
    <g
       id="group-R5">
      <path
         id="path2"
         d="m 8215.75,2038.94 100.83,-934.22 285,33.16 -88.04,893.25 -297.79,7.81"
         style="fill:#b3e6ee;fill-opacity:1;fill-rule:nonzero;stroke:none"
         transform="matrix(0.13333333,0,0,-0.13333333,0,456.82667)" />
      <path
         id="path3"
         d="m 8215.75,2038.94 -12.95,-1.4 102.23,-947.28 310.77,36.17 -90.42,917.43 -324.18,8.49 1.6,-14.81 12.95,1.4 -0.34,-13.02 286.3,-7.51 85.65,-869.06 -259.24,-30.18 -99.42,921.16 -12.95,-1.39 -0.34,-13.02 0.34,13.02"
         style="fill:#211d1d;fill-opacity:1;fill-rule:nonzero;stroke:none"
         transform="matrix(0.13333333,0,0,-0.13333333,0,456.82667)" />
      <path
         id="path4"
         d="M 580.555,2881.84 C 281.188,2573.77 167.969,2034.13 167.5,1666.92 c -0.406,-319.47 79.559,-635.35 259.598,-635.58 167.168,-0.2 305.84,341.11 312.965,880.88 3.652,345.18 -40.883,712.43 -159.508,969.62 z M 1698.98,2601.35 c -0.55,-425.97 -354.47,-656.86 -576.3,-656.56 -41.8,0.05 -70.68,36.81 -70.63,84.54 0.05,40.39 29.03,69.74 67.61,73.35 183.26,10.77 437.46,194.06 437.86,498.85 0.37,286.41 -195.49,488.63 -465.53,488.97 -144.677,0.18 -276.525,-40.04 -392.365,-117.01 C 831.082,2690.57 885.25,2312.28 884.781,1945.08 883.914,1273.1 700.184,887.781 423.699,888.141 185.805,888.441 25.3711,1134.67 26.0547,1667.11 26.6484,2133.46 175.234,2687.75 513.223,3017.8 c -93.059,132.3 -224.758,227.93 -382.285,228.13 -38.5786,0.06 -70.688,29.48 -70.6255,73.55 0.0547,44.05 35.4648,80.74 70.8355,80.69 196.102,-0.24 372.762,-114.3 488.27,-294.38 141.582,91.62 299.16,139.14 472.762,138.92 360.06,-0.45 607.27,-276.17 606.8,-643.36"
         style="fill:#b4e6fa;fill-opacity:1;fill-rule:nonzero;stroke:none"
         transform="matrix(0.13333333,0,0,-0.13333333,0,456.82667)" />
      <path
         id="path5"
         d="m 580.555,2881.84 -18.688,18.15 C 408.07,2741.59 303.648,2526.05 236.988,2304.04 170.406,2081.95 141.715,1853.18 141.449,1666.96 l -0.004,-2.47 c 0.078,-161.55 20.047,-321.91 63.985,-444.77 22.074,-61.43 50.101,-113.73 86.453,-152.11 36.082,-38.32 82.398,-62.44 135.183,-62.32 h 0.032 0.148 c 25.352,-0.03 50.184,6.57 73.231,18.7 40.421,21.31 75.683,58.6 106.929,108.77 46.774,75.38 84.828,180.73 112.321,312.07 27.421,131.32 44.027,288.56 46.386,467.05 l 0.004,0.07 c 0.133,13.03 0.207,26.1 0.207,39.2 -0.156,336.08 -45.402,688.05 -162.109,941.6 l -15.899,34.46 -26.449,-27.22 18.688,-18.15 -23.66,-10.92 c 111.636,-241.52 157.48,-588.57 157.324,-919.77 0,-12.91 -0.071,-25.8 -0.207,-38.66 v 0.08 c -3.477,-267.61 -39.836,-485.5 -94.805,-634.12 -27.387,-74.29 -59.516,-131.1 -92.902,-167.87 -16.668,-18.42 -33.535,-31.81 -50.035,-40.45 -16.543,-8.65 -32.594,-12.72 -49.024,-12.73 l -0.148,-0.01 h 0.035 c -37.012,0.23 -68.043,15.48 -97.473,46.11 -43.879,45.8 -79.222,127.12 -101.988,226.56 -22.973,99.4 -34.137,216.59 -34.121,334.43 v 2.39 c 0.207,180.98 28.363,405.65 93.344,622.19 64.91,216.62 166.777,424.95 312.343,574.61 l -18.683,18.16 -23.66,-10.92 z m 1118.425,-280.49 -26.06,0.03 c -0.37,-205.46 -85.23,-362.29 -196.89,-469.11 -55.82,-53.31 -118.37,-93.85 -179.92,-120.91 -61.52,-27.09 -122.05,-40.56 -173.01,-40.52 h -0.58 0.19 c -13.11,0.18 -22.64,5.12 -30.87,14.84 -8.05,9.72 -13.75,24.91 -13.74,43.53 v 0 l -23.7,0.05 23.69,-0.68 0.01,0.63 -23.7,0.05 23.69,-0.68 0.01,0.34 v 0.37 c 0.09,13.96 4.76,24.56 12.28,32.66 7.57,8.02 18.33,13.51 31.71,14.79 l -2.43,25.94 1.53,-26.01 c 99.41,6.07 213.3,57.24 304.26,146.62 90.8,89.33 158,218.39 158.12,378.2 v 0.04 0.8 c 0.06,148.9 -51.17,277.81 -138.83,369.22 -87.57,91.5 -211.34,144.92 -352.71,145 h -1 c -149.139,0.06 -286.171,-41.78 -405.827,-121.36 l -18.637,-12.39 9.43,-20.29 C 804.488,2686.35 858.844,2312.94 858.73,1949.82 l -0.003,-4.73 v 0.03 C 858.387,1611.67 812.234,1350.37 733.922,1175.35 694.84,1087.82 647.891,1022.08 595.844,978.859 543.66,935.672 487.02,914.309 424.086,914.191 h -0.547 0.195 c -54.886,0.129 -103.98,14.071 -148.164,42.59 -66.113,42.711 -122.125,119.839 -161.601,236.979 -39.4534,116.98 -61.8948,273.14 -61.8635,469.95 v 3.33 0.04 c 0.2773,230.43 37.2304,483.11 115.7265,718.24 78.457,235.19 198.445,452.64 363.59,613.84 l 15.863,15.49 -12.754,18.14 c -48.156,68.44 -106.597,127.93 -174.39,170.66 -67.719,42.71 -145.082,68.46 -229.168,68.53 -12.664,0.06 -23.457,4.72 -31.3753,12.6 -7.836,7.95 -13.1485,19.12 -13.2305,34.76 v 0.01 l -23.5117,0.06 23.5,-0.66 0.0117,0.6 -23.5117,0.06 23.5,-0.66 0.0078,0.33 0.0039,0.37 c -0.0352,14.95 6.1758,29.22 15.4138,39.41 9.231,10.29 20.817,15.41 29.289,15.25 h 0.039 v 23.67 l -0.371,-23.66 0.371,-0.01 v 23.67 l -0.371,-23.66 0.18,-0.01 h 0.195 c 92.977,-0.13 181.309,-27.13 260.754,-75.9 79.403,-48.75 149.774,-119.41 205.617,-206.49 l 14.125,-22.01 21.961,14.2 c 137.364,88.8 289.067,134.68 457.43,134.75 h 1.11 0.04 c 173.21,-0.34 317.3,-66.14 419.25,-175.53 101.84,-109.45 161.49,-263.21 161.52,-440.74 v -1.04 0.03 l 26.06,-0.03 h 26.05 v 1.04 c 0.04,189.15 -63.85,356.31 -175.48,476.25 -111.52,119.99 -270.83,192.01 -457.33,192.13 h 0.03 -1.25 c -177.914,0.07 -340.566,-49.09 -485.738,-143.11 l 14.156,-21.87 21.93,14.07 c -59.664,93 -135.375,169.41 -222.207,222.76 -86.789,53.34 -184.836,83.49 -287.965,83.6 l -0.028,-26.05 0.403,26.05 h -0.481 c -26.867,-0.16 -50.6364,-13.38 -67.9372,-32.41 -17.293,-19.16 -28.793,-45.23 -28.8711,-74.31 l 26.0508,-0.02 -26.0391,0.72 -0.0117,-0.86 c -0.0859,-28.34 10.6406,-53.85 28.4805,-71.59 17.7656,-17.82 42.2808,-27.87 68.1598,-27.86 73.45,-0.14 140.696,-22.3 201.469,-60.53 60.703,-38.22 114.641,-92.69 159.539,-156.55 l 21.313,14.99 -18.203,18.64 C 322.176,2867.59 198.887,2642.87 118.402,2401.81 37.9648,2160.71 0.320313,1903.06 0.00390625,1667.14 v 0.03 L 0,1663.71 C 0.117188,1396.06 40.0859,1198.5 112.996,1064.76 149.48,997.969 194.59,947.102 247.27,913.031 299.898,878.922 359.863,862.102 423.668,862.082 h 0.105 0.094 0.219 c 75.199,-0.113 145.098,26.688 205.062,76.707 90.11,75.151 159.465,200.471 207.399,369.611 47.824,169.25 73.937,382.99 74.281,636.65 v 0.02 l 0.008,4.75 c -0.117,368.32 -54.289,747.41 -187.59,1034.64 l -23.621,-10.97 14.418,-21.7 c 111.508,74.02 237.535,112.59 376.987,112.66 l 0.93,-0.01 c 128.41,-0.25 237.4,-47.93 315.15,-128.93 77.66,-81.09 124.3,-196.09 124.36,-333.18 v -0.8 0.03 c -0.27,-144.98 -60.38,-259.95 -142.59,-341.16 -82.06,-81.14 -186.9,-127 -270.75,-131.71 l -0.45,-0.03 -0.45,-0.04 c -25.2,-2.33 -48.23,-13.32 -64.8,-30.98 -16.63,-17.57 -26.47,-41.84 -26.43,-68.28 l 26.05,-0.03 -26.04,0.75 -0.01,-0.87 c 0.01,-29.06 8.74,-56.06 25.57,-76.61 16.65,-20.57 42.43,-34 71.07,-33.87 h 0.06 0.12 0.28 c 59.96,0.05 126.81,15.43 193.98,44.93 100.68,44.31 202.21,120.65 279.11,227.68 76.87,106.95 128.69,244.89 128.84,409.98 v 0.03 h -26.05"
         style="fill:#211d1d;fill-opacity:1;fill-rule:nonzero;stroke:none"
         transform="matrix(0.13333333,0,0,-0.13333333,0,456.82667)" />
      <path
         id="path6"
         d="m 1906.11,1863.54 c 0,64.71 -45,110.01 -128.59,110.01 -160.73,0 -389,-207.1 -389,-553.34 0,-110.01 35.37,-307.4 266.84,-307.4 83.58,0 170.38,38.81 225.03,106.77 12.87,16.18 28.95,25.89 51.45,25.89 38.58,0 64.29,-32.36 64.29,-74.43 0,-61.48 -154.31,-190.919 -350.42,-190.919 -244.33,0 -401.85,165.029 -401.85,440.089 0,407.73 282.9,692.48 536.88,692.48 192.88,0 270.06,-119.71 270.06,-249.15 0,-255.65 -266.85,-381.85 -456.53,-381.85 -38.57,0 -70.72,25.88 -70.72,67.95 0,35.6 28.93,67.96 70.72,71.2 151.1,3.24 311.84,97.08 311.84,242.7"
         style="fill:#b4e6fa;fill-opacity:1;fill-rule:nonzero;stroke:none"
         transform="matrix(0.13333333,0,0,-0.13333333,0,456.82667)" />
      <path
         id="path7"
         d="m 1906.11,1863.54 h 26.06 c 0.19,38.26 -13.91,74.08 -41.64,98.69 -27.64,24.71 -66.67,37.42 -113.01,37.37 -45.81,-0.05 -94.24,-14.56 -141.39,-41.13 -141.09,-79.75 -273.54,-269.78 -273.66,-538.26 0.14,-57.73 8.81,-138.61 50.31,-208.34 20.77,-34.77 50.22,-66.56 90.44,-89.2 40.18,-22.69 90.61,-35.96 152.14,-35.92 91.55,0.16 185.09,41.91 245.33,116.5 l 0.1,0.12 c 4.75,5.96 9.25,9.74 13.86,12.18 4.65,2.4 9.66,3.82 17.19,3.87 11.91,-0.18 19.81,-4.32 26.69,-12.18 6.7,-7.89 11.55,-20.42 11.55,-36.2 0.06,-2.2 -0.94,-7.47 -4.38,-14.43 -5.88,-12.21 -18.71,-28.91 -37.28,-45.82 -27.85,-25.51 -68.39,-51.98 -116.96,-71.71 -48.58,-19.76 -105.18,-32.92 -165.75,-32.91 -116.42,0.18 -208.78,38.79 -273.42,108.54 -64.55,69.83 -102.32,172.79 -102.38,305.5 0,197.79 68.6,364.97 167.1,482.4 98.52,117.57 226.65,184.24 343.73,184.03 91.23,-0.19 150.45,-27.74 188.39,-67.84 37.89,-40.21 55.57,-95.55 55.61,-155.26 -0.04,-59.37 -15.33,-110.28 -41.09,-154.35 -38.58,-66 -101.68,-116.64 -172.8,-150.57 -71,-33.97 -149.74,-50.93 -216.58,-50.88 -13.5,0.02 -24.72,4.5 -32.26,11.39 -7.47,7.03 -12.24,16.14 -12.41,30.51 -0.03,21.21 17.54,42.85 46.69,45.23 l -2.02,25.97 0.56,-26.04 c 80.71,1.82 163.04,27.27 227.14,72.77 32,22.8 59.45,50.78 79.06,83.76 19.62,32.92 31.17,70.98 31.14,112.21 h -26.06 -26.05 c -0.04,-31.58 -8.57,-59.87 -23.82,-85.59 -22.81,-38.5 -61.48,-71 -108.35,-93.88 -46.77,-22.92 -101.4,-36.08 -154.17,-37.18 l -0.73,-0.01 -0.73,-0.06 c -54.44,-4.11 -94.73,-47.2 -94.76,-97.18 -0.16,-27.68 11.15,-52.56 29.39,-68.99 18.18,-16.57 42.31,-25.02 67.38,-25.01 100.5,0.15 218.7,32.82 314.37,99.78 47.74,33.55 89.79,75.89 119.98,127.43 30.2,51.5 48.27,112.23 48.23,180.69 0.03,69.72 -20.86,138.96 -69.78,190.97 -48.86,52.11 -124.68,84.43 -226.33,84.23 -136.91,-0.21 -277.22,-75.91 -383.65,-202.64 -106.43,-126.88 -179.28,-305.95 -179.29,-515.89 -0.06,-142.36 40.93,-259.44 116.23,-340.87 75.2,-81.531 183.78,-125.438 311.68,-125.27 103.87,0.059 195.84,34.059 262.71,76.46 33.48,21.28 60.74,44.63 80.45,67.94 9.85,11.7 17.83,23.38 23.65,35.28 5.77,11.91 9.6,24.12 9.66,37.29 -0.01,26.29 -8.01,50.97 -23.81,69.78 -15.62,18.84 -39.86,30.88 -66.53,30.71 -14.98,0.05 -29.26,-3.39 -41.49,-9.89 -12.27,-6.46 -22.25,-15.63 -30.35,-25.85 l -0.09,-0.1 0.18,0.22 c -49.06,-61.31 -129.11,-97.22 -204.73,-97.06 -54.21,0.04 -95,11.45 -126.55,29.21 -47.13,26.62 -75.31,68.54 -92.4,115.42 -16.99,46.69 -21.88,97.56 -21.84,136.73 0.02,167.35 55.07,299.7 128.4,390.09 36.65,45.17 77.9,79.75 118.76,102.79 40.85,23.08 81.22,34.45 115.79,34.41 37.24,-0.05 62.5,-9.99 78.27,-24.11 15.67,-14.21 24.08,-33.41 24.27,-59.85 h 26.05"
         style="fill:#211d1d;fill-opacity:1;fill-rule:nonzero;stroke:none"
         transform="matrix(0.13333333,0,0,-0.13333333,0,456.82667)" />
      <path
         id="path8"
         d="m 2487.95,980.121 c -3.22,0 -19.28,3.238 -22.5,3.238 -160.74,25.891 -237.9,158.571 -237.9,407.731 0,155.33 19.29,336.53 80.37,582.46 -93.23,0 -128.59,-16.18 -173.6,-16.18 -22.51,0 -45.01,19.42 -45.01,55.02 0,90.6 135.03,93.84 250.76,97.07 25.72,106.78 64.29,255.65 99.66,385.08 9.64,29.12 35.36,48.53 64.3,51.78 41.79,0 73.93,-25.89 73.93,-64.73 0,-12.93 -3.21,-29.12 -6.42,-35.59 -32.16,-97.08 -73.94,-268.59 -90.03,-339.77 45.02,0 109.31,-3.24 196.11,-6.48 35.37,-6.47 70.73,-32.36 70.73,-67.95 0,-38.82 -25.72,-64.71 -61.08,-64.71 -61.08,0 -170.39,6.46 -231.46,9.7 -57.87,-207.1 -86.81,-410.97 -86.81,-576 0,-255.64 93.23,-271.82 125.37,-278.28 35.37,0 64.31,-32.36 64.31,-67.96 0,-38.83 -32.15,-71.191 -70.73,-74.429"
         style="fill:#b4e6fa;fill-opacity:1;fill-rule:nonzero;stroke:none"
         transform="matrix(0.13333333,0,0,-0.13333333,0,456.82667)" />
      <path
         id="path9"
         d="m 2487.95,980.121 v 26.049 -16.709 l 1.34,16.669 -1.34,0.04 v -16.709 l 1.34,16.669 -0.03,0.01 c -1.18,0.11 -5.82,0.88 -10.01,1.59 l -6.33,1.01 c -2.27,0.29 -3.44,0.6 -7.47,0.68 v -26.061 l 4.14,25.721 c -37.08,6 -68.24,17.88 -94.63,35.52 -39.47,26.5 -69.29,66.37 -90.01,123.64 -20.63,57.16 -31.38,131.41 -31.35,222.85 0.02,153.11 18.94,331.86 79.61,576.18 l 8.03,32.33 h -33.32 c -48.08,0.02 -82.11,-4.24 -108.87,-8.4 -26.86,-4.2 -45.53,-7.83 -64.73,-7.78 -3.74,0.03 -7.9,1.53 -11.64,5.61 -3.65,4.1 -7.25,11.01 -7.31,23.36 0.02,8.11 1.44,14.19 3.76,19.41 4.03,8.96 11.38,16.6 24.29,23.75 19.17,10.66 49.81,17.9 84.87,21.75 35.09,3.98 74.52,5.07 112.51,6.12 l 19.93,0.55 4.67,19.39 c 25.62,106.4 64.16,255.14 99.46,384.32 l -25.13,6.86 24.73,-8.19 c 6.28,19.07 23.18,31.87 42.47,34.07 l -2.9,25.9 v -26.06 c 15.56,0.01 27.89,-4.83 35.72,-11.55 7.78,-6.89 11.99,-14.97 12.16,-27.12 0.02,-4.33 -0.61,-10.39 -1.56,-15.45 -0.47,-2.53 -1.02,-4.84 -1.5,-6.5 l -0.6,-1.89 -0.15,-0.37 2.93,-1.22 -2.84,1.4 -0.09,-0.18 2.93,-1.22 -2.84,1.4 -0.81,-1.63 -0.57,-1.74 c -32.78,-99.06 -74.45,-270.32 -90.71,-342.22 l -7.18,-31.79 h 32.59 c 43.84,0.01 108.22,-3.22 195.14,-6.46 l 0.97,26.03 -4.69,-25.62 c 13.19,-2.34 27.01,-8.83 36.06,-16.95 9.22,-8.33 13.28,-16.58 13.31,-25.38 -0.07,-13.72 -4.3,-22.84 -10.04,-28.89 -5.84,-5.97 -13.64,-9.67 -24.99,-9.77 -59.58,-0.02 -169,6.41 -230.08,9.67 l -20.86,1.1 -5.62,-20.1 c -58.43,-209.24 -87.74,-414.99 -87.77,-583.02 0.1,-130.78 23.49,-204.32 55.77,-248.11 16.08,-21.76 34.51,-35.36 51.16,-43.36 16.55,-8.04 31.5,-10.75 39.37,-12.35 l 2.54,-0.51 h 2.59 c 9.57,0.01 18.89,-4.37 26.34,-12.32 7.39,-7.9 11.97,-18.91 11.92,-29.59 0,-12.13 -4.98,-23.48 -13.61,-32.49 -8.61,-8.95 -20.61,-14.95 -33.25,-15.97 l 2.18,-25.969 v 26.049 -26.049 l 2.18,-25.961 c 25.94,2.211 49.31,14.02 66.42,31.75 17.09,17.7 28.18,41.92 28.18,68.64 -0.05,24.93 -9.94,47.88 -25.86,65.06 -15.86,17.13 -38.69,28.94 -64.5,28.96 v -26.06 l 5.14,25.54 c -8.2,1.63 -16.96,3.36 -26.93,8.16 -14.65,7.34 -32.37,20.62 -48.59,56.49 -16,35.82 -28.98,94.57 -28.94,188.09 -0.03,162.04 28.54,364.03 85.85,568.99 l -25.09,7.01 -1.39,-26.01 c 61.07,-3.24 170.26,-9.73 232.85,-9.75 24.01,-0.1 46.75,9.15 62.61,25.83 15.97,16.59 24.6,39.83 24.52,64.94 0.04,26.79 -13.59,49.28 -30.89,64.41 -17.48,15.34 -39.02,25.04 -61.2,29.17 l -1.84,0.34 -1.88,0.07 c -86.67,3.22 -150.87,6.48 -197.08,6.49 v -26.05 l 25.42,-5.74 c 15.89,70.48 57.8,242.22 89.34,337.31 l -24.73,8.2 23.35,-11.56 c 1.9,3.89 3,7.23 4.05,10.86 2.99,10.72 4.99,23.38 5.08,36.29 0.17,26.69 -11.69,50.97 -30.43,66.73 -18.69,15.94 -43.34,24.05 -69.56,24.05 h -1.46 l -1.44,-0.16 c -38.59,-4.29 -73.14,-30.31 -86.14,-69.48 l -0.21,-0.64 -0.19,-0.68 c -35.43,-129.7 -74.03,-278.68 -99.85,-385.85 l 25.33,-6.1 -0.73,26.05 c -57.96,-1.72 -121.74,-3 -174.61,-16.61 -26.42,-6.94 -50.73,-16.96 -70,-34.26 -9.56,-8.64 -17.68,-19.25 -23.18,-31.57 -5.52,-12.31 -8.31,-26.14 -8.29,-40.68 -0.07,-23.25 7.59,-43.85 20.82,-58.36 13.14,-14.54 31.48,-22.74 50.24,-22.71 25.8,0.04 47.32,4.51 72.7,8.39 25.48,3.94 55.75,7.77 100.9,7.79 v 26.05 l -25.28,6.28 c -61.51,-247.53 -81.16,-431.2 -81.14,-588.74 0.09,-127.18 19.38,-226.97 62.22,-300.72 21.41,-36.78 48.95,-66.81 82.25,-89.07 33.28,-22.288 72.05,-36.698 115.34,-43.648 l 2.05,-0.332 h 2.09 v 16.731 l -1.34,-16.692 1.34,-0.039 v 16.731 l -1.34,-16.692 h 0.03 c 1.18,-0.129 5.82,-0.89 10,-1.609 l 6.34,-1.008 c 2.27,-0.273 3.44,-0.594 7.47,-0.672 h 1.1 l 1.08,0.09 -2.18,25.961"
         style="fill:#211d1d;fill-opacity:1;fill-rule:nonzero;stroke:none"
         transform="matrix(0.13333333,0,0,-0.13333333,0,456.82667)" />
      <path
         id="path10"
         d="m 2963.71,1384.61 c 0,-55 -45.02,-64.7 -64.31,-61.48 -19.28,3.23 -28.93,9.7 -51.43,9.7 -61.09,0 -77.16,-48.53 -77.16,-93.83 0,-77.67 93.23,-155.33 208.96,-155.33 115.74,0 237.91,67.95 237.91,213.58 0,77.66 -38.58,168.27 -183.26,245.92 -102.87,55.02 -234.67,142.39 -234.67,304.19 0,132.66 106.09,271.81 305.4,271.81 192.91,0 266.84,-139.15 266.84,-194.15 0,-42.07 -32.16,-74.44 -73.93,-74.44 -19.29,0 -51.45,16.19 -57.88,42.07 -9.65,32.37 -54.66,103.55 -138.25,103.55 -102.87,0 -160.73,-64.71 -160.73,-148.84 0,-61.49 28.93,-100.33 157.53,-177.98 157.52,-93.85 263.62,-187.69 263.62,-352.73 0,-200.62 -141.46,-349.47 -385.8,-349.47 -183.24,0 -350.41,106.79 -350.41,268.58 0,135.91 99.66,232.99 221.83,232.99 57.87,0 115.74,-19.41 115.74,-84.14"
         style="fill:#b4e6fa;fill-opacity:1;fill-rule:nonzero;stroke:none"
         transform="matrix(0.13333333,0,0,-0.13333333,0,456.82667)" />
      <path
         id="path11"
         d="m 2963.71,1384.61 h -26.05 c -0.02,-9.1 -1.62,-15.22 -3.59,-19.59 -3.01,-6.43 -6.88,-9.84 -11.98,-12.6 -4.99,-2.65 -11.36,-3.83 -15.5,-3.78 l -2.89,0.19 c -7.48,1.24 -13.36,3.19 -22.13,5.55 -8.67,2.34 -19.88,4.57 -33.6,4.51 -18.68,0.03 -35.58,-3.78 -49.86,-11.24 -21.59,-11.15 -35.61,-30.04 -43.2,-49.41 -7.72,-19.51 -10.12,-39.96 -10.16,-59.24 0,-24.68 7.41,-48.59 19.89,-70.1 18.79,-32.32 48.85,-59.78 85.91,-79.56 37.1,-19.73 81.44,-31.71 129.22,-31.72 62.89,0.07 127.7,18.2 178.4,57.71 25.29,19.75 46.88,45 61.97,75.57 15.12,30.57 23.61,66.31 23.59,106.35 0.09,43.1 -10.98,90.89 -41.67,137.3 -30.64,46.48 -80.16,91.25 -155.32,131.58 l -0.03,0.02 c -50.47,26.93 -106.7,61.39 -149.19,106.87 -42.5,45.73 -71.54,100.75 -71.72,174.34 -0.02,59.42 23.85,120.86 70.32,167.22 46.52,46.3 115.43,78.41 209.03,78.53 90.13,-0.16 149.34,-31.89 187.54,-69.02 19.03,-18.59 32.6,-38.73 41.23,-56.78 8.7,-17.92 12.14,-34.21 12.02,-42.29 -0.05,-14.36 -5.33,-26.1 -13.73,-34.63 -8.49,-8.47 -20.03,-13.7 -34.15,-13.75 -2.62,-0.25 -12.44,2.25 -19.61,7.15 -7.59,4.83 -12.17,11.08 -13,15.15 l -0.13,0.57 -0.18,0.59 c -6.53,21.31 -21.79,49.7 -48.38,75.32 -26.36,25.33 -65.38,46.93 -114.83,46.84 -56.79,0.11 -104.39,-18.2 -137.15,-50.29 -32.83,-32 -49.73,-76.66 -49.63,-124.61 -0.01,-17.37 2.08,-34.56 7.99,-51.43 8.85,-25.44 25.91,-48.54 51.84,-71.72 26.04,-23.3 61.38,-47.58 110.28,-77.14 l 0.03,-0.02 0.1,-0.06 c 77.76,-46.25 141.22,-91.92 184.15,-143.89 42.87,-52.15 66.52,-109.55 66.75,-186.45 -0.12,-94.26 -32.82,-173.92 -93.11,-231.03 -60.37,-56.99 -149.64,-92.3 -266.63,-92.378 -86.58,-0.07 -169.23,25.458 -228.63,68.648 -29.74,21.57 -53.67,47.4 -70.12,76.48 -16.44,29.12 -25.58,61.45 -25.61,97.39 0.06,61.58 22.37,112.92 57.71,149.28 35.43,36.31 83.92,57.62 138.07,57.66 26.07,0.13 50.95,-4.79 66.22,-14.12 7.73,-4.64 13.17,-9.95 17.03,-16.58 3.81,-6.66 6.39,-15.04 6.44,-27.39 h 26.05 26.05 c 0.04,20.03 -4.61,38.33 -13.46,53.52 -13.29,22.97 -34.81,37.36 -57.33,45.53 -22.68,8.26 -47.12,11.11 -71,11.15 -68.02,0.04 -130.45,-27.2 -175.39,-73.41 -45.03,-46.15 -72.55,-111.29 -72.49,-185.64 -0.04,-44.95 11.73,-86.65 32.36,-123.05 30.98,-54.69 81.28,-97.47 141.32,-126.64 60.12,-29.16 130.27,-44.91 202.78,-44.929 127.35,-0.09 230.97,39.031 302.42,106.619 71.53,67.47 109.55,162.55 109.43,268.89 0.23,88.15 -29.17,160.19 -78.72,219.68 -49.5,59.66 -117.85,107.84 -197.62,155.43 l 0.14,-0.09 c -63.45,38.21 -100.97,66.59 -120.71,89.75 -9.93,11.59 -15.6,21.58 -19.17,31.71 -3.53,10.14 -5.05,20.86 -5.06,34.23 0.09,36.18 12.12,65.94 33.94,87.34 21.89,21.29 54.65,35.35 100.73,35.45 34.15,-0.09 59.42,-14.09 78.88,-32.44 19.22,-18.06 31.28,-41.44 34.39,-52.49 l 24.98,7.43 -25.29,-6.28 c 5.61,-21.81 20.33,-36.6 35.26,-46.33 15.33,-9.67 31.23,-15.26 47.91,-15.51 27.65,-0.04 53.07,10.9 71.11,29.13 18.11,18.17 28.92,43.65 28.87,71.36 -0.13,19.42 -5.92,41.15 -17.12,64.79 -16.87,35.21 -46.66,73.93 -92.17,104.14 -45.44,30.21 -106.56,51.33 -183.6,51.27 -105.71,0.12 -189.51,-37.34 -245.85,-93.77 -56.41,-56.38 -85.59,-130.85 -85.61,-204.09 -0.17,-88.22 36.68,-157.78 85.79,-209.95 49.14,-52.4 110.25,-89.13 162.66,-117.21 l -0.04,0.02 c 69.52,-37.33 111.63,-76.69 136.45,-114.35 24.77,-37.71 32.99,-74.06 33.08,-108.62 -0.02,-32.77 -6.8,-60.13 -18.2,-83.27 -17.13,-34.61 -45.06,-60.35 -79.37,-77.92 -34.23,-17.52 -74.69,-26.36 -114.29,-26.34 -52,-0.04 -98.95,17.61 -131.98,43.12 -16.51,12.73 -29.48,27.34 -38.07,42.18 -8.62,14.89 -12.87,29.82 -12.86,43.98 -0.13,19.66 3.9,38.52 11.42,49.64 3.75,5.65 7.99,9.68 13.9,12.8 5.92,3.06 13.93,5.32 25.79,5.35 8.78,-0.06 13.65,-1.06 20.25,-2.77 6.5,-1.69 15.08,-4.59 26.88,-6.59 3.74,-0.61 7.53,-0.9 11.49,-0.9 15.77,0.1 35.3,4.37 52.99,18.45 8.72,7.02 16.59,16.65 21.94,28.52 5.39,11.85 8.25,25.73 8.24,41.11 h -26.05"
         style="fill:#211d1d;fill-opacity:1;fill-rule:nonzero;stroke:none"
         transform="matrix(0.13333333,0,0,-0.13333333,0,456.82667)" />
      <path
         id="path12"
         d="m 3657.13,2137.26 h 166.93 V 1220.2 c 0,-22.9 8.01,-42.6 24.04,-59.08 16.49,-16.03 36.18,-24.05 59.08,-24.05 22.89,0 42.59,8.12 59.07,24.41 16.49,16.23 24.73,35.82 24.73,58.72 v 917.06 h 166.24 V 1220.2 c 0,-69.15 -24.27,-128.23 -72.81,-177.24 -49.01,-48.53 -108.08,-72.808 -177.23,-72.808 -69.15,0 -128.13,24.368 -176.88,73.168 -48.8,48.74 -73.17,107.73 -73.17,176.88 v 917.06"
         style="fill:#211d1d;fill-opacity:1;fill-rule:nonzero;stroke:none"
         transform="matrix(0.13333333,0,0,-0.13333333,0,456.82667)" />
      <path
         id="path13"
         d="m 4760.35,970.152 h -166.92 v 917.058 c 0,22.9 -8.02,42.59 -24.05,59.08 -16.48,16.03 -36.18,24.04 -59.07,24.04 -22.9,0 -42.59,-8.14 -59.08,-24.38 -16.48,-16.27 -24.73,-35.84 -24.73,-58.74 V 970.152 h -166.24 v 917.058 c 0,69.15 24.28,128 72.82,176.54 49,49 108.08,73.51 177.23,73.51 69.15,0 128.13,-24.41 176.88,-73.15 48.79,-48.8 73.16,-107.75 73.16,-176.9 V 970.152"
         style="fill:#211d1d;fill-opacity:1;fill-rule:nonzero;stroke:none"
         transform="matrix(0.13333333,0,0,-0.13333333,0,456.82667)" />
      <path
         id="path14"
         d="m 5096.27,1637.17 c 27.47,0 51.06,9.84 70.75,29.53 19.7,19.7 29.54,43.28 29.54,70.76 v 132.58 c 0,27.93 -9.84,51.62 -29.54,71.08 -19.69,19.46 -43.28,29.21 -70.75,29.21 h -66.64 v -333.16 z m -232.87,500.09 h 249.35 c 69.15,0 128.24,-24.51 177.23,-73.51 49,-49 73.51,-108.08 73.51,-177.23 v -165.55 c 0,-69.15 -24.51,-128.22 -73.51,-177.23 -48.99,-49 -108.08,-73.5 -177.23,-73.5 h -83.12 V 970.152 H 4863.4 V 2137.26"
         style="fill:#211d1d;fill-opacity:1;fill-rule:nonzero;stroke:none"
         transform="matrix(0.13333333,0,0,-0.13333333,0,456.82667)" />
      <path
         id="path15"
         d="M 5914.56,970.152 H 5414.47 V 2137.26 H 5581.4 V 1137.07 h 333.16 V 970.152"
         style="fill:#211d1d;fill-opacity:1;fill-rule:nonzero;stroke:none"
         transform="matrix(0.13333333,0,0,-0.13333333,0,456.82667)" />
      <path
         id="path16"
         d="m 5861.44,2137.26 h 166.93 V 1220.2 c 0,-22.9 8.01,-42.6 24.04,-59.08 16.49,-16.03 36.17,-24.05 59.07,-24.05 22.9,0 42.59,8.12 59.09,24.41 16.48,16.23 24.72,35.82 24.72,58.72 v 917.06 h 166.24 V 1220.2 c 0,-69.15 -24.27,-128.23 -72.81,-177.24 -49,-48.53 -108.09,-72.808 -177.24,-72.808 -69.15,0 -128.12,24.368 -176.87,73.168 -48.8,48.74 -73.17,107.73 -73.17,176.88 v 917.06"
         style="fill:#211d1d;fill-opacity:1;fill-rule:nonzero;stroke:none"
         transform="matrix(0.13333333,0,0,-0.13333333,0,456.82667)" />
      <path
         id="path17"
         d="m 6964.67,1637.17 h -166.24 v 250.04 c 0,22.9 -8.15,42.47 -24.38,58.74 -16.28,16.24 -36.07,24.38 -59.43,24.38 -22.9,0 -42.49,-8.14 -58.72,-24.38 -16.29,-16.27 -24.41,-35.84 -24.41,-58.74 V 1220.2 c 0,-22.9 8.12,-42.49 24.41,-58.72 16.23,-16.29 35.82,-24.41 58.72,-24.41 23.36,0 43.15,8.12 59.43,24.41 16.23,16.23 24.38,35.82 24.38,58.72 v 83.11 h -83.81 v 166.93 h 250.05 V 1220.2 c 0,-69.15 -24.38,-128.14 -73.18,-176.88 -48.75,-48.8 -107.72,-73.168 -176.87,-73.168 -68.69,0 -127.54,24.368 -176.54,73.168 -49.01,48.74 -73.51,107.73 -73.51,176.88 v 667.01 c 0,69.15 24.5,128.1 73.51,176.9 49,48.74 107.85,73.15 176.54,73.15 69.15,0 128.12,-24.41 176.87,-73.15 48.8,-48.8 73.18,-107.75 73.18,-176.9 v -250.04"
         style="fill:#211d1d;fill-opacity:1;fill-rule:nonzero;stroke:none"
         transform="matrix(0.13333333,0,0,-0.13333333,0,456.82667)" />
      <path
         id="path18"
         d="m 7567.79,1637.17 h -166.24 v 250.04 c 0,22.9 -8.13,42.47 -24.37,58.74 -16.28,16.24 -36.08,24.38 -59.44,24.38 -22.89,0 -42.48,-8.14 -58.71,-24.38 -16.29,-16.27 -24.4,-35.84 -24.4,-58.74 V 1220.2 c 0,-22.9 8.11,-42.49 24.4,-58.72 16.23,-16.29 35.82,-24.41 58.71,-24.41 23.36,0 43.16,8.12 59.44,24.41 16.24,16.23 24.37,35.82 24.37,58.72 v 83.11 h -83.81 v 166.93 h 250.05 V 1220.2 c 0,-69.15 -24.37,-128.14 -73.17,-176.88 -48.74,-48.8 -107.72,-73.168 -176.88,-73.168 -68.69,0 -127.54,24.368 -176.54,73.168 -48.99,48.74 -73.5,107.73 -73.5,176.88 v 667.01 c 0,69.15 24.51,128.1 73.5,176.9 49,48.74 107.85,73.15 176.54,73.15 69.16,0 128.14,-24.41 176.88,-73.15 48.8,-48.8 73.17,-107.75 73.17,-176.9 v -250.04"
         style="fill:#211d1d;fill-opacity:1;fill-rule:nonzero;stroke:none"
         transform="matrix(0.13333333,0,0,-0.13333333,0,456.82667)" />
      <path
         id="path19"
         d="m 8031.47,1637.17 v -166.93 h -193.71 v -333.17 h 193.71 V 970.152 H 7670.83 V 2137.26 h 360.64 v -166.93 h -193.71 v -333.16 h 193.71"
         style="fill:#211d1d;fill-opacity:1;fill-rule:nonzero;stroke:none"
         transform="matrix(0.13333333,0,0,-0.13333333,0,456.82667)" />
      <path
         id="path20"
         d="m 8342.01,1241.89 -340.9,-37.34 -18.19,165.95 340.9,37.33 18.19,-165.94"
         style="fill:#211d1d;fill-opacity:1;fill-rule:nonzero;stroke:none"
         transform="matrix(0.13333333,0,0,-0.13333333,0,456.82667)" />
      <path
         id="path21"
         d="m 9025.65,1604.9 -497.09,-54.48 -18.18,165.92 497.09,54.47 18.18,-165.91"
         style="fill:#211d1d;fill-opacity:1;fill-rule:nonzero;stroke:none"
         transform="matrix(0.13333333,0,0,-0.13333333,0,456.82667)" />
      <path
         id="path22"
         d="m 8286.12,1751.99 -340.89,-37.34 -18.19,165.94 340.9,37.34 18.18,-165.94"
         style="fill:#211d1d;fill-opacity:1;fill-rule:nonzero;stroke:none"
         transform="matrix(0.13333333,0,0,-0.13333333,0,456.82667)" />
      <path
         id="path23"
         d="m 8464.04,1170.35 c 27.34,3 49.38,14.97 66.21,35.96 16.8,20.94 23.72,45.11 20.74,72.4 l -69.36,633.02 c -2.94,26.84 -14.91,48.81 -35.88,65.83 -21.01,17.07 -45.14,24.11 -72.46,21.11 l -67.6,-7.4 90.75,-828.32 z m -342.45,968.66 254.69,27.91 c 66.91,7.33 126.64,-10.08 179.18,-52.23 52.54,-42.17 82.46,-96.69 89.81,-163.6 l 74,-675.37 c 7.32,-66.93 -10.11,-126.64 -52.25,-179.16 -42.17,-52.54 -96.71,-82.48 -163.62,-89.79 L 8248.7,978.852 8121.59,2139.01"
         style="fill:#211d1d;fill-opacity:1;fill-rule:nonzero;stroke:none"
         transform="matrix(0.13333333,0,0,-0.13333333,0,456.82667)" />
      <path
         id="path24"
         d="m 1057.17,117.75 c -8.28,-4.531 -16.24,-8.199 -23.86,-10.969 -7.63,-2.781 -15.18,-4.172 -22.66,-4.172 -27.224,0 -52.853,7.293 -76.912,21.871 -24.05,14.579 -43.25,34.071 -57.57,58.489 -14.34,24.422 -21.5,50.371 -21.5,77.871 v 212.652 c 0,15.969 5.125,28.309 15.355,37.008 10.239,8.711 22.309,13.059 36.243,13.059 14.121,0 26.445,-4.43 36.992,-13.289 10.547,-8.848 15.812,-21.122 15.812,-36.778 V 260.84 c 0,-15.758 5.125,-28.141 15.352,-37.149 10.238,-9.019 22.316,-13.519 36.228,-13.519 14.24,0 26.59,4.5 37.08,13.519 10.5,9.008 15.74,21.391 15.74,37.149 v 212.652 c 0,15.969 5.14,28.309 15.43,37.008 10.29,8.711 22.54,13.059 36.78,13.059 14.22,0 26.69,-4.45 37.38,-13.368 10.69,-8.902 16.05,-21.14 16.05,-36.699 V 155.77 c 0,-13.7 -5.51,-25.981 -16.51,-36.86 -11.01,-10.871 -23.51,-16.301 -37.54,-16.301 -5.32,0 -10.26,2.243 -14.81,6.723 -4.56,4.488 -10.72,11.707 -18.51,21.707 -8.08,-4.328 -16.27,-8.75 -24.57,-13.289"
         style="fill:#943da3;fill-opacity:1;fill-rule:nonzero;stroke:none"
         transform="matrix(0.13333333,0,0,-0.13333333,0,456.82667)" />
      <path
         id="path25"
         d="m 1367.16,519.469 c 9.31,3.961 19.4,5.953 30.24,5.953 27.74,0 53.82,-7.231 78.23,-21.723 24.41,-14.469 43.88,-33.898 58.42,-58.258 14.52,-24.359 21.8,-50.449 21.8,-78.269 V 155.77 c 0,-15.45 -5.27,-27.668 -15.81,-36.629 -10.54,-8.961 -22.89,-13.43 -37,-13.43 -14.24,0 -26.6,4.441 -37.09,13.359 -10.49,8.899 -15.73,21.149 -15.73,36.7 v 211.402 c 0,15.457 -5.17,27.527 -15.51,36.238 -10.35,8.699 -22.57,13.059 -36.69,13.059 -14.44,0 -26.74,-4.328 -36.93,-12.977 -10.19,-8.652 -15.28,-20.762 -15.28,-36.32 V 155.77 c 0,-15.758 -5.23,-28.149 -15.73,-37.168 -10.5,-9.02 -22.85,-13.52 -37.07,-13.52 -13.93,0 -26,4.5 -36.24,13.52 -10.23,9.019 -15.35,21.41 -15.35,37.168 v 317.722 c 0,13.078 5.24,25.008 15.73,35.77 10.5,10.758 22.44,16.16 35.86,16.16 6.34,0 11.79,-2.121 16.34,-6.34 4.56,-4.23 10.42,-10.773 17.59,-19.621 17.5,9.371 30.91,16.039 40.22,20.008"
         style="fill:#943da3;fill-opacity:1;fill-rule:nonzero;stroke:none"
         transform="matrix(0.13333333,0,0,-0.13333333,0,456.82667)" />
      <path
         id="path26"
         d="m 1884.79,223.461 c 16.32,9.68 29.43,22.66 39.3,38.941 9.88,16.258 14.82,33.477 14.82,51.61 0,18.648 -4.91,36.039 -14.75,52.148 -9.81,16.141 -22.89,28.981 -39.21,38.559 -16.34,9.582 -33.6,14.371 -51.83,14.371 -18.21,0 -35.33,-4.789 -51.35,-14.371 -16.02,-9.578 -28.84,-22.418 -38.46,-38.559 -9.61,-16.109 -14.42,-33.5 -14.42,-52.148 0,-18.133 4.81,-35.352 14.42,-51.61 9.62,-16.281 22.47,-29.261 38.53,-38.941 16.08,-9.699 33.17,-14.52 51.28,-14.52 18.13,0 35.34,4.821 51.67,14.52 z M 1712.9,509.34 c 10.65,-10.711 15.99,-22.66 15.99,-35.848 5.31,3.09 15.68,9.906 31.08,20.488 15.4,10.551 28.63,18.422 39.68,23.629 11.06,5.211 22.21,7.813 33.47,7.813 37.67,0 72.68,-9.422 105.02,-28.281 32.34,-18.86 57.96,-44.461 76.84,-76.809 18.89,-32.352 28.33,-67.793 28.33,-106.32 0,-38.114 -9.46,-73.403 -28.4,-105.852 -18.94,-32.449 -44.55,-58.168 -76.84,-77.121 -32.3,-18.949 -67.28,-28.43 -104.95,-28.43 -16.58,0 -31.95,3.211 -46.12,9.661 -14.19,6.429 -33.55,16.91 -58.11,31.441 V 51.9219 c 0,-15.7696 -5.23,-28.1602 -15.67,-37.1602 -10.44,-9.01951 -22.62,-13.53123 -36.54,-13.53123 -14.22,0 -26.49,4.48828 -36.76,13.44923 -10.3,8.9609 -15.44,21.3789 -15.44,37.2422 V 473.492 c 0,8.449 2.38,16.688 7.14,24.738 4.76,8.02 11.18,14.571 19.27,19.602 8.08,5.047 16.42,7.59 25.02,7.59 14.02,0 26.36,-5.363 36.99,-16.082"
         style="fill:#943da3;fill-opacity:1;fill-rule:nonzero;stroke:none"
         transform="matrix(0.13333333,0,0,-0.13333333,0,456.82667)" />
      <path
         id="path27"
         d="m 2170.27,155.77 c 0,-15.45 -5.28,-27.668 -15.81,-36.629 -10.55,-8.961 -22.89,-13.43 -37.01,-13.43 -14.22,0 -26.59,4.441 -37.08,13.359 -10.48,8.899 -15.74,21.149 -15.74,36.7 v 422.812 c 0,16.168 5.23,28.66 15.66,37.477 10.45,8.8 22.82,13.203 37.16,13.203 14.33,0 26.71,-4.403 37.16,-13.203 10.43,-8.817 15.66,-21.309 15.66,-37.477 V 155.77"
         style="fill:#943da3;fill-opacity:1;fill-rule:nonzero;stroke:none"
         transform="matrix(0.13333333,0,0,-0.13333333,0,456.82667)" />
      <path
         id="path28"
         d="m 2443.09,117.75 c -8.29,-4.531 -16.25,-8.199 -23.87,-10.969 -7.63,-2.781 -15.18,-4.172 -22.66,-4.172 -27.22,0 -52.85,7.293 -76.91,21.871 -24.05,14.579 -43.25,34.071 -57.58,58.489 -14.33,24.422 -21.49,50.371 -21.49,77.871 v 212.652 c 0,15.969 5.12,28.309 15.35,37.008 10.24,8.711 22.31,13.059 36.24,13.059 14.12,0 26.45,-4.43 36.99,-13.289 10.55,-8.848 15.82,-21.122 15.82,-36.778 V 260.84 c 0,-15.758 5.13,-28.141 15.35,-37.149 10.25,-9.019 22.32,-13.519 36.23,-13.519 14.24,0 26.59,4.5 37.09,13.519 10.49,9.008 15.73,21.391 15.73,37.149 v 212.652 c 0,15.969 5.14,28.309 15.43,37.008 10.29,8.711 22.54,13.059 36.78,13.059 14.22,0 26.69,-4.45 37.37,-13.368 10.7,-8.902 16.06,-21.14 16.06,-36.699 V 155.77 c 0,-13.7 -5.51,-25.981 -16.51,-36.86 -11.01,-10.871 -23.52,-16.301 -37.54,-16.301 -5.32,0 -10.26,2.243 -14.81,6.723 -4.55,4.488 -10.73,11.707 -18.51,21.707 -8.08,-4.328 -16.27,-8.75 -24.56,-13.289"
         style="fill:#943da3;fill-opacity:1;fill-rule:nonzero;stroke:none"
         transform="matrix(0.13333333,0,0,-0.13333333,0,456.82667)" />
      <path
         id="path29"
         d="m 2723.5,404.492 c -11.93,-7.16 -21.49,-16.64 -28.71,-28.433 -7.22,-11.797 -10.82,-24.239 -10.82,-37.317 0,-23.902 7.72,-42.562 23.18,-55.953 15.46,-13.391 33.72,-20.078 54.81,-20.078 13.51,0 26.19,2.879 38.07,8.641 11.87,5.777 21.5,14.398 28.87,25.89 7.37,11.488 11.06,25.317 11.06,41.5 0,12.867 -3.67,25.27 -10.98,37.168 -7.32,11.899 -17.08,21.422 -29.25,28.582 -12.18,7.156 -24.98,10.738 -38.39,10.738 -13.3,0 -25.91,-3.582 -37.84,-10.738 z m 171.1,112.11 c 13.51,0 24.96,-4.172 34.33,-12.52 9.36,-8.34 14.04,-20.23 14.04,-35.691 V 155.77 c 0,-30.61 -8.78,-57.7778 -26.33,-81.52 C 2899.08,50.5 2876.34,32.1992 2848.4,19.3086 2820.45,6.44141 2791.44,0 2761.34,0 c -17.91,0 -36.16,2.73047 -54.73,8.17969 -18.57,5.47261 -35.89,13.26951 -51.96,23.42191 -16.08,10.1484 -30,22.2187 -41.76,36.2382 -5.03,7.5196 -7.53,16.1211 -7.53,25.8125 0,19.2577 7.73,34.2457 23.18,44.9567 6.25,3.813 13.41,5.731 21.49,5.731 8.8,0 17.58,-1.918 26.33,-5.731 8.76,-3.8 15.69,-8.449 20.81,-13.898 6.86,-6.59 16.45,-11.832 28.79,-15.691 12.33,-3.86 25.35,-5.801 39.07,-5.801 20.67,0 38.33,4.441 52.97,13.301 14.63,8.859 21.96,21.941 21.96,39.25 v 17 c -23.75,-10.93 -48.93,-16.391 -75.54,-16.391 -23.55,0 -46.37,4.41 -68.48,13.223 -22.11,8.796 -41.86,21.398 -59.27,37.789 -17.38,16.371 -31.06,35.789 -40.98,58.257 -9.93,22.454 -14.9,46.821 -14.9,73.094 0,32.25 8.19,62.219 24.57,89.93 16.38,27.73 38.46,49.719 66.25,65.988 27.79,16.281 57.7,24.422 89.73,24.422 26,0 54.31,-8.66 84.91,-25.961 11.77,15.66 27.89,23.481 48.35,23.481"
         style="fill:#943da3;fill-opacity:1;fill-rule:nonzero;stroke:none"
         transform="matrix(0.13333333,0,0,-0.13333333,0,456.82667)" />
      <path
         id="path30"
         d="m 3532.47,259.91 c 10.07,-15.949 23.33,-28.34 39.76,-37.148 16.44,-8.821 33.54,-13.223 51.34,-13.223 28.37,0 52.26,10.152 71.7,30.441 10.66,15.981 23.66,23.961 39,23.961 9.21,0 18.27,-2.929 27.17,-8.8 8.91,-5.879 16.06,-13.532 21.43,-22.95 5.37,-9.429 8.06,-19.082 8.06,-28.98 0,-15.359 -6.92,-28.231 -20.74,-38.641 -19.13,-19.578 -41.51,-34.781 -67.16,-45.66 -25.65,-10.871 -52.74,-16.301 -81.29,-16.301 -37.35,0 -72.13,9.481 -104.26,28.43 -32.13,18.953 -57.6,44.711 -76.38,77.262 -18.77,32.558 -28.16,67.801 -28.16,105.711 0,38.328 9.36,73.718 28.09,106.168 18.72,32.449 44.16,58.101 76.3,76.961 32.13,18.859 66.96,28.281 104.41,28.281 28.55,0 55.64,-5.453 81.29,-16.313 25.65,-10.867 48.03,-26.089 67.16,-45.668 3.59,-4.332 8.05,-10.531 13.36,-18.609 5.32,-8.09 7.99,-14.973 7.99,-20.641 0,-15.75 -5.49,-28.691 -16.51,-38.781 -10.99,-10.09 -23.51,-15.148 -37.53,-15.148 -16.69,0 -29.94,6.738 -39.76,20.25 -20.38,18.636 -44.22,27.957 -71.54,27.957 -18.63,0 -36.31,-4.328 -53.05,-12.969 -16.74,-8.648 -30.23,-20.918 -40.46,-36.781 -10.25,-15.879 -15.36,-34.098 -15.36,-54.707 0,-20.09 5.03,-38.114 15.14,-54.102"
         style="fill:#943da3;fill-opacity:1;fill-rule:nonzero;stroke:none"
         transform="matrix(0.13333333,0,0,-0.13333333,0,456.82667)" />
      <path
         id="path31"
         d="m 3933.72,262.402 c 9.61,-16.281 22.46,-29.261 38.51,-38.941 16.08,-9.699 33.18,-14.52 51.29,-14.52 18.12,0 35.34,4.821 51.66,14.52 16.32,9.68 29.43,22.66 39.3,38.941 9.87,16.258 14.81,33.477 14.81,51.61 0,18.648 -4.91,36.039 -14.73,52.148 -9.82,16.141 -22.9,28.981 -39.24,38.559 -16.3,9.582 -33.58,14.371 -51.8,14.371 -18.21,0 -35.34,-4.789 -51.36,-14.371 -16.01,-9.578 -28.83,-22.418 -38.44,-38.559 -9.65,-16.109 -14.46,-33.5 -14.46,-52.148 0,-18.133 4.81,-35.352 14.46,-51.61 z m 194.8,234.739 c 32.37,-18.86 57.96,-44.461 76.87,-76.809 18.87,-32.352 28.31,-67.793 28.31,-106.32 0,-38.114 -9.46,-73.403 -28.39,-105.852 -18.95,-32.449 -44.55,-58.168 -76.86,-77.121 -32.29,-18.949 -67.27,-28.43 -104.93,-28.43 -37.27,0 -71.95,9.481 -104.1,28.43 -32.14,18.953 -57.61,44.711 -76.38,77.262 -18.78,32.558 -28.17,67.801 -28.17,105.711 0,38.328 9.36,73.718 28.09,106.168 18.72,32.449 44.17,58.101 76.3,76.961 32.14,18.859 66.89,28.281 104.26,28.281 37.66,0 72.67,-9.422 105,-28.281"
         style="fill:#943da3;fill-opacity:1;fill-rule:nonzero;stroke:none"
         transform="matrix(0.13333333,0,0,-0.13333333,0,456.82667)" />
      <path
         id="path32"
         d="m 4360.66,155.77 c 0,-15.45 -5.27,-27.668 -15.83,-36.629 -10.53,-8.961 -22.87,-13.43 -36.99,-13.43 -14.22,0 -26.59,4.441 -37.07,13.359 -10.51,8.899 -15.75,21.149 -15.75,36.7 v 422.812 c 0,16.168 5.22,28.66 15.68,37.477 10.43,8.8 22.82,13.203 37.14,13.203 14.33,0 26.72,-4.403 37.14,-13.203 10.46,-8.817 15.68,-21.309 15.68,-37.477 V 155.77"
         style="fill:#943da3;fill-opacity:1;fill-rule:nonzero;stroke:none"
         transform="matrix(0.13333333,0,0,-0.13333333,0,456.82667)" />
      <path
         id="path33"
         d="m 4499.6,262.402 c 9.61,-16.281 22.46,-29.261 38.51,-38.941 16.09,-9.699 33.19,-14.52 51.3,-14.52 18.12,0 35.34,4.821 51.64,14.52 16.34,9.68 29.45,22.66 39.31,38.941 9.87,16.258 14.82,33.477 14.82,51.61 0,18.648 -4.92,36.039 -14.74,52.148 -9.82,16.141 -22.9,28.981 -39.23,38.559 -16.31,9.582 -33.58,14.371 -51.8,14.371 -18.22,0 -35.34,-4.789 -51.37,-14.371 -16,-9.578 -28.83,-22.418 -38.44,-38.559 -9.64,-16.109 -14.45,-33.5 -14.45,-52.148 0,-18.133 4.81,-35.352 14.45,-51.61 z m 194.8,234.739 c 32.37,-18.86 57.96,-44.461 76.87,-76.809 18.88,-32.352 28.32,-67.793 28.32,-106.32 0,-38.114 -9.46,-73.403 -28.4,-105.852 -18.95,-32.449 -44.55,-58.168 -76.85,-77.121 -32.29,-18.949 -67.28,-28.43 -104.93,-28.43 -37.27,0 -71.95,9.481 -104.11,28.43 -32.13,18.953 -57.6,44.711 -76.38,77.262 -18.77,32.558 -28.16,67.801 -28.16,105.711 0,38.328 9.36,73.718 28.09,106.168 18.72,32.449 44.16,58.101 76.3,76.961 32.13,18.859 66.88,28.281 104.26,28.281 37.65,0 72.66,-9.422 104.99,-28.281"
         style="fill:#943da3;fill-opacity:1;fill-rule:nonzero;stroke:none"
         transform="matrix(0.13333333,0,0,-0.13333333,0,456.82667)" />
      <path
         id="path34"
         d="m 5030.93,525.422 c 15.37,0 27.45,-5.332 36.31,-16 8.85,-10.672 13.28,-23.262 13.28,-37.793 0,-14.527 -4.33,-26.91 -12.95,-37.149 -8.65,-10.261 -20.86,-15.39 -36.64,-15.39 -18.22,0 -35.36,-4.789 -51.42,-14.371 -16.07,-9.578 -28.92,-22.418 -38.54,-38.559 -9.62,-16.109 -14.43,-33.5 -14.43,-52.148 V 155.77 c 0,-15.758 -5.24,-28.149 -15.75,-37.168 -10.48,-9.02 -22.84,-13.52 -37.06,-13.52 -13.93,0 -26.01,4.5 -36.24,13.52 -10.22,9.019 -15.36,21.41 -15.36,37.168 v 317.722 c 0,15.457 4.75,27.559 14.3,36.317 9.51,8.761 20.85,13.132 34.07,13.132 9.92,0 19.33,-2.55 28.18,-7.64 8.86,-5.11 16.04,-12.492 21.55,-22.18 35.22,21.52 72.13,32.301 110.7,32.301"
         style="fill:#943da3;fill-opacity:1;fill-rule:nonzero;stroke:none"
         transform="matrix(0.13333333,0,0,-0.13333333,0,456.82667)" />
      <path
         id="path35"
         d="m 5709.63,404.719 c -16.01,-9.578 -28.83,-22.418 -38.45,-38.559 -9.64,-16.109 -14.45,-33.5 -14.45,-52.148 0,-18.133 4.81,-35.352 14.45,-51.61 9.62,-16.281 22.47,-29.261 38.53,-38.941 16.07,-9.699 33.17,-14.52 51.29,-14.52 18.11,0 35.33,4.821 51.64,14.52 16.33,9.68 29.44,22.66 39.31,38.941 9.88,16.258 14.81,33.477 14.81,51.61 0,18.648 -4.91,36.039 -14.74,52.148 -9.81,16.141 -22.89,28.981 -39.23,38.559 -16.31,9.582 -33.58,14.371 -51.79,14.371 -18.22,0 -35.35,-4.789 -51.37,-14.371 z M 5971.17,155.77 c 0,-13.7 -5.29,-25.981 -15.9,-36.86 -10.58,-10.871 -22.95,-16.301 -37.07,-16.301 -33.04,3.7 -50.19,21.43 -51.44,53.161 -12.47,-14.02 -28.53,-26.379 -48.12,-37.098 -19.61,-10.711 -38.82,-16.063 -57.64,-16.063 -37.28,0 -71.96,9.481 -104.12,28.43 -32.12,18.953 -57.59,44.711 -76.37,77.262 -18.78,32.558 -28.17,67.801 -28.17,105.711 0,38.328 9.37,73.718 28.09,106.168 18.73,32.449 44.17,58.101 76.3,76.961 32.14,18.859 66.89,28.281 104.27,28.281 37.65,0 72.66,-9.422 105,-28.281 32.36,-18.86 57.95,-44.461 76.86,-76.809 18.88,-32.352 28.31,-67.793 28.31,-106.32 V 155.77"
         style="fill:#943da3;fill-opacity:1;fill-rule:nonzero;stroke:none"
         transform="matrix(0.13333333,0,0,-0.13333333,0,456.82667)" />
      <path
         id="path36"
         d="m 6120.69,519.469 c 9.32,3.961 19.4,5.953 30.26,5.953 27.73,0 53.81,-7.231 78.21,-21.723 24.42,-14.469 43.89,-33.898 58.41,-58.258 14.55,-24.359 21.8,-50.449 21.8,-78.269 V 155.77 c 0,-15.45 -5.26,-27.668 -15.8,-36.629 -10.55,-8.961 -22.87,-13.43 -37.02,-13.43 -14.22,0 -26.58,4.441 -37.07,13.359 -10.48,8.899 -15.72,21.149 -15.72,36.7 v 211.402 c 0,15.457 -5.19,27.527 -15.52,36.238 -10.33,8.699 -22.57,13.059 -36.69,13.059 -14.42,0 -26.74,-4.328 -36.91,-12.977 -10.21,-8.652 -15.29,-20.762 -15.29,-36.32 V 155.77 c 0,-15.758 -5.24,-28.149 -15.73,-37.168 -10.51,-9.02 -22.87,-13.52 -37.09,-13.52 -13.91,0 -26,4.5 -36.23,13.52 -10.22,9.019 -15.34,21.41 -15.34,37.168 v 317.722 c 0,13.078 5.24,25.008 15.72,35.77 10.51,10.758 22.44,16.16 35.85,16.16 6.36,0 11.81,-2.121 16.36,-6.34 4.55,-4.23 10.41,-10.773 17.58,-19.621 17.51,9.371 30.92,16.039 40.22,20.008"
         style="fill:#943da3;fill-opacity:1;fill-rule:nonzero;stroke:none"
         transform="matrix(0.13333333,0,0,-0.13333333,0,456.82667)" />
      <path
         id="path37"
         d="m 6467.22,615.051 c 8.39,-10.301 12.59,-22.66 12.59,-37.09 0,-14.231 -4.2,-26.531 -12.59,-36.93 -8.4,-10.402 -20.13,-15.609 -35.16,-15.609 -16.29,0 -28.93,5.148 -38.02,15.457 -9.05,10.281 -13.58,22.453 -13.58,36.461 0,14.219 4.61,26.629 13.84,37.242 9.21,10.609 21.77,15.918 37.76,15.918 15.03,0 26.76,-5.16 35.16,-15.449 z m -87.98,-195.832 c 0,16.09 5.16,28.531 15.52,37.34 10.33,8.812 22.77,13.222 37.3,13.222 14.42,0 26.84,-4.41 37.22,-13.222 10.41,-8.809 15.59,-21.25 15.59,-37.34 V 155.781 c 0,-15.461 -5.26,-27.66 -15.82,-36.64 -10.53,-8.961 -22.87,-13.43 -36.99,-13.43 -14.23,0 -26.59,4.441 -37.07,13.359 -10.51,8.922 -15.75,21.16 -15.75,36.711 v 263.438"
         style="fill:#943da3;fill-opacity:1;fill-rule:nonzero;stroke:none"
         transform="matrix(0.13333333,0,0,-0.13333333,0,456.82667)" />
      <path
         id="path38"
         d="m 6674.01,519.012 c 9.95,4.269 20.64,6.41 32.11,6.41 21.07,0 39.77,-4.363 56.1,-13.063 16.33,-8.707 32.01,-21.668 47.07,-38.867 11.55,12.059 22.44,21.738 32.61,29.059 10.18,7.308 21.27,12.949 33.26,16.918 11.96,3.961 25.21,5.953 39.74,5.953 27.76,0 53.73,-7.211 77.92,-21.641 24.2,-14.422 43.49,-33.832 57.81,-58.179 14.33,-24.372 21.5,-50.512 21.5,-78.43 V 155.77 c 0,-15.45 -5.17,-27.668 -15.52,-36.629 -10.33,-8.961 -22.57,-13.43 -36.69,-13.43 -13.91,0 -26.1,4.469 -36.53,13.43 -10.43,8.961 -15.68,21.179 -15.68,36.629 v 211.402 c 0,15.457 -5.16,27.527 -15.49,36.238 -10.36,8.699 -22.56,13.059 -36.68,13.059 -14.46,0 -26.74,-4.328 -36.95,-12.977 -10.17,-8.652 -15.26,-20.762 -15.26,-36.32 V 155.77 c 0,-15.45 -5.27,-27.668 -15.83,-36.629 -10.53,-8.961 -22.87,-13.43 -36.99,-13.43 -14.22,0 -26.58,4.441 -37.07,13.359 -10.51,8.899 -15.76,21.149 -15.76,36.7 v 211.402 c 0,15.558 -5.1,27.668 -15.33,36.32 -10.25,8.649 -22.52,12.977 -36.87,12.977 -14.11,0 -26.36,-4.36 -36.68,-13.059 -10.33,-8.711 -15.5,-20.781 -15.5,-36.238 V 155.77 c 0,-15.758 -5.24,-28.149 -15.75,-37.168 -10.48,-9.02 -22.84,-13.52 -37.07,-13.52 -13.91,0 -26,4.5 -36.22,13.52 -10.26,9.019 -15.37,21.41 -15.37,37.168 v 317.722 c 0,13.078 5.24,25.008 15.75,35.77 10.48,10.758 22.44,16.16 35.84,16.16 6.34,0 11.63,-1.961 15.88,-5.883 4.24,-3.91 10.49,-10.598 18.67,-20.078 16.05,8.75 29.06,15.258 38.98,19.551"
         style="fill:#943da3;fill-opacity:1;fill-rule:nonzero;stroke:none"
         transform="matrix(0.13333333,0,0,-0.13333333,0,456.82667)" />
      <path
         id="path39"
         d="m 7254.58,404.719 c -16.01,-9.578 -28.83,-22.418 -38.45,-38.559 -9.64,-16.109 -14.45,-33.5 -14.45,-52.148 0,-18.133 4.81,-35.352 14.45,-51.61 9.62,-16.281 22.46,-29.261 38.52,-38.941 16.08,-9.699 33.18,-14.52 51.3,-14.52 18.11,0 35.33,4.821 51.64,14.52 16.34,9.68 29.44,22.66 39.31,38.941 9.87,16.258 14.81,33.477 14.81,51.61 0,18.648 -4.91,36.039 -14.74,52.148 -9.81,16.141 -22.89,28.981 -39.23,38.559 -16.31,9.582 -33.58,14.371 -51.79,14.371 -18.23,0 -35.35,-4.789 -51.37,-14.371 z M 7516.12,155.77 c 0,-13.7 -5.29,-25.981 -15.9,-36.86 -10.58,-10.871 -22.95,-16.301 -37.07,-16.301 -33.05,3.7 -50.2,21.43 -51.44,53.161 -12.47,-14.02 -28.53,-26.379 -48.12,-37.098 -19.62,-10.711 -38.82,-16.063 -57.64,-16.063 -37.28,0 -71.96,9.481 -104.11,28.43 -32.14,18.953 -57.61,44.711 -76.38,77.262 -18.78,32.558 -28.17,67.801 -28.17,105.711 0,38.328 9.37,73.718 28.09,106.168 18.73,32.449 44.17,58.101 76.3,76.961 32.14,18.859 66.88,28.281 104.27,28.281 37.65,0 72.65,-9.422 105,-28.281 32.35,-18.86 57.96,-44.461 76.85,-76.809 18.88,-32.352 28.32,-67.793 28.32,-106.32 V 155.77"
         style="fill:#943da3;fill-opacity:1;fill-rule:nonzero;stroke:none"
         transform="matrix(0.13333333,0,0,-0.13333333,0,456.82667)" />
      <path
         id="path40"
         d="m 7638.57,616.059 c 10.38,8.8 22.59,13.203 36.61,13.203 14.22,0 26.49,-4.403 36.77,-13.203 10.28,-8.817 15.44,-21.309 15.44,-37.477 v -105.09 h 52.79 c 15.68,0 27.96,-5.25 36.87,-15.762 8.91,-10.511 13.36,-22.968 13.36,-37.398 0,-14.531 -4.43,-27.023 -13.28,-37.48 -8.86,-10.45 -21.17,-15.68 -36.95,-15.68 h -52.79 V 260.84 c 0,-15.649 4.35,-26.77 13.06,-33.379 8.67,-6.59 21.82,-12.711 39.43,-18.379 17.61,-5.672 30.86,-12.012 39.77,-19 8.89,-7.012 13.35,-18.453 13.35,-34.312 0,-13.598 -5.42,-25.86 -16.25,-36.77 -10.87,-10.93 -23.03,-16.391 -36.57,-16.391 -27.52,0 -53.39,7.27 -77.59,21.789 -24.2,14.532 -43.54,33.993 -57.96,58.422 -14.43,24.41 -21.65,50.422 -21.65,78.02 v 106.332 h -52.82 c -15.65,0 -27.96,5.25 -36.92,15.758 -8.95,10.511 -13.43,22.781 -13.43,36.781 0,14.629 4.46,27.258 13.35,37.871 8.91,10.609 21.25,15.91 37,15.91 h 52.82 v 105.09 c 0,16.168 5.18,28.66 15.59,37.477"
         style="fill:#943da3;fill-opacity:1;fill-rule:nonzero;stroke:none"
         transform="matrix(0.13333333,0,0,-0.13333333,0,456.82667)" />
      <path
         id="path41"
         d="m 8112.21,404.648 c -20.61,10.051 -42.59,15.063 -65.95,15.063 -22.21,0 -42.44,-4.762 -60.7,-14.289 -18.28,-9.531 -31.81,-23.57 -40.61,-42.121 h 212.62 c -9.62,17.519 -24.73,31.289 -45.36,41.347 z m 131.73,-89.937 c -4.45,-8.719 -10.25,-15.742 -17.43,-21.09 -7.17,-5.359 -14.63,-8.039 -22.41,-8.039 h -259.15 c 1.93,-3.102 4.47,-7.273 7.58,-12.523 3.13,-5.25 5.42,-9.739 6.84,-13.45 9.62,-15.957 22.42,-28.41 38.39,-37.32 15.96,-8.91 32.75,-13.348 50.35,-13.348 28.55,0 53.08,10.348 73.53,31.039 11.47,16.391 25.96,24.579 43.46,24.579 15.16,0 27.63,-5.95 37.48,-17.848 9.81,-11.902 14.72,-25.32 14.72,-40.262 0,-18.129 -6.91,-32.09 -20.73,-41.879 -19.13,-19.578 -41.52,-34.781 -67.17,-45.66 -25.64,-10.871 -52.74,-16.301 -81.29,-16.301 -37.37,0 -71.97,9.481 -103.84,28.43 -31.92,18.953 -57.15,44.711 -75.77,77.262 -18.66,32.558 -27.96,67.801 -27.96,105.711 0,38.328 9.28,73.75 27.88,106.25 18.57,32.5 43.81,58.148 75.77,76.957 31.92,18.801 66.55,28.203 103.92,28.203 24.15,0 47.38,-4.492 69.72,-13.442 22.31,-8.968 42.51,-21.671 60.63,-38.109 18.11,-16.441 33.45,-35.949 45.99,-58.562 12.52,-22.618 21.25,-46.911 26.15,-72.868 0,-9.781 -2.2,-19.031 -6.66,-27.73"
         style="fill:#943da3;fill-opacity:1;fill-rule:nonzero;stroke:none"
         transform="matrix(0.13333333,0,0,-0.13333333,0,456.82667)" />
      <path
         id="path42"
         d="m 1269.31,2404.6 c 0,-76.2 -61.77,-137.98 -137.97,-137.98 -76.21,0 -137.985,61.78 -137.985,137.98 0,76.2 61.775,137.98 137.985,137.98 76.2,0 137.97,-61.78 137.97,-137.98"
         style="fill:#211d1d;fill-opacity:1;fill-rule:nonzero;stroke:none"
         transform="matrix(0.13333333,0,0,-0.13333333,0,456.82667)" />
      <path
         id="path43"
         d="m 3266.4,322.809 c 0,-51.957 -42.12,-94.079 -94.07,-94.079 -51.95,0 -94.06,42.122 -94.06,94.079 0,51.953 42.11,94.07 94.06,94.07 51.95,0 94.07,-42.117 94.07,-94.07"
         style="fill:#943da3;fill-opacity:1;fill-rule:nonzero;stroke:none"
         transform="matrix(0.13333333,0,0,-0.13333333,0,456.82667)" />
      <path
         id="path44"
         d="m 5414.47,322.809 c 0,-56.379 -45.7,-102.079 -102.07,-102.079 -56.38,0 -102.08,45.7 -102.08,102.079 0,56.371 45.7,102.082 102.08,102.082 56.37,0 102.07,-45.711 102.07,-102.082"
         style="fill:#943da3;fill-opacity:1;fill-rule:nonzero;stroke:none"
         transform="matrix(0.13333333,0,0,-0.13333333,0,456.82667)" />
      <path
         id="path45"
         d="m 8808.65,2677.44 c -110.28,0 -200,-89.73 -200,-200.01 0,-110.29 89.72,-200.02 200,-200.02 110.29,0 200.01,89.73 200.01,200.02 0,110.28 -89.72,200.01 -200.01,200.01 z m 0,-454.05 c -140.07,0 -254.02,113.96 -254.02,254.04 0,140.07 113.95,254.03 254.02,254.03 140.08,0 254.03,-113.96 254.03,-254.03 0,-140.08 -113.95,-254.04 -254.03,-254.04"
         style="fill:#100f0d;fill-opacity:1;fill-rule:nonzero;stroke:none"
         transform="matrix(0.13333333,0,0,-0.13333333,0,456.82667)" />
      <path
         id="path46"
         d="m 8633.71,2550.25 h 142.72 v -37.52 h -47.89 V 2398.3 h -46.95 v 114.43 h -47.88 v 37.52"
         style="fill:#100f0d;fill-opacity:1;fill-rule:nonzero;stroke:none"
         transform="matrix(0.13333333,0,0,-0.13333333,0,456.82667)" />
      <path
         id="path47"
         d="m 8797.18,2550.25 h 61.75 l 23.8,-92.45 23.66,92.45 h 61.71 V 2398.3 h -38.47 v 115.88 l -29.61,-115.88 h -34.82 l -29.58,115.88 V 2398.3 h -38.44 v 151.95"
         style="fill:#100f0d;fill-opacity:1;fill-rule:nonzero;stroke:none"
         transform="matrix(0.13333333,0,0,-0.13333333,0,456.82667)" />
    </g>
  </g>
</svg>
