<?xml version="1.0" encoding="UTF-8"?>
<svg version="1.1" xmlns="http://www.w3.org/2000/svg" width="903" height="343">
<path d="M0 0 C297.99 0 595.98 0 903 0 C903 113.19 903 226.38 903 343 C605.01 343 307.02 343 0 343 C0 229.81 0 116.62 0 0 Z " fill="#FEFEFE" transform="translate(0,0)"/>
<path d="M0 0 C3.32023118 -0.06068108 6.6403167 -0.09680886 9.9609375 -0.12890625 C10.890271 -0.14618774 11.81960449 -0.16346924 12.77709961 -0.18127441 C26.13543354 -0.27781953 37.29551194 3.9581409 48 12 C48.65355469 12.48339844 49.30710938 12.96679688 49.98046875 13.46484375 C54.80047181 17.30594994 58.37873882 22.0469072 62 27 C66.3453405 25.63020186 70.41822977 23.94975168 74.5625 22.0625 C92.76611369 14.22761132 114.83978962 12.41671755 133.65625 19.453125 C138.83412304 21.84849617 143.45678952 24.55092793 148 28 C148.77730469 28.57234375 149.55460938 29.1446875 150.35546875 29.734375 C162.55911457 39.56450623 170.39576085 55.60689369 172.71875 70.9296875 C174.57023427 91.14172413 170.96432226 110.82160618 158 127 C157.071875 128.17369141 157.071875 128.17369141 156.125 129.37109375 C146.13503994 141.31473552 131.72282824 149.71539909 116.17578125 151.28515625 C111.52820154 151.52715306 108.85995348 151.55037023 104.875 149 C102.36761667 144.98818667 102 142.74861818 102 138 C103.59893531 134.21304795 105.57025583 132.18794025 109 130 C111.84765625 129.26171875 111.84765625 129.26171875 115.0625 128.6875 C127.46210953 126.00462484 137.53195873 119.36695794 144.75 108.9375 C151.99763949 96.81387421 153.8284631 83.59887642 150.875 69.875 C147.90564936 59.371269 142.70008683 49.94337535 133.1328125 44.3125 C119.85166989 37.42352827 105.77351939 35.41444315 91.24975586 39.64624023 C86.89709491 41.05246869 82.76611289 42.61559318 78.67578125 44.66796875 C76 46 76 46 74 46 C74.65355469 47.62228516 74.65355469 47.62228516 75.3203125 49.27734375 C82.98071018 68.83732527 87.50352617 89.16690921 90 110 C90.08732895 110.7236676 90.1746579 111.44733521 90.26463318 112.19293213 C91.00585905 118.89371624 91.17674625 125.53147864 91.203125 132.26953125 C91.20882507 133.4263591 91.21452515 134.58318695 91.22039795 135.77507019 C91.22980047 138.21649272 91.23636292 140.65792767 91.24023438 143.09936523 C91.24987178 146.76374612 91.28091378 150.42754881 91.3125 154.09179688 C91.37637687 168.32470921 90.59259587 181.99738679 88 196 C87.85022202 196.8131366 87.70044403 197.62627319 87.54612732 198.46405029 C83.86212748 218.13224316 77.28629628 240.19639398 60.1484375 252.30859375 C51.48697144 257.51692026 42.01382751 258.53701075 32.18359375 256.3828125 C21.3963312 252.56759914 13.97090353 244.04909275 9 234 C7.80429677 231.18150658 6.75145497 228.33031283 5.75 225.4375 C5.51579346 224.77314941 5.28158691 224.10879883 5.0402832 223.42431641 C0.24611229 208.52783554 -0.43651905 193.28233407 -0.34057617 177.78076172 C-0.33972747 175.82739271 -0.34020978 173.87402275 -0.34190369 171.9206543 C-0.34275557 166.67799936 -0.32526225 161.43555526 -0.30418181 156.19294882 C-0.28527876 150.69172359 -0.28365393 145.1904922 -0.28010559 139.6892395 C-0.27082482 129.29874813 -0.24626539 118.90835277 -0.21605712 108.51790345 C-0.18238876 96.67733793 -0.16599599 84.83676755 -0.15097082 72.99616599 C-0.11971181 48.66405767 -0.06702945 24.33203424 0 0 Z " fill="#B1FAFB" transform="translate(0,0)"/>
<path d="M0 0 C2.9375 1.5625 2.9375 1.5625 5 4 C6.42991733 9.82910177 5.54411108 13.94942246 3.8125 19.5 C3.345517 21.08048205 2.87938615 22.66121611 2.4140625 24.2421875 C2.17719727 25.03206055 1.94033203 25.82193359 1.69628906 26.63574219 C0.62293561 30.28032662 -0.34704151 33.95063372 -1.3125 37.625 C-1.63863281 38.85476562 -1.96476563 40.08453125 -2.30078125 41.3515625 C-2.53152344 42.22554687 -2.76226562 43.09953125 -3 44 C-1.77023438 43.95359375 -0.54046875 43.9071875 0.7265625 43.859375 C2.3593506 43.82183964 3.99216511 43.78544138 5.625 43.75 C6.43324219 43.71648437 7.24148438 43.68296875 8.07421875 43.6484375 C13.57466402 43.55899937 16.62925778 44.33839536 21 48 C23.12522039 50.67962571 22.9997086 52.01631842 22.9375 55.5 C21.79699122 59.75789943 20.65629754 60.65362459 17 63 C14.13745117 63.45410156 14.13745117 63.45410156 11.04296875 63.390625 C9.93115234 63.37773437 8.81933594 63.36484375 7.67382812 63.3515625 C6.52333984 63.31804687 5.37285156 63.28453125 4.1875 63.25 C3.01767578 63.23195312 1.84785156 63.21390625 0.64257812 63.1953125 C-2.2391178 63.1482644 -5.11913797 63.08253709 -8 63 C-8.05551025 63.56050049 -8.11102051 64.12100098 -8.16821289 64.69848633 C-8.69532575 69.7552592 -9.44744462 74.69618455 -10.4375 79.6875 C-10.83726396 81.79822427 -11.2321233 83.90983233 -11.62695312 86.02148438 C-11.95683372 87.77106054 -12.29789171 89.51852116 -12.640625 91.265625 C-13.99882973 99.14321242 -14.20668601 106.8919422 -14.25 114.875 C-14.26389771 116.48072876 -14.26389771 116.48072876 -14.27807617 118.11889648 C-14.24849616 125.53884014 -14.17873955 134.17391801 -9 140 C-7.35646838 140.72182132 -5.68554563 141.38261992 -4 142 C-0.76833772 143.18415654 0.78924024 143.77719683 3.1875 146.3125 C4.30641911 150.01354012 4.06178422 152.28375522 3 156 C0.81008403 158.58297781 -0.96831688 160.48415844 -4 162 C-11.74284211 162.23362024 -18.97086218 159.46833705 -24.82421875 154.4296875 C-34.70311606 143.7296224 -35.39282704 129.28441662 -35.375 115.4375 C-35.37367065 113.55732178 -35.37367065 113.55732178 -35.37231445 111.63916016 C-35.16722132 95.07138314 -32.6306326 78.89596848 -28 63 C-29.1446875 63.2475 -29.1446875 63.2475 -30.3125 63.5 C-35.18082506 64.16011187 -40.09912577 64.4724699 -45 64 C-45.66 63.34 -46.32 62.68 -47 62 C-46.95359375 62.95519531 -46.9071875 63.91039062 -46.859375 64.89453125 C-46.51917719 77.08090286 -48.49903815 86.7315902 -57 96 C-62.31051568 101.48219183 -68.00254448 105.01207551 -75 108 C-75.70769531 108.309375 -76.41539062 108.61875 -77.14453125 108.9375 C-83.72671024 111.47756165 -90.97365179 112.39035268 -98 112 C-101.53170544 110.35252847 -102.81491403 109.27762896 -105 106 C-105.57609682 100.89742814 -105.57609682 100.89742814 -105 98 C-102.5625 95.0625 -102.5625 95.0625 -100 93 C-99.67 92.67 -99.34 92.34 -99 92 C-97.24491903 91.7064305 -95.48901278 91.41703528 -93.72949219 91.15136719 C-85.2849 89.83082934 -77.43072654 88.06029358 -71.54296875 81.3359375 C-68.80204807 77.09380585 -68 72.94096854 -68 68 C-69.07451664 65.25610787 -69.07451664 65.25610787 -72 64 C-80.01803502 62.61073651 -86.35728178 64.49758999 -93 69 C-102.34269781 75.98551623 -108.99667505 88.57326142 -111.6015625 99.85546875 C-113.12641922 111.88987717 -113.92641569 125.76406497 -106.375 135.9375 C-102.00127571 140.53913549 -96.69617757 141.70587154 -90.5625 142.375 C-81.96544962 141.47004733 -74.4070109 138.94495999 -68.625 132.25 C-65.52140959 129.58977965 -63.92436808 129.23285918 -59.9375 129.52734375 C-56.33682874 130.40573331 -54.99227704 131.94932578 -53 135 C-51.90565362 139.1116157 -52.10098008 142.42528359 -54.2265625 146.1484375 C-61.44339007 155.07541378 -71.93108689 159.7936545 -83 162 C-96.63548596 163.40809023 -108.66783254 160.86206111 -119.5546875 152.33984375 C-126.81764774 145.39014218 -132.52219257 134.81195077 -133.14526367 124.625 C-133.36118404 99.66181901 -130.26663845 78.20252943 -112.31640625 59.25 C-101.79202795 49.02733238 -89.96126377 42.569702 -75.11743164 42.63427734 C-66.35263985 42.85337201 -59.86686558 45.65190307 -53.375 51.53515625 C-52 53 -52 53 -50 56 C-49.62875 54.9275 -49.2575 53.855 -48.875 52.75 C-47.09729315 48.67608847 -45.03044256 47.01522128 -41 45 C-34.99353522 43.02046829 -29.28147048 42.80058824 -23 43 C-22.87044922 41.47439453 -22.87044922 41.47439453 -22.73828125 39.91796875 C-21.98227821 33.90569241 -20.33223552 28.112944 -18.72631836 22.28100586 C-18.18673976 20.30972256 -17.66639665 18.33397015 -17.14648438 16.35742188 C-16.80294922 15.10123047 -16.45941406 13.84503906 -16.10546875 12.55078125 C-15.64370239 10.84402222 -15.64370239 10.84402222 -15.17260742 9.1027832 C-12.25765096 1.38964939 -8.08372236 -1.08402407 0 0 Z " fill="#1F2124" transform="translate(255,86)"/>
<path d="M0 0 C3.32023118 -0.06068108 6.6403167 -0.09680886 9.9609375 -0.12890625 C10.890271 -0.14618774 11.81960449 -0.16346924 12.77709961 -0.18127441 C26.13543354 -0.27781953 37.29551194 3.9581409 48 12 C48.65355469 12.48339844 49.30710938 12.96679688 49.98046875 13.46484375 C54.80047181 17.30594994 58.37873882 22.0469072 62 27 C66.3453405 25.63020186 70.41822977 23.94975168 74.5625 22.0625 C92.76611369 14.22761132 114.83978962 12.41671755 133.65625 19.453125 C138.83412304 21.84849617 143.45678952 24.55092793 148 28 C148.77730469 28.57234375 149.55460938 29.1446875 150.35546875 29.734375 C162.55911457 39.56450623 170.39576085 55.60689369 172.71875 70.9296875 C174.57023427 91.14172413 170.96432226 110.82160618 158 127 C157.071875 128.17369141 157.071875 128.17369141 156.125 129.37109375 C146.13503994 141.31473552 131.72282824 149.71539909 116.17578125 151.28515625 C111.52820154 151.52715306 108.85995348 151.55037023 104.875 149 C102.36761667 144.98818667 102 142.74861818 102 138 C103.59893531 134.21304795 105.57025583 132.18794025 109 130 C111.84765625 129.26171875 111.84765625 129.26171875 115.0625 128.6875 C127.46210953 126.00462484 137.53195873 119.36695794 144.75 108.9375 C151.99763949 96.81387421 153.8284631 83.59887642 150.875 69.875 C147.90564936 59.371269 142.70008683 49.94337535 133.1328125 44.3125 C119.85166989 37.42352827 105.77351939 35.41444315 91.24975586 39.64624023 C86.89709491 41.05246869 82.76611289 42.61559318 78.67578125 44.66796875 C76 46 76 46 74 46 C74.65355469 47.62228516 74.65355469 47.62228516 75.3203125 49.27734375 C82.98071018 68.83732527 87.50352617 89.16690921 90 110 C90.08732895 110.7236676 90.1746579 111.44733521 90.26463318 112.19293213 C91.00585905 118.89371624 91.17674625 125.53147864 91.203125 132.26953125 C91.20882507 133.4263591 91.21452515 134.58318695 91.22039795 135.77507019 C91.22980047 138.21649272 91.23636292 140.65792767 91.24023438 143.09936523 C91.24987178 146.76374612 91.28091378 150.42754881 91.3125 154.09179688 C91.37637687 168.32470921 90.59259587 181.99738679 88 196 C87.85022202 196.8131366 87.70044403 197.62627319 87.54612732 198.46405029 C83.86212748 218.13224316 77.28629628 240.19639398 60.1484375 252.30859375 C51.48697144 257.51692026 42.01382751 258.53701075 32.18359375 256.3828125 C21.3963312 252.56759914 13.97090353 244.04909275 9 234 C7.80429677 231.18150658 6.75145497 228.33031283 5.75 225.4375 C5.51579346 224.77314941 5.28158691 224.10879883 5.0402832 223.42431641 C0.24611229 208.52783554 -0.43651905 193.28233407 -0.34057617 177.78076172 C-0.33972747 175.82739271 -0.34020978 173.87402275 -0.34190369 171.9206543 C-0.34275557 166.67799936 -0.32526225 161.43555526 -0.30418181 156.19294882 C-0.28527876 150.69172359 -0.28365393 145.1904922 -0.28010559 139.6892395 C-0.27082482 129.29874813 -0.24626539 118.90835277 -0.21605712 108.51790345 C-0.18238876 96.67733793 -0.16599599 84.83676755 -0.15097082 72.99616599 C-0.11971181 48.66405767 -0.06702945 24.33203424 0 0 Z M11 6 C8.64985842 8.837578 8.64985842 8.837578 9.3125 12.125 C9.70644321 14.88086422 9.70644321 14.88086422 11 16 C12.58179615 16.10867302 14.16577153 16.18589827 15.75 16.25 C31.16644216 17.57140933 41.30843744 25.65040575 51.25 36.765625 C53 39 53 39 54 42 C53.31035156 42.71542969 52.62070312 43.43085937 51.91015625 44.16796875 C45.11573645 51.32715697 39.34434921 58.67299495 34 67 C33.39542969 67.93070313 32.79085937 68.86140625 32.16796875 69.8203125 C12.92704544 101.00537557 5.84095142 139.03610206 5.75976562 175.13671875 C5.7500669 177.73209793 5.71893309 180.32668045 5.6875 182.921875 C5.55971974 203.19453759 8.00051015 227.84478941 22.328125 243.46484375 C29.29330749 249.86044356 35.94600327 251.35227304 45.23046875 251.203125 C53.72203317 250.58033043 59.38354333 246.1978092 65 240 C83.00650558 217.07350127 84.70224056 183.86577906 86 156 C86.03609375 155.23558594 86.0721875 154.47117188 86.109375 153.68359375 C86.29115102 149.11192682 86.19876952 144.56800096 86 140 C85.95891113 138.97310059 85.91782227 137.94620117 85.87548828 136.88818359 C84.62828443 108.31406597 80.88617968 80.02809836 70.19775391 53.34130859 C69.8991748 52.57512207 69.6005957 51.80893555 69.29296875 51.01953125 C69.0199292 50.33995361 68.74688965 49.66037598 68.46557617 48.96020508 C67.89404181 46.55388657 68.04041994 45.27644742 69 43 C71.58873989 41.43170525 74.00415759 40.16323323 76.75 38.9375 C77.52351807 38.58751953 78.29703613 38.23753906 79.09399414 37.87695312 C94.25263947 31.22400082 111.24161889 29.08224309 127.09375 34.7265625 C140.95773895 40.80137486 149.44910894 49.7692985 155.22265625 63.76953125 C160.28611956 78.29836317 158.73950744 93.20879525 152.4375 107.0625 C145.59186125 119.9444409 135.08910057 128.98404709 121.1875 133.3125 C119.12594849 133.87846632 117.06347493 134.44108702 115 135 C112.99587815 135.65417126 110.99456865 136.31725528 109 137 C108.11244936 139.90471118 107.81235198 141.49066965 108.875 144.375 C111.07544452 146.39863913 111.07544452 146.39863913 114.9375 146 C131.83849133 143.20599495 145.87111628 134.28262076 155.8828125 120.38671875 C157.37836688 117.97053416 158.71790957 115.53504244 160 113 C160.56460938 111.96166016 160.56460938 111.96166016 161.140625 110.90234375 C168.87931529 95.45383888 168.896282 76.32361777 164 60 C158.90794798 46.28235203 150.54695942 35.5930483 138 28 C133.4228633 25.96186004 128.80579181 24.40340914 124 23 C123.24847656 22.75507813 122.49695313 22.51015625 121.72265625 22.2578125 C106.00200995 17.5641226 86.14841551 22.6555888 71.68359375 29.58984375 C69.08455118 31.00530102 66.54155371 32.48484298 64 34 C62.67304539 34.67927438 61.34183926 35.35062366 60 36 C59.75507812 35.27554688 59.51015625 34.55109375 59.2578125 33.8046875 C56.96628977 28.69501881 52.85896599 24.98385162 49 21 C48.36835937 20.34257812 47.73671875 19.68515625 47.0859375 19.0078125 C38.41890814 10.7095929 26.46359236 6.22070306 14.5625 5.6875 C13.386875 5.790625 12.21125 5.89375 11 6 Z " fill="#1F2225" transform="translate(0,0)"/>
<path d="M0 0 C6.61423638 6.16060513 9.25311669 13.04800002 10.1875 21.9375 C10.26935547 22.60201172 10.35121094 23.26652344 10.43554688 23.95117188 C10.97862427 28.65632138 11.06877555 33.26506783 11 38 C11.67466309 37.90912109 12.34932617 37.81824219 13.04443359 37.72460938 C16.15376621 37.30967705 19.26433115 36.90478809 22.375 36.5 C23.43589844 36.35691406 24.49679687 36.21382812 25.58984375 36.06640625 C32.10321727 35.22725997 38.4336881 34.8014109 45 35 C46.52106634 38.04213267 46.37429338 41.28047572 46.5625 44.625 C46.60568359 45.33140625 46.64886719 46.0378125 46.69335938 46.765625 C46.79944751 48.51018537 46.90022889 50.25506697 47 52 C43.39746678 52.51224726 39.79277663 53.00746375 36.1875 53.5 C35.18267578 53.64308594 34.17785156 53.78617188 33.14257812 53.93359375 C26.38439357 54.84627462 19.81694781 55.18176284 13 55 C13.13631836 55.81283447 13.13631836 55.81283447 13.27539062 56.64208984 C14.86660097 66.33011282 16.30324409 75.98035235 16.4375 85.8125 C16.47037109 86.87573486 16.47037109 86.87573486 16.50390625 87.96044922 C16.47964184 94.35563898 14.24481756 99.33545814 10.140625 104.20703125 C9.51671875 104.73683594 8.8928125 105.26664062 8.25 105.8125 C7.63640625 106.35519531 7.0228125 106.89789063 6.390625 107.45703125 C0.61300471 111.18605088 -5.55413678 112.5106523 -12.3125 113.1875 C-13.04654053 113.26790527 -13.78058105 113.34831055 -14.53686523 113.43115234 C-20.36437093 114.02992552 -26.14293581 114.22770444 -32 114 C-32.33851178 111.31306278 -32.670936 108.62559711 -33 105.9375 C-33.09539063 105.18533203 -33.19078125 104.43316406 -33.2890625 103.65820312 C-33.84571902 99.06578683 -34.09829028 94.6257865 -34 90 C-35.75376953 90.2165625 -35.75376953 90.2165625 -37.54296875 90.4375 C-39.09112699 90.62515554 -40.63930513 90.8126469 -42.1875 91 C-42.95642578 91.09539062 -43.72535156 91.19078125 -44.51757812 91.2890625 C-52.33079274 92.22798958 -52.33079274 92.22798958 -56 92 C-58.05922402 89.94077598 -57.41427579 85.78291876 -57.5625 82.9375 C-57.60568359 82.17888672 -57.64886719 81.42027344 -57.69335938 80.63867188 C-57.79973633 78.75934562 -57.90039934 76.87969756 -58 75 C-50.6802723 73.13905228 -43.53216715 72.44238385 -36 72 C-36.495 71.01 -36.495 71.01 -37 70 C-37.18611382 67.96161049 -37.32344451 65.91868821 -37.4375 63.875 C-37.95306061 55.8588641 -38.95199817 47.96481392 -40 40 C-50.89 40.495 -50.89 40.495 -62 41 C-62.81235475 36.93822627 -63.10732417 33.76649908 -63.0625 29.6875 C-63.05347656 28.61886719 -63.04445313 27.55023438 -63.03515625 26.44921875 C-63.02355469 25.64097656 -63.01195312 24.83273438 -63 24 C-55.94887561 21.78788254 -49.35342179 21.79822928 -42 22 C-42.144375 20.9378125 -42.28875 19.875625 -42.4375 18.78125 C-42.62526946 17.3542021 -42.81275419 15.92711671 -43 14.5 C-43.09539063 13.80390625 -43.19078125 13.1078125 -43.2890625 12.390625 C-43.91611572 7.55335727 -44.172717 2.87925519 -44 -2 C-36.43319182 -9.56680818 -7.05218597 -5.98230305 0 0 Z " fill="#191A1D" transform="translate(856,131)"/>
<path d="M0 0 C5.61 0 11.22 0 17 0 C17 33 17 66 17 100 C26.57 100 36.14 100 46 100 C45.67 99.34 45.34 98.68 45 98 C44.90643314 94.91807555 44.87428706 91.85887051 44.88647461 88.77685547 C44.88632858 87.8207135 44.88618256 86.86457153 44.8860321 85.87945557 C44.8867306 82.70867673 44.8945201 79.53795612 44.90234375 76.3671875 C44.90420815 74.17286206 44.90563195 71.97853621 44.90663147 69.78421021 C44.9104549 64.00065976 44.92028372 58.2171343 44.93133545 52.43359375 C44.9415533 46.53515969 44.94612989 40.6367216 44.95117188 34.73828125 C44.96190612 23.15884317 44.97898047 11.57942366 45 0 C50.61 0 56.22 0 62 0 C62.01030746 1.16875671 62.02061493 2.33751343 62.03123474 3.54168701 C62.12892834 14.54816989 62.23165867 25.55459573 62.33933926 36.56098557 C62.39453841 42.21967371 62.44795369 47.87836705 62.49731445 53.53710938 C62.54500224 58.99657964 62.5973468 64.4559871 62.65294075 69.91538239 C62.67334426 71.99979339 62.69206065 74.0842216 62.70907402 76.16866302 C62.73316227 79.0848361 62.76321097 82.00089071 62.79467773 84.91699219 C62.80331093 86.21387466 62.80331093 86.21387466 62.81211853 87.53695679 C62.82190735 88.33338593 62.83169617 89.12981506 62.84178162 89.95037842 C62.84823417 90.63987957 62.85468672 91.32938072 62.8613348 92.03977585 C63.00864398 94.12219465 63.43698378 95.99324729 64 98 C69.28182668 99.02411727 69.28182668 99.02411727 74.4375 98.1875 C76.15043305 97.06705694 76.15043305 97.06705694 77 95 C77.12294769 92.01052961 77.18578769 89.04288133 77.20532227 86.05224609 C77.21522186 85.12536484 77.22512146 84.19848358 77.23532104 83.24351501 C77.2669882 80.17018211 77.29171408 77.09683372 77.31640625 74.0234375 C77.33697127 71.89636832 77.35796762 69.76930326 77.37937927 67.64224243 C77.43464658 62.03628884 77.4840353 56.43029808 77.53222656 50.82427979 C77.5824076 45.10677777 77.63811138 39.3893299 77.69335938 33.671875 C77.80099793 22.4479629 77.90243022 11.22400383 78 0 C83.61 0 89.22 0 95 0 C95.06958893 12.63941187 95.12285656 25.27877797 95.15543652 37.91834259 C95.17107527 43.78775309 95.19228108 49.65703226 95.22631836 55.52636719 C95.25897529 61.19330634 95.27686648 66.86011937 95.28463173 72.52714539 C95.29016384 74.68643681 95.30096668 76.84572154 95.31719017 79.00495911 C95.33904835 82.03535746 95.34196338 85.06523829 95.34057617 88.09570312 C95.351362 88.98331329 95.36214783 89.87092346 95.3732605 90.78543091 C95.33469477 98.59944117 93.61557479 105.22398021 88 111 C80.12525597 116.86417109 73.67138109 117.77609848 64 117 C59.23656138 115.85510335 55.65153001 113.20892032 52 110 C51.67 112.31 51.34 114.62 51 117 C34.17 117 17.34 117 0 117 C0 78.39 0 39.78 0 0 Z " fill="#16171A" transform="translate(541,129)"/>
<path d="M0 0 C0.66 0 1.32 0 2 0 C8.74320919 17.43838113 11.76971026 34.61500131 13.70117188 53.17382812 C13.8840602 54.90349745 14.0801023 56.63191814 14.29882812 58.35742188 C15.21249043 65.97127438 15.15094748 73.60034778 15.13037109 81.25634766 C15.12505816 83.59935115 15.13031846 85.94215893 15.13671875 88.28515625 C15.14461069 102.06810441 14.740845 115.77282875 12.3125 129.375 C12.14097412 130.34324707 11.96944824 131.31149414 11.79272461 132.30908203 C9.47638785 144.63924543 6.11161214 157.49034792 -1 168 C-1.639375 168.94875 -2.27875 169.8975 -2.9375 170.875 C-6.19428155 174.2304719 -9.34660252 175.71857064 -13.9375 176.5 C-18.34960189 175.77965683 -21.03950434 174.25010936 -24 171 C-30.49753759 161.15814159 -32.99182718 150.47072558 -35 139 C-35.1757959 138.0711499 -35.3515918 137.1422998 -35.53271484 136.18530273 C-41.69368565 94.1883403 -31.21654442 41.47750416 -5.90576172 7.20117188 C-4.00748989 4.70878444 -2.12323618 2.30786541 0 0 Z " fill="#FEFEFE" transform="translate(56,61)"/>
<path d="M0 0 C4.87897943 3.32082233 9.6080296 8.48635743 10.95703125 14.33203125 C11.38080216 17.66165982 11.68188471 20.12753497 9.90625 23.078125 C7.18586323 26.42444147 5.443213 28.16689994 1.14453125 28.64453125 C-2.943818 28.2437127 -4.18266579 27.26567531 -7.04296875 24.33203125 C-8.35761357 22.30395112 -9.57731074 20.25867051 -10.734375 18.13671875 C-12.30343583 15.97281994 -13.56034278 15.27420429 -16.04296875 14.33203125 C-20.36432774 13.85188025 -22.50980545 14.04030039 -26.35546875 16.14453125 C-29.68513247 18.85472265 -30.93086742 20.34180288 -31.41796875 24.64453125 C-30.96038508 29.14410404 -29.8633289 30.80658107 -27.04296875 34.33203125 C-24.46877002 36.35349449 -21.72106937 38.02308929 -18.91796875 39.70703125 C-17.38566461 40.66551425 -15.85570421 41.62775445 -14.328125 42.59375 C-13.59094238 43.05958496 -12.85375977 43.52541992 -12.09423828 44.00537109 C-1.70877939 50.72217467 6.98566409 58.94577041 9.95703125 71.33203125 C11.1591144 82.59236119 9.68969384 92.25706903 3.20703125 101.64453125 C-3.45279479 109.80657368 -12.60509202 114.99710183 -23.04296875 116.33203125 C-36.87810444 117.09172191 -48.60995255 115.89676444 -60.04296875 107.33203125 C-65.22219835 102.5789408 -68.67192565 97.35681817 -69.32421875 90.28125 C-69.56533854 81.57079749 -68.69200196 74.47165367 -62.63671875 67.71484375 C-56.81105568 62.66022432 -50.12175357 59.96790101 -42.46484375 60.04296875 C-38.55047246 60.5101679 -35.23607841 62.04248739 -32.04296875 64.33203125 C-29.36257629 68.35261994 -29.35968843 71.60885607 -30.04296875 76.33203125 C-32.05169635 79.4223814 -33.3137519 80.13757342 -36.85546875 81.08203125 C-40.26609993 81.34953173 -43.62321848 81.40042626 -47.04296875 81.33203125 C-48.10883947 86.23916777 -48.10883947 86.23916777 -46.98046875 91.01953125 C-43.51869588 95.15132468 -40.0620024 97.40683597 -34.73046875 98.20703125 C-27.28565209 98.72089907 -20.84677114 97.16853324 -15.04296875 92.33203125 C-11.5945129 88.17010178 -10.93964654 83.61007396 -11.04296875 78.33203125 C-11.91507022 71.57324487 -15.01302422 67.62514425 -20.1796875 63.36328125 C-23.54699552 60.97446792 -27.03584065 58.90056234 -30.60546875 56.83203125 C-39.81737508 51.49390803 -46.83837572 45.38335451 -51.04296875 35.33203125 C-53.00300413 27.3295938 -52.59915899 19.815954 -49.04296875 12.33203125 C-43.6856029 3.64940384 -36.80522832 -1.27240167 -27.09375 -4.26953125 C-17.7631856 -6.08232662 -8.33814704 -4.39109519 0 0 Z " fill="#1E2124" transform="translate(329.04296875,132.66796875)"/>
<path d="M0 0 C5.94 0 11.88 0 18 0 C18.01981934 2.86212158 18.03963867 5.72424316 18.06005859 8.6730957 C18.12688752 18.11679363 18.20452802 27.5603802 18.28752708 37.00394917 C18.33752849 42.73104226 18.38385819 48.45811655 18.421875 54.18530273 C18.45867921 59.70965724 18.50502589 65.23385595 18.55806351 70.75807762 C18.57663335 72.86842307 18.59173167 74.97880195 18.60334396 77.08919716 C18.62016208 80.03920154 18.64918638 82.9888471 18.68115234 85.9387207 C18.68331253 86.81625504 18.68547272 87.69378937 18.68769836 88.59791565 C18.74922114 93.59553472 18.74922114 93.59553472 21 98 C25.81154374 99.25890636 25.81154374 99.25890636 30.375 97.75 C33.92644419 93.9253678 33.17247889 89.02321808 33.20532227 84.12231445 C33.21522186 83.21479431 33.22512146 82.30727417 33.23532104 81.37225342 C33.2669362 78.36928933 33.2916936 75.36630942 33.31640625 72.36328125 C33.33697576 70.28248175 33.35797223 68.20168644 33.37937927 66.12089539 C33.43460024 60.64154442 33.48400945 55.16215574 33.53222656 49.68273926 C33.58244137 44.09249511 33.63812755 38.5023058 33.69335938 32.91210938 C33.80094129 21.94145133 33.90188071 10.97074676 34 0 C39.61 0 45.22 0 51 0 C51.11609011 12.60480658 51.20481521 25.20948499 51.25906086 37.81471825 C51.28510231 43.668501 51.32040125 49.52191672 51.37719727 55.37548828 C51.43171068 61.02949228 51.46146152 66.68314428 51.47438622 72.3373909 C51.48359138 74.48948326 51.50156684 76.64155737 51.52865028 78.79349899 C51.56519704 81.81896644 51.5699346 84.84299804 51.56762695 87.86865234 C51.58560333 88.74907196 51.60357971 89.62949158 51.62210083 90.53659058 C51.56165089 97.90962367 49.27058759 104.39405497 44.25954151 109.91892052 C37.51618868 116.18386832 31.20268876 117.57996171 22.16015625 117.3515625 C15.20714521 116.57805076 10.46963751 113.31524461 6 108 C0.45197738 100.40879624 -0.15216277 93.9041454 -0.11352539 84.68994141 C-0.11367142 83.77222961 -0.11381744 82.85451782 -0.1139679 81.90899658 C-0.11327384 78.88982745 -0.10550523 75.87072079 -0.09765625 72.8515625 C-0.09579027 70.75263503 -0.09436722 68.65370712 -0.09336853 66.55477905 C-0.08955754 61.04090158 -0.07973938 55.52705062 -0.06866455 50.01318359 C-0.05841992 44.38249063 -0.05386437 38.75179336 -0.04882812 33.12109375 C-0.03811582 22.08071567 -0.02053052 11.04036419 0 0 Z " fill="#191A1D" transform="translate(365,129)"/>
<path d="M0 0 C6.89225893 3.92737066 11.26749396 9.32236422 13.625 16.9375 C14.02837536 20.20718255 14.00540503 23.43731441 13.96557617 26.72827148 C13.96623329 28.16357964 13.96623329 28.16357964 13.96690369 29.62788391 C13.96482374 32.77166578 13.94152992 35.91490573 13.91796875 39.05859375 C13.91236998 41.24577035 13.90810121 43.43295073 13.90510559 45.62013245 C13.893679 51.36260456 13.86423046 57.10484723 13.83099365 62.847229 C13.80024572 68.71257422 13.78659016 74.5779567 13.77148438 80.44335938 C13.7393588 91.94150678 13.68818877 103.43948427 13.625 114.9375 C8.015 114.9375 2.405 114.9375 -3.375 114.9375 C-3.38530746 113.7539946 -3.39561493 112.5704892 -3.40623474 111.35112 C-3.50388053 100.21188034 -3.60660622 89.07269764 -3.71433926 77.93355083 C-3.76956509 72.2064527 -3.82298463 66.47934946 -3.87231445 60.75219727 C-3.91996291 55.22789308 -3.97230601 49.70365171 -4.02794075 44.17942238 C-4.0483621 42.06906506 -4.06707554 39.95869051 -4.08407402 37.84830284 C-4.10812279 34.89839817 -4.13817687 31.94861247 -4.16967773 28.9987793 C-4.17831093 27.6824778 -4.17831093 27.6824778 -4.18711853 26.33958435 C-4.22821504 22.96637241 -4.30115548 20.15903355 -5.375 16.9375 C-10.43150527 15.81808618 -10.43150527 15.81808618 -15.25 17.3125 C-17.2469664 18.76541182 -17.2469664 18.76541182 -18.375 19.9375 C-18.50031154 22.8892038 -18.5611113 25.81863522 -18.58032227 28.77172852 C-18.59517166 30.16183136 -18.59517166 30.16183136 -18.61032104 31.58001709 C-18.64203701 34.65878704 -18.6667332 37.73757245 -18.69140625 40.81640625 C-18.71196707 42.94490471 -18.7329633 45.07339901 -18.75437927 47.20188904 C-18.80969004 52.81607704 -18.85905947 58.43030243 -18.90722656 64.04455566 C-18.95737601 69.7686701 -19.01309622 75.49272993 -19.06835938 81.21679688 C-19.17605102 92.45698466 -19.27747138 103.69721976 -19.375 114.9375 C-24.985 114.9375 -30.595 114.9375 -36.375 114.9375 C-36.49109011 102.33269342 -36.57981521 89.72801501 -36.63406086 77.12278175 C-36.66010231 71.268999 -36.69540125 65.41558328 -36.75219727 59.56201172 C-36.80671068 53.90800772 -36.83646152 48.25435572 -36.84938622 42.6001091 C-36.85859138 40.44801674 -36.87656684 38.29594263 -36.90365028 36.14400101 C-36.94019704 33.11853356 -36.9449346 30.09450196 -36.94262695 27.06884766 C-36.96060333 26.18842804 -36.97857971 25.30800842 -36.99710083 24.40090942 C-36.93665157 17.02796014 -34.64572474 10.54309047 -29.63429737 5.01857948 C-21.32337434 -2.7038812 -10.40640228 -4.7558671 0 0 Z " fill="#16171A" transform="translate(462.375,131.0625)"/>
<path d="M0 0 C5.02834561 3.91093547 7.98259792 9.01387706 10 15 C10.58619267 20.39757708 10.47739807 25.70638722 10.3125 31.125 C10.28736323 32.57287777 10.26455962 34.02079801 10.24414062 35.46875 C10.19390678 38.98110054 10.09603022 42.4874278 10 46 C4.06 46 -1.88 46 -8 46 C-8.01417969 43.86917969 -8.02835938 41.73835938 -8.04296875 39.54296875 C-8.07358976 37.47762226 -8.1126775 35.41259749 -8.15258789 33.34741211 C-8.17577394 31.91295767 -8.19016513 30.47833285 -8.19555664 29.04370117 C-8.20484349 26.97987644 -8.24581408 24.91873292 -8.29296875 22.85546875 C-8.3086792 21.61434326 -8.32438965 20.37321777 -8.34057617 19.09448242 C-8.69842376 15.83921945 -8.69842376 15.83921945 -11.34887695 14.06762695 C-14.74839926 12.69861405 -16.53214088 12.86917637 -20 14 C-22.391471 16.35988304 -22.96824439 17.74118406 -23.38095093 21.10484314 C-23.38333771 22.32442215 -23.38572449 23.54400116 -23.38818359 24.80053711 C-23.39606903 25.81349098 -23.39606903 25.81349098 -23.40411377 26.84690857 C-23.41729176 29.07395727 -23.4085831 31.30028807 -23.3984375 33.52734375 C-23.40045912 35.07906735 -23.40337129 36.63079002 -23.40713501 38.18251038 C-23.41155556 41.43320774 -23.40513704 44.68365761 -23.39111328 47.93432617 C-23.37403559 52.09508223 -23.38385493 56.25525712 -23.40183067 60.41599178 C-23.41268809 63.62024793 -23.40921299 66.82436705 -23.4014473 70.0286274 C-23.39944995 71.56238436 -23.4018882 73.09615387 -23.40888596 74.62989616 C-23.41653138 76.7769537 -23.40485378 78.92307993 -23.38818359 81.07006836 C-23.38579681 82.29044296 -23.38341003 83.51081757 -23.38095093 84.76817322 C-22.93125361 88.58321531 -21.73612396 91.26387604 -19 94 C-15.84601659 94.28035408 -13.70683051 94.37619524 -10.87890625 92.87109375 C-8.3244806 90.32728941 -8.20643189 88.34984715 -7.75 84.8125 C-7.60046875 83.72582031 -7.4509375 82.63914062 -7.296875 81.51953125 C-7.14992188 80.27236328 -7.14992188 80.27236328 -7 79 C-9.97 79 -12.94 79 -16 79 C-16 73.06 -16 67.12 -16 61 C-7.42 61 1.16 61 10 61 C10.09247326 65.25120117 10.17189879 69.49883367 10.21972656 73.75024414 C10.23968751 75.19242252 10.26686663 76.6345216 10.30175781 78.07641602 C10.54257734 88.29353868 9.56171067 95.5526778 3.875 104.25 C-1.83759372 109.71422008 -7.56362775 112.28807854 -15.5 112.625 C-23.01328059 112.28027301 -28.72552225 110.25621858 -34.1015625 104.91015625 C-39.61512124 98.27346518 -41.2315839 92.04107575 -41.32226562 83.41918945 C-41.33219543 82.69617142 -41.34212524 81.97315338 -41.35235596 81.22822571 C-41.38135878 78.85653755 -41.3951633 76.48511698 -41.40625 74.11328125 C-41.41190475 73.29620382 -41.41755951 72.4791264 -41.42338562 71.63728905 C-41.45327592 67.31164657 -41.47179269 62.98613583 -41.48046875 58.66040039 C-41.49141406 54.22319328 -41.53944134 49.78722108 -41.59641266 45.35039997 C-41.63391553 41.91082897 -41.64408974 38.47154784 -41.6471405 35.03178978 C-41.65314042 33.39768932 -41.66901525 31.76359065 -41.69551086 30.12969398 C-41.84674225 20.08557994 -41.22245936 11.40215552 -35 3 C-24.21115805 -6.57177412 -12.30292402 -8.03820807 0 0 Z " fill="#1A1B1E" transform="translate(687,134)"/>
<path d="M0 0 C35.83606557 0 35.83606557 0 44.9375 8.8125 C51.2558015 16.0932946 51.4977505 24.1950152 51.4375 33.375 C51.4674707 34.98375 51.4674707 34.98375 51.49804688 36.625 C51.49291545 45.06105817 49.70948944 51.6454634 45.25 58.8125 C36.34835876 67.46687343 30.02828622 67 17 67 C17 83.5 17 100 17 117 C11.39 117 5.78 117 0 117 C0 78.39 0 39.78 0 0 Z " fill="#17181B" transform="translate(486,129)"/>
<path d="M0 0 C6.82193798 4.04510217 10.54005204 8.6884519 12.99609375 16.18359375 C13.58227148 21.74694036 13.47289558 27.22481142 13.30859375 32.80859375 C13.28345949 34.3046499 13.26065543 35.80074709 13.24023438 37.296875 C13.1899745 40.92764828 13.09209517 44.55260675 12.99609375 48.18359375 C7.38609375 48.18359375 1.77609375 48.18359375 -4.00390625 48.18359375 C-4.05998047 45.34701172 -4.05998047 45.34701172 -4.1171875 42.453125 C-4.18284742 39.96742809 -4.24929475 37.48175189 -4.31640625 34.99609375 C-4.35024414 33.12727539 -4.35024414 33.12727539 -4.38476562 31.22070312 C-4.42021484 30.01865234 -4.45566406 28.81660156 -4.4921875 27.578125 C-4.51837158 26.47315674 -4.54455566 25.36818848 -4.5715332 24.22973633 C-5.05259574 20.8405679 -5.96185456 18.91095564 -8.00390625 16.18359375 C-11.07959422 14.96950639 -12.5814061 15.05876416 -15.75390625 15.99609375 C-18.14386787 16.97828619 -18.14386787 16.97828619 -19.00390625 19.18359375 C-19.11662726 21.46982584 -19.16330899 23.75939829 -19.1809082 26.04833984 C-19.1874794 26.75421738 -19.1940506 27.46009491 -19.20082092 28.18736267 C-19.2205592 30.52725323 -19.23221687 32.86707964 -19.2421875 35.20703125 C-19.24626303 36.00558155 -19.25033855 36.80413185 -19.25453758 37.62688065 C-19.27539937 41.85248812 -19.28970128 46.07806309 -19.29907227 50.30371094 C-19.31014443 54.67091618 -19.34455281 59.03761297 -19.38424397 63.40463829 C-19.41037069 66.76066037 -19.4187605 70.11656049 -19.42235374 73.47267532 C-19.427229 75.08265242 -19.43886973 76.69262374 -19.45739174 78.30250168 C-19.48170344 80.55543252 -19.48083373 82.80703713 -19.47387695 85.06005859 C-19.47974319 86.3419809 -19.48560944 87.6239032 -19.49165344 88.94467163 C-18.92136451 92.73171844 -18.04928788 93.93269098 -15.00390625 96.18359375 C-12.62927834 96.45338314 -12.62927834 96.45338314 -10.25390625 95.93359375 C-8.85140625 95.68609375 -7.44890625 95.43859375 -6.00390625 95.18359375 C-5.34390625 90.56359375 -4.68390625 85.94359375 -4.00390625 81.18359375 C-6.64390625 81.18359375 -9.28390625 81.18359375 -12.00390625 81.18359375 C-12.00390625 75.57359375 -12.00390625 69.96359375 -12.00390625 64.18359375 C-3.75390625 64.18359375 4.49609375 64.18359375 12.99609375 64.18359375 C13.11183445 68.41713128 13.211046 72.6450379 13.27075195 76.87890625 C13.2956723 78.31431823 13.3296225 79.74960632 13.37329102 81.18457031 C13.66416683 90.99906245 13.25215082 99.46257495 6.25463867 107.07910156 C-0.43477513 113.39360427 -6.8263471 114.76292073 -15.84375 114.53515625 C-22.83576646 113.75730522 -27.46445774 110.47961701 -32.00390625 105.18359375 C-36.48413364 99.08550647 -37.15318994 94.94617273 -37.1809082 87.51269531 C-37.1874794 86.7446759 -37.1940506 85.97665649 -37.20082092 85.18536377 C-37.22050122 82.64831434 -37.23220503 80.11132398 -37.2421875 77.57421875 C-37.24830079 76.27079151 -37.24830079 76.27079151 -37.25453758 74.94103241 C-37.27537634 70.34122457 -37.28968727 65.74144636 -37.29907227 61.14160156 C-37.31012931 56.40269231 -37.34452727 51.66425354 -37.38424397 46.92551041 C-37.41044985 43.2708044 -37.41876764 39.61620984 -37.42235374 35.96141815 C-37.42720979 34.21519546 -37.4387957 32.46897741 -37.45739174 30.72284698 C-37.48186757 28.27221383 -37.48080322 25.82278951 -37.47387695 23.37207031 C-37.48668701 22.65905762 -37.49949707 21.94604492 -37.51269531 21.21142578 C-37.44776714 14.86852252 -35.23626731 9.78417931 -31.109375 4.9765625 C-21.60776292 -2.97692541 -11.48514265 -5.91658864 0 0 Z " fill="#17181B" transform="translate(744.00390625,131.81640625)"/>
<path d="M0 0 C11.88 0 23.76 0 36 0 C36 5.61 36 11.22 36 17 C29.73 17 23.46 17 17 17 C17 27.89 17 38.78 17 50 C23.27 50 29.54 50 36 50 C36 55.61 36 61.22 36 67 C29.73 67 23.46 67 17 67 C17 77.89 17 88.78 17 100 C23.27 100 29.54 100 36 100 C36 105.61 36 111.22 36 117 C24.12 117 12.24 117 0 117 C0 78.39 0 39.78 0 0 Z " fill="#141518" transform="translate(767,129)"/>
<path d="M0 0 C3.3 0 6.6 0 10 0 C8.73046875 1.49739583 7.4609375 2.99479167 6.19140625 4.4921875 C3.6971184 7.64889278 3.6890881 10.03587322 4 14 C4.70114656 16.89185275 4.70114656 16.89185275 7 19 C9.33622453 19.72775248 11.6430618 20.10581129 14.05859375 20.49609375 C27.95966132 22.87755154 38.37337691 28.80870519 47 40 C45.48695159 43.43588077 43.45633299 45.92521706 41 48.75 C15.61940819 79.42670246 4.70046165 119.06603938 1 158 C0.67 158 0.34 158 0 158 C0 105.86 0 53.72 0 0 Z " fill="#FDFDFD" transform="translate(0,0)"/>
<path d="M0 0 C3.6021772 3.26978476 4.7511828 6.87963315 6.375 11.375 C6.83181152 12.63824097 6.83181152 12.63824097 7.29785156 13.92700195 C16.85201562 41.1603881 19.22302443 70.11802912 19.25 98.8125 C19.25100708 99.56713531 19.25201416 100.32177063 19.25305176 101.09927368 C19.22797459 129.15731012 17.47922458 165.71584591 -2.546875 187.5625 C-6.69820336 191.66919042 -10.72911829 192.72216725 -16.44140625 193.12109375 C-22.22431981 192.8473986 -26.3236285 190.02399179 -30.1875 185.875 C-43.15547938 169.21694519 -44.43256398 146.05322345 -44.375 125.75 C-44.37445618 125.01865845 -44.37391235 124.28731689 -44.37335205 123.53381348 C-44.22663058 80.15825269 -31.51140145 31.51140145 0 0 Z M-3.59375 12.5546875 C-33.14480228 48.52461589 -41.91303067 102.11607913 -37.68359375 147.38671875 C-35.85937919 161.07718336 -32.48299618 176.45955895 -21.75 186 C-17.64451923 187.4929021 -14.18857576 187.08734508 -10 186 C-1.0010962 181.18663285 3.12565421 168.14564569 6 159 C7.58235743 153.05363886 8.81820383 147.03662631 10 141 C10.2165625 139.92621094 10.433125 138.85242188 10.65625 137.74609375 C13.20726412 123.959363 13.23543277 109.73510817 13.25 95.75 C13.25133942 94.97774078 13.25267883 94.20548157 13.25405884 93.40982056 C13.24663965 73.46371779 11.77558797 53.42224773 7 34 C6.8438623 33.36288086 6.68772461 32.72576172 6.52685547 32.06933594 C4.74766825 24.89345474 2.797251 17.85326496 0 11 C-2.13246723 10.76724 -2.13246723 10.76724 -3.59375 12.5546875 Z " fill="#1F2325" transform="translate(58,50)"/>
<path d="M0 0 C4.59992646 3.86220241 6.63902036 8.53459542 7.25390625 14.4375 C7.66836863 23.84980693 5.34651529 31.62638734 -0.75 38.875 C-9.021637 47.40512565 -20.27776101 52.24674545 -32.16796875 53.16796875 C-34.11269433 53.18677654 -36.05753118 53.09553125 -38 53 C-38.66 52.34 -39.32 51.68 -40 51 C-39.625 48.375 -39.625 48.375 -39 46 C-35.74737526 45.03899723 -32.5347387 44.11324761 -29.21484375 43.41015625 C-18.97475607 41.17715649 -11.15746382 37.59159818 -5.05859375 28.83203125 C-2.07774565 23.67329413 -2.43091003 17.76885721 -3 12 C-5.09174188 8.26474664 -7.1000491 6.59543446 -11 5 C-20.5940982 3.61418581 -28.05985601 5.5472609 -36 11 C-48.96520898 21.67291602 -56.22759953 36.33578112 -58 53 C-58.76596843 65.40991163 -58.60481392 78.09676147 -50 88 C-41.81081878 94.44236957 -33.3439585 94.84262471 -23.26025391 94.27392578 C-16.22642222 93.42147826 -10.28763924 89.62270286 -5.5 84.5625 C-4.2625 83.2940625 -4.2625 83.2940625 -3 82 C-0.84375 82.33984375 -0.84375 82.33984375 1 83 C1.8125 85.125 1.8125 85.125 2 88 C-2.6218294 95.4905511 -10.51594834 99.53747949 -18.8125 101.875 C-29.39169566 104.15652101 -40.62829384 104.35181222 -50.18359375 98.7109375 C-59.83484239 91.88755944 -64.55035673 83.66724131 -67.25 72.25 C-70.6531582 52.35699345 -65.00272919 33.92422115 -54.2421875 17.28125 C-47.08323388 7.55839206 -37.41311441 -0.56121522 -25.52734375 -3.640625 C-16.55038553 -4.91710128 -7.92279899 -4.78915461 0 0 Z " fill="#B0F8F9" transform="translate(195,139)"/>
<path d="M0 0 C3.44280037 3.52677111 5.38723332 5.83727991 5.875 10.8125 C5.5625 13.625 5.5625 13.625 3.5625 15.625 C1.25 15.75 1.25 15.75 -1.4375 14.625 C-2.87658206 12.68310614 -4.04854832 10.66492629 -5.24609375 8.56640625 C-7.36803002 5.1086937 -9.67255016 3.87998328 -13.4375 2.625 C-20.78656673 1.96960077 -26.62907057 1.78464215 -32.4375 6.625 C-36.2097774 11.71475935 -37.22745236 16.40412517 -36.4375 22.625 C-32.9970483 31.15133682 -25.57975838 35.34048848 -18 40 C-9.14119624 45.52431021 0.53516061 52.97711483 4.01953125 63.19921875 C6.27630032 73.28161869 4.53331061 82.80099103 -0.6171875 91.65234375 C-5.11496436 97.73365744 -12.64733771 101.32570761 -19.828125 103.2734375 C-30.92456376 104.76846667 -41.62593533 104.23112247 -51.625 98.9375 C-56.08151282 95.27325613 -60.58518575 91.18194274 -62.4375 85.625 C-63.09884489 78.30683934 -63.17840673 71.57869682 -58.4375 65.625 C-53.4856121 61.12328373 -49.24341228 59.39431815 -42.4453125 59.45703125 C-39.84930609 59.67420688 -37.75694447 60.46527777 -35.4375 61.625 C-35.4375 63.605 -35.4375 65.585 -35.4375 67.625 C-38.36660368 68.60136789 -39.81543371 68.62673456 -42.8125 68.4375 C-46.31567299 68.39185605 -47.31165906 68.5489711 -50.4375 70.4375 C-53.03493053 73.27843964 -53.39935189 75.11953758 -53.6875 78.9375 C-53.29482866 84.72940221 -51.30522909 88.05746816 -47.0625 91.875 C-40.40852978 97.52631718 -32.68230356 97.40665469 -24.37451172 96.86328125 C-18.04793036 96.08501765 -13.18861005 92.76405388 -8.9375 88.1875 C-4.60960817 82.50255734 -3.55856541 76.62267154 -4.4375 69.625 C-6.53792089 61.05049699 -10.99524506 55.08124398 -18.43652344 50.35546875 C-20.76133992 48.95066019 -23.0965647 47.56527377 -25.4375 46.1875 C-34.05462661 41.11171811 -41.99444197 35.70465597 -45.03515625 25.6484375 C-46.55480892 18.00591244 -45.36315367 11.39416235 -41.4375 4.625 C-31.52822052 -6.79586449 -12.23904886 -9.6034121 0 0 Z " fill="#B0F9FA" transform="translate(328.4375,139.375)"/>
<path d="M0 0 C2.513523 0.96673961 3.73893878 1.88134695 5.4375 3.9375 C6.9534375 2.9475 6.9534375 2.9475 8.5 1.9375 C12.33186698 -0.21696336 14.99866785 -0.68549399 19.4375 -0.0625 C26.41239539 2.23080218 30.78513746 6.63759485 34.58203125 12.79296875 C36.80055926 18.35448417 35.91917814 25.10110208 34.4375 30.75 C31.10796476 36.05644679 26.30622424 40.55368551 20.4375 42.9375 C14.72512648 43.73723229 10.40868456 42.9966905 5.4375 39.9375 C5.40011719 40.62457031 5.36273438 41.31164062 5.32421875 42.01953125 C5.25847656 42.92058594 5.19273437 43.82164062 5.125 44.75 C5.06699219 45.64332031 5.00898438 46.53664063 4.94921875 47.45703125 C4.3671563 50.27847902 3.7262344 51.23618896 1.4375 52.9375 C-1.0625 53.3125 -1.0625 53.3125 -3.5625 52.9375 C-5.64617103 51.35053058 -6.46555211 50.45769581 -6.95018005 47.85731506 C-6.95558304 47.05885666 -6.96098602 46.26039825 -6.96655273 45.43774414 C-6.97923691 44.52992691 -6.99192108 43.62210968 -7.00498962 42.68678284 C-7.00205399 41.70862106 -6.99911835 40.73045929 -6.99609375 39.72265625 C-7.0013356 38.71536972 -7.00657745 37.70808319 -7.01197815 36.67027283 C-7.01840334 34.53938723 -7.01705495 32.40846618 -7.00854492 30.27758789 C-7.00004118 27.01579624 -7.02878026 23.75575888 -7.06054688 20.49414062 C-7.0621591 18.42447969 -7.06158096 16.35481565 -7.05859375 14.28515625 C-7.06982773 13.30901871 -7.08106171 12.33288116 -7.09263611 11.3271637 C-7.02326156 4.59031069 -7.02326156 4.59031069 -4.69165039 1.28686523 C-2.5625 -0.0625 -2.5625 -0.0625 0 0 Z " fill="#8F38FF" transform="translate(168.5625,290.0625)"/>
<path d="M0 0 C2.475 0.495 2.475 0.495 5 1 C6.08128816 4.99913612 5.8481629 7.54919218 4.671875 11.5 C4.36773682 12.54679932 4.06359863 13.59359863 3.75024414 14.67211914 C3.42016357 15.77031982 3.09008301 16.86852051 2.75 18 C2.09545679 20.24805869 1.44309099 22.49675257 0.79296875 24.74609375 C0.48020996 25.82358887 0.16745117 26.90108398 -0.15478516 28.01123047 C-1.64874967 33.29404779 -2.87818167 38.62595599 -4 44 C-3.18917969 43.98839844 -2.37835938 43.97679687 -1.54296875 43.96484375 C4.02277533 43.91948844 9.56979306 43.94066553 15.125 44.3125 C15.99382812 44.37050781 16.86265625 44.42851562 17.7578125 44.48828125 C20.43246974 45.09869954 21.4823273 45.71302425 23 48 C22.67 49.32 22.34 50.64 22 52 C12.76 52 3.52 52 -6 52 C-10.65613179 71.45597927 -14.32775653 90.99677321 -14.4375 111.0625 C-14.44749023 112.11373047 -14.45748047 113.16496094 -14.46777344 114.24804688 C-14.36938606 122.99046807 -13.0686623 132.3089108 -7 139 C-4.42807351 140.40100149 -1.85154467 141.60887907 0.85546875 142.7265625 C3 144 3 144 3.859375 146.03515625 C4 148 4 148 3.0625 149.8125 C0.34542675 151.37687551 -1.77771183 151.15887845 -4.8125 150.62890625 C-10.27023745 149.05980673 -14.53158281 146.14632884 -17.8125 141.5 C-31.53027985 116.19625745 -21.36862956 78.16301875 -15 52 C-25.89 52.495 -25.89 52.495 -37 53 C-37 51.35 -37 49.7 -37 48 C-31.88656566 44.97992955 -27.4111085 44.31543926 -21.625 43.8125 C-20.79355469 43.73064453 -19.96210938 43.64878906 -19.10546875 43.56445312 C-17.07131913 43.36571437 -15.03577051 43.18138416 -13 43 C-12.71278076 41.87505127 -12.42556152 40.75010254 -12.12963867 39.59106445 C-11.05861263 35.40504168 -9.977049 31.22180115 -8.89233398 27.03930664 C-8.42494944 25.23112584 -7.96039915 23.42220991 -7.4987793 21.61254883 C-6.83351312 19.00662459 -6.15798991 16.40354248 -5.48046875 13.80078125 C-5.27721481 12.99538406 -5.07396088 12.18998688 -4.86454773 11.36018372 C-3.75081093 7.12529172 -2.52043526 3.65415073 0 0 Z " fill="#B1FAFB" transform="translate(249,91)"/>
<path d="M0 0 C0.33 -0.33 0.66 -0.66 1 -1 C3.375 -1.3125 3.375 -1.3125 6 -1 C8.57956224 1.43241116 8.98971594 2.90822604 9.38818359 6.46411133 C9.40791429 7.83661374 9.41032637 9.20943851 9.3984375 10.58203125 C9.40130768 11.31443527 9.40417786 12.04683929 9.40713501 12.80143738 C9.40917272 14.34883396 9.40366325 15.89625648 9.39111328 17.44360352 C9.37512325 19.79437993 9.3909345 22.14341911 9.41015625 24.49414062 C9.40817241 26.00260792 9.40432583 27.51107414 9.3984375 29.01953125 C9.40754654 30.06207817 9.40754654 30.06207817 9.4168396 31.12568665 C9.3387536 36.63557284 8.19271236 41.4447592 4.53515625 45.70703125 C-2.32055958 50.85336436 -7.38877288 52.21481731 -16 51 C-19.61727528 49.57439782 -22.40975853 47.92118141 -25 45 C-25.6875 41.25 -25.6875 41.25 -25 38 C-24.34 37.34 -23.68 36.68 -23 36 C-17.54545455 36.45454545 -17.54545455 36.45454545 -15 39 C-12.10116917 39.24339551 -12.10116917 39.24339551 -8.875 39.125 C-7.23144531 39.09792969 -7.23144531 39.09792969 -5.5546875 39.0703125 C-4.71164062 39.04710937 -3.86859375 39.02390625 -3 39 C-2.67 37.35 -2.34 35.7 -2 34 C-2.99 34.495 -2.99 34.495 -4 35 C-9.50158755 35.50239048 -14.38795569 35.76205731 -19.4375 33.375 C-24.5985006 28.59163359 -28.0770556 24.61213792 -28.375 17.3125 C-28.29342544 11.71648552 -26.75862224 8.12442489 -23 4 C-16.09160453 -2.29567747 -8.72371046 -1.9698701 0 0 Z " fill="#903AFF" transform="translate(286,292)"/>
<path d="M0 0 C5.00543255 2.94774995 8.88397495 7.44440203 10.60839844 13.03686523 C11.48108759 17.38707358 11.27022138 21.844105 11.29296875 26.265625 C11.31359375 27.27173828 11.33421875 28.27785156 11.35546875 29.31445312 C11.36320313 30.76174805 11.36320313 30.76174805 11.37109375 32.23828125 C11.3851123 33.55904663 11.3851123 33.55904663 11.39941406 34.90649414 C10.96949489 37.67652813 10.26600055 38.54516367 8.04296875 40.203125 C5.60546875 40.640625 5.60546875 40.640625 3.04296875 40.203125 C0.73046875 38.203125 0.73046875 38.203125 -0.95703125 36.203125 C-1.76140625 36.863125 -2.56578125 37.523125 -3.39453125 38.203125 C-7.45541352 40.86897478 -11.23848937 41.13083832 -15.95703125 40.203125 C-18.94404674 38.89697486 -21.40260677 37.2153631 -23.95703125 35.203125 C-24.88515625 34.48125 -25.81328125 33.759375 -26.76953125 33.015625 C-31.07111469 27.48501772 -32.46263538 21.58477077 -31.64453125 14.640625 C-30.07231072 7.79855416 -25.91326601 2.88924535 -20.15625 -1.01953125 C-13.12050945 -4.49696623 -6.69647046 -3.27331775 0 0 Z " fill="#8F38FF" transform="translate(740.95703125,292.796875)"/>
<path d="M0 0 C3.74386866 3.54432236 6.74557742 7.49761261 7.2746582 12.70141602 C7.3027917 15.988828 7.32175028 19.2749505 7.3125 22.5625 C7.32861328 23.71169922 7.34472656 24.86089844 7.36132812 26.04492188 C7.36197266 27.14513672 7.36261719 28.24535156 7.36328125 29.37890625 C7.36626221 30.3851001 7.36924316 31.39129395 7.37231445 32.42797852 C7 35 7 35 5.66870117 36.85913086 C4 38 4 38 0.9375 37.875 C-2 37 -2 37 -4 34 C-4.99 34.66 -5.98 35.32 -7 36 C-10.96216656 38.23220651 -14.51750837 38.83136078 -19 38 C-25.20879553 36.02394267 -29.41312587 32.3803112 -33 27 C-35.64770842 21.46388239 -35.97265376 15.52951006 -34.34765625 9.6328125 C-32.14836179 4.02602748 -29.11764917 0.20258806 -24 -3 C-15.77215566 -6.50445222 -7.26768823 -5.03025582 0 0 Z " fill="#8F38FF" transform="translate(590,295)"/>
<path d="M0 0 C3.71125378 0.98058194 3.71125378 0.98058194 5.9375 -0.375 C11.21731804 -0.97497932 13.7688401 0.44887817 17.9375 3.625 C18.515 3.33625 19.0925 3.0475 19.6875 2.75 C20.80125 2.193125 20.80125 2.193125 21.9375 1.625 C22.55367187 1.26921875 23.16984375 0.9134375 23.8046875 0.546875 C27.53403588 -1.06507778 31.07251536 -0.2958746 34.9375 0.625 C39.80709762 3.10573841 42.26166579 5.90244401 44.9375 10.625 C45.42333984 13.93652344 45.42333984 13.93652344 45.3984375 17.484375 C45.39457031 18.76441406 45.39070312 20.04445313 45.38671875 21.36328125 C45.36810791 22.35062256 45.36810791 22.35062256 45.34912109 23.35791016 C45.31234306 25.38364407 45.30810401 27.40755899 45.30859375 29.43359375 C45.21840721 39.34409279 45.21840721 39.34409279 42.9375 41.625 C39.9375 41.875 39.9375 41.875 36.9375 41.625 C34.26089676 38.94839676 34.6459619 37.51675673 34.55859375 33.77734375 C34.52443359 32.61525391 34.49027344 31.45316406 34.45507812 30.25585938 C34.42865234 29.03705078 34.40222656 27.81824219 34.375 26.5625 C34.31534794 24.15484152 34.25176646 21.74727604 34.18359375 19.33984375 C34.15966553 18.26855225 34.1357373 17.19726074 34.11108398 16.09350586 C34.21260096 13.68151292 34.21260096 13.68151292 32.9375 12.625 C30.60452567 12.58407063 28.27044775 12.58258277 25.9375 12.625 C25.91768066 13.39690674 25.89786133 14.16881348 25.87744141 14.96411133 C25.78228857 18.45558958 25.67256953 21.94646152 25.5625 25.4375 C25.51609375 27.25991211 25.51609375 27.25991211 25.46875 29.11914062 C25.43007813 30.28251953 25.39140625 31.44589844 25.3515625 32.64453125 C25.3201416 33.71807861 25.2887207 34.79162598 25.25634766 35.89770508 C24.9375 38.625 24.9375 38.625 22.9375 41.625 C19.4375 41.9375 19.4375 41.9375 15.9375 41.625 C13.26089676 38.94839676 13.6459619 37.51675673 13.55859375 33.77734375 C13.50735352 32.03420898 13.50735352 32.03420898 13.45507812 30.25585938 C13.42865234 29.03705078 13.40222656 27.81824219 13.375 26.5625 C13.31534794 24.15484152 13.25176646 21.74727604 13.18359375 19.33984375 C13.15966553 18.26855225 13.1357373 17.19726074 13.11108398 16.09350586 C13.21260096 13.68151292 13.21260096 13.68151292 11.9375 12.625 C9.60452567 12.58407063 7.27044775 12.58258277 4.9375 12.625 C4.91768066 13.39690674 4.89786133 14.16881348 4.87744141 14.96411133 C4.78228857 18.45558958 4.67256953 21.94646152 4.5625 25.4375 C4.51609375 27.25991211 4.51609375 27.25991211 4.46875 29.11914062 C4.41074219 30.86420898 4.41074219 30.86420898 4.3515625 32.64453125 C4.3201416 33.71807861 4.2887207 34.79162598 4.25634766 35.89770508 C3.9375 38.625 3.9375 38.625 1.9375 41.625 C-1.5625 41.9375 -1.5625 41.9375 -5.0625 41.625 C-7.62822747 39.05927253 -7.32040742 37.33355529 -7.36604309 33.8341217 C-7.36513168 33.0445256 -7.36422028 32.2549295 -7.36328125 31.44140625 C-7.36756638 30.6300975 -7.3718515 29.81878876 -7.37626648 28.9828949 C-7.382014 27.26554295 -7.38250694 25.54816665 -7.37817383 23.83081055 C-7.3750165 21.2012378 -7.39845748 18.57279269 -7.42382812 15.94335938 C-7.42610132 14.27604309 -7.42680452 12.60872377 -7.42578125 10.94140625 C-7.434991 10.15383438 -7.44420074 9.36626251 -7.45368958 8.55482483 C-7.40759555 3.12247462 -7.40759555 3.12247462 -5.66308594 0.60766602 C-3.52744764 -0.70349081 -2.43076787 -0.48161008 0 0 Z " fill="#8F38FF" transform="translate(662.0625,290.375)"/>
<path d="M0 0 C4.25790466 3.70910806 7.43112909 8.21621674 7.99609375 13.94921875 C8.19609714 21.41250311 7.28927036 26.6919653 2.14453125 32.28515625 C-2.97666672 36.9975668 -8.00526877 39.07038025 -15.09765625 38.83984375 C-21.91023816 37.85952686 -26.76646988 34.67094884 -31.05078125 29.41015625 C-34.68740764 23.67501758 -34.97713018 18.15503719 -34.2421875 11.53125 C-32.46949183 5.33212263 -28.60248761 0.99500325 -23.2421875 -2.46875 C-15.29127671 -5.91914525 -7.05356827 -4.91179653 0 0 Z " fill="#8F38FF" transform="translate(472.2421875,294.46875)"/>
<path d="M0 0 C5.30617672 2.96678017 9.94320464 7.70461393 11.875 13.5 C12.83339706 27.30460385 12.83339706 27.30460385 8.875 32.5 C3.96118905 37.40337823 -0.52922692 41.73757632 -7.75 41.9375 C-14.76125898 41.79229641 -20.5702665 38.98922751 -25.5625 34.125 C-29.24462133 27.93903616 -31.23760797 22.68250258 -30.125 15.5 C-27.83481601 8.64176086 -23.65952561 3.76618819 -17.375 0.1875 C-11.51330705 -2.51196386 -5.92937204 -2.56405278 0 0 Z " fill="#8E38FF" transform="translate(411.125,291.5)"/>
<path d="M0 0 C1.89294235 -0.16302853 3.78998395 -0.27886529 5.6875 -0.375 C7.27111328 -0.47941406 7.27111328 -0.47941406 8.88671875 -0.5859375 C12.35641929 0.06708017 13.70912557 1.07095992 15.86906433 3.82800293 C18.42260139 8.73215014 18.49004422 14.48209118 19.01953125 19.90234375 C19.16756514 21.26724645 19.31739115 22.63195586 19.46891785 23.99647522 C19.86124639 27.57741939 20.22722509 31.16059681 20.58825684 34.74481201 C20.88633696 37.65949046 21.20314947 40.57198599 21.52100086 43.48456478 C22.17946403 49.52394636 22.82311592 55.56503454 23.43676758 61.60913086 C23.5460408 62.67691269 23.65531403 63.74469452 23.76789856 64.84483337 C24.45132339 74.1352506 24.45132339 74.1352506 22.9765625 76.9609375 C18.21869647 81.93882046 18.21869647 81.93882046 15.0546875 82.09765625 C13.03645833 82.06510417 11.01822917 82.03255208 9 82 C6.62246098 66.4707983 4.82519964 50.90811948 3.21020508 35.2824707 C2.80694266 31.38377223 2.39705767 27.48580886 1.98632812 23.58789062 C1.72618154 21.09899812 1.46640185 18.61006724 1.20703125 16.12109375 C1.08519974 14.96081161 0.96336823 13.80052948 0.83784485 12.60508728 C0.72740341 11.53198807 0.61696198 10.45888885 0.50317383 9.35327148 C0.40563309 8.41289536 0.30809235 7.47251923 0.20759583 6.50364685 C0.02836424 4.34207842 0 2.16898641 0 0 Z " fill="#B2FDF0" transform="translate(831,144)"/>
<path d="M0 0 C4.41667385 4.20217755 7.76911563 8.3679182 8.3125 14.5625 C8 18 8 18 6.85424805 19.6965332 C4.20224929 21.56078881 2.23744127 21.34006012 -0.98046875 21.29296875 C-2.14384766 21.28330078 -3.30722656 21.27363281 -4.50585938 21.26367188 C-6.32827148 21.2259668 -6.32827148 21.2259668 -8.1875 21.1875 C-9.41404297 21.17396484 -10.64058594 21.16042969 -11.90429688 21.14648438 C-14.93663664 21.11108741 -17.96809996 21.0617076 -21 21 C-19.64004675 24.03018104 -19.64004675 24.03018104 -17.25 26.25 C-14.19296809 27.26901064 -12.21954136 27.44189783 -9 27 C-7.19324298 25.85219953 -7.19324298 25.85219953 -5.4375 24.4375 C-2.31639518 22 -2.31639518 22 0.8125 22 C3 23 3 23 5 26 C5.5625 28.3125 5.5625 28.3125 5 31 C1.11129221 35.43487461 -3.3272463 38.59191626 -9.25 39.25 C-15.37199006 39.54863366 -20.0147797 38.65868099 -25 35 C-29.45635718 30.82092726 -32.53975523 26.58027615 -33.3359375 20.38671875 C-33.44269162 13.01000896 -32.4309041 7.81305926 -27.421875 2.24609375 C-19.40806845 -5.2442885 -9.01705817 -6.27353134 0 0 Z " fill="#913CFF" transform="translate(817,294)"/>
<path d="M0 0 C3.71125378 0.98058194 3.71125378 0.98058194 5.9375 -0.375 C10.0314524 -0.76864927 12.3828216 -0.66343277 16.0625 1.25 C19.67785815 4.23660021 22.81402656 7.37805311 24.9375 11.625 C25.23619012 16.26520244 25.21556534 20.91382076 25.25 25.5625 C25.27900391 26.86380859 25.30800781 28.16511719 25.33789062 29.50585938 C25.34626953 30.75044922 25.35464844 31.99503906 25.36328125 33.27734375 C25.37786377 34.42195068 25.39244629 35.56655762 25.4074707 36.74584961 C24.9375 39.625 24.9375 39.625 23.07495117 41.53344727 C20.9375 42.625 20.9375 42.625 18.3125 42.4375 C15.9375 41.625 15.9375 41.625 13.9375 39.625 C13.63452148 37.02709961 13.63452148 37.02709961 13.55859375 33.77734375 C13.50735352 32.03420898 13.50735352 32.03420898 13.45507812 30.25585938 C13.42865234 29.03705078 13.40222656 27.81824219 13.375 26.5625 C13.31534794 24.15484152 13.25176646 21.74727604 13.18359375 19.33984375 C13.15966553 18.26855225 13.1357373 17.19726074 13.11108398 16.09350586 C13.21260096 13.68151292 13.21260096 13.68151292 11.9375 12.625 C8.9375 12.45833333 8.9375 12.45833333 5.9375 12.625 C4.17204066 14.39045934 4.74490665 16.94457502 4.69140625 19.33984375 C4.65853516 20.50064453 4.62566406 21.66144531 4.59179688 22.85742188 C4.530698 25.32347632 4.47339385 27.78962776 4.41992188 30.25585938 C4.38576172 31.41794922 4.35160156 32.58003906 4.31640625 33.77734375 C4.2913501 34.84976318 4.26629395 35.92218262 4.24047852 37.02709961 C3.9375 39.625 3.9375 39.625 1.9375 41.625 C-1.5625 41.875 -1.5625 41.875 -5.0625 41.625 C-7.62822747 39.05927253 -7.32040742 37.33355529 -7.36604309 33.8341217 C-7.36513168 33.0445256 -7.36422028 32.2549295 -7.36328125 31.44140625 C-7.36756638 30.6300975 -7.3718515 29.81878876 -7.37626648 28.9828949 C-7.382014 27.26554295 -7.38250694 25.54816665 -7.37817383 23.83081055 C-7.3750165 21.2012378 -7.39845748 18.57279269 -7.42382812 15.94335938 C-7.42610132 14.27604309 -7.42680452 12.60872377 -7.42578125 10.94140625 C-7.434991 10.15383438 -7.44420074 9.36626251 -7.45368958 8.55482483 C-7.40759555 3.12247462 -7.40759555 3.12247462 -5.66308594 0.60766602 C-3.52744764 -0.70349081 -2.43076787 -0.48161008 0 0 Z " fill="#8F39FF" transform="translate(131.0625,290.375)"/>
<path d="M0 0 C1.30841635 0.56698042 2.59956434 1.17478217 3.875 1.8125 C4.431875 1.4825 4.98875 1.1525 5.5625 0.8125 C9.44248992 -0.86533348 12.87714828 0.04345248 16.7421875 1.53125 C21.39493195 3.84763779 24.18377152 6.80122342 25.875 11.8125 C26.40344078 16.59394741 26.34282317 21.32017975 26.25 26.125 C26.24871094 27.41212891 26.24742187 28.69925781 26.24609375 30.02539062 C26.15608404 39.53141596 26.15608404 39.53141596 23.875 41.8125 C20.375 42.0625 20.375 42.0625 16.875 41.8125 C14.19839676 39.13589676 14.5834619 37.70425673 14.49609375 33.96484375 C14.44485352 32.22170898 14.44485352 32.22170898 14.39257812 30.44335938 C14.36615234 29.22455078 14.33972656 28.00574219 14.3125 26.75 C14.25284794 24.34234152 14.18926646 21.93477604 14.12109375 19.52734375 C14.09716553 18.45605225 14.0732373 17.38476074 14.04858398 16.28100586 C14.15010096 13.86901292 14.15010096 13.86901292 12.875 12.8125 C9.875 12.64583333 9.875 12.64583333 6.875 12.8125 C5.10954066 14.57795934 5.68240665 17.13207502 5.62890625 19.52734375 C5.59603516 20.68814453 5.56316406 21.84894531 5.52929688 23.04492188 C5.468198 25.51097632 5.41089385 27.97712776 5.35742188 30.44335938 C5.32326172 31.60544922 5.28910156 32.76753906 5.25390625 33.96484375 C5.2288501 35.03726318 5.20379395 36.10968262 5.17797852 37.21459961 C4.875 39.8125 4.875 39.8125 2.875 41.8125 C-0.625 42.125 -0.625 42.125 -4.125 41.8125 C-6.58263886 38.12604171 -6.44805499 35.27300134 -6.4609375 31.00390625 C-6.4675943 30.24077621 -6.4742511 29.47764618 -6.48110962 28.69139099 C-6.49122807 27.07838347 -6.49592689 25.46533415 -6.49560547 23.85229492 C-6.49997844 21.38715534 -6.53630219 18.92380713 -6.57421875 16.45898438 C-6.58008722 14.89063111 -6.58405641 13.32226936 -6.5859375 11.75390625 C-6.60030853 11.01838028 -6.61467957 10.28285431 -6.62948608 9.52503967 C-6.59822297 6.01556331 -6.37286419 4.14037906 -4.22900391 1.30444336 C-2.125 -0.1875 -2.125 -0.1875 0 0 Z " fill="#8F39FF" transform="translate(605.125,290.1875)"/>
<path d="M0 0 C3.5 -0.3125 3.5 -0.3125 7 0 C9.67478917 2.67478917 9.27825216 4.07686481 9.34375 7.8125 C9.37339844 8.97007812 9.40304688 10.12765625 9.43359375 11.3203125 C9.47786458 13.7734375 9.52213542 16.2265625 9.56640625 18.6796875 C9.59605469 19.83726562 9.62570313 20.99484375 9.65625 22.1875 C9.67494141 23.25355469 9.69363281 24.31960938 9.71289062 25.41796875 C9.74592609 28.16234623 9.74592609 28.16234623 12 30 C15.08347826 30.16681109 15.08347826 30.16681109 18 30 C18.01981934 29.16227051 18.03963867 28.32454102 18.06005859 27.46142578 C18.13810612 24.35634166 18.22479635 21.25165461 18.31738281 18.14697266 C18.37454036 16.14113029 18.42168596 14.13501082 18.46875 12.12890625 C18.50742188 10.87207031 18.54609375 9.61523438 18.5859375 8.3203125 C18.6173584 7.15773926 18.6487793 5.99516602 18.68115234 4.79736328 C19 2 19 2 21 0 C24.5 -0.25 24.5 -0.25 28 0 C30.56572747 2.56572747 30.25790742 4.29144471 30.30354309 7.7908783 C30.30263168 8.5804744 30.30172028 9.3700705 30.30078125 10.18359375 C30.30506638 10.9949025 30.3093515 11.80621124 30.31376648 12.6421051 C30.319514 14.35945705 30.32000694 16.07683335 30.31567383 17.79418945 C30.3125165 20.4237622 30.33595748 23.05220731 30.36132812 25.68164062 C30.36360132 27.34895691 30.36430452 29.01627623 30.36328125 30.68359375 C30.372491 31.47116562 30.38170074 32.25873749 30.39118958 33.07017517 C30.34509555 38.50252538 30.34509555 38.50252538 28.60058594 41.01733398 C26.46494764 42.32849081 25.36826787 42.10661008 22.9375 41.625 C19.22624622 40.64441806 19.22624622 40.64441806 17 42 C11.5552723 42.65336732 8.42132716 41.5155482 3.89453125 38.77734375 C-1.07075992 34.11918399 -2.24066373 30.18115671 -2.4609375 23.515625 C-2.45301373 21.09359356 -2.42379057 18.67155293 -2.375 16.25 C-2.37371094 15.01894531 -2.37242188 13.78789062 -2.37109375 12.51953125 C-2.28141502 3.42212253 -2.28141502 3.42212253 0 0 Z " fill="#8F39FF" transform="translate(87,291)"/>
<path d="M0 0 C1.7325 0.1546875 1.7325 0.1546875 3.5 0.3125 C5.79271793 3.75157689 5.78360653 5.19884105 5.87890625 9.2578125 C5.93014648 10.99611328 5.93014648 10.99611328 5.98242188 12.76953125 C6.00884766 13.97996094 6.03527344 15.19039063 6.0625 16.4375 C6.12214634 18.83604445 6.18572667 21.23449545 6.25390625 23.6328125 C6.27783447 24.69773926 6.3017627 25.76266602 6.32641602 26.85986328 C6.22687105 29.25784513 6.22687105 29.25784513 7.5 30.3125 C9.95809998 30.5625773 9.95809998 30.5625773 12.5 30.3125 C15.17478917 27.63771083 14.77825216 26.23563519 14.84375 22.5 C14.88822266 20.76363281 14.88822266 20.76363281 14.93359375 18.9921875 C14.95550781 17.77789062 14.97742188 16.56359375 15 15.3125 C15.04324008 12.91649075 15.09489241 10.52061376 15.15625 8.125 C15.17494141 7.05894531 15.19363281 5.99289062 15.21289062 4.89453125 C15.5 2.3125 15.5 2.3125 17.5 0.3125 C21 0 21 0 24.5 0.3125 C26.95763886 3.99895829 26.82305499 6.85199866 26.8359375 11.12109375 C26.8425943 11.88422379 26.8492511 12.64735382 26.85610962 13.43360901 C26.86622807 15.04661653 26.87092689 16.65966585 26.87060547 18.27270508 C26.87497844 20.73784466 26.91130219 23.20119287 26.94921875 25.66601562 C26.95508722 27.23436889 26.95905641 28.80273064 26.9609375 30.37109375 C26.97530853 31.10661972 26.98967957 31.84214569 27.00448608 32.59996033 C26.97322297 36.10943669 26.74786419 37.98462094 24.60400391 40.82055664 C22.5 42.3125 22.5 42.3125 20.375 42.125 C19.06658365 41.55801958 17.77543566 40.95021783 16.5 40.3125 C15.88769531 40.621875 15.27539062 40.93125 14.64453125 41.25 C10.92259398 43.09401992 7.40084393 42.44860438 3.5 41.3125 C-0.64293987 38.772018 -3.67746494 35.85134553 -5.5 31.3125 C-5.75878906 28.22802734 -5.75878906 28.22802734 -5.765625 24.6484375 C-5.76820313 23.36195313 -5.77078125 22.07546875 -5.7734375 20.75 C-5.76924805 20.08355469 -5.76505859 19.41710937 -5.76074219 18.73046875 C-5.74999843 16.68720048 -5.76067338 14.64480422 -5.7734375 12.6015625 C-5.77085937 11.31765625 -5.76828125 10.03375 -5.765625 8.7109375 C-5.76336914 7.53192871 -5.76111328 6.35291992 -5.75878906 5.13818359 C-5.36061566 0.79058078 -4.27677072 0.38185453 0 0 Z " fill="#8F39FF" transform="translate(229.5,290.6875)"/>
<path d="M0 0 C2.5 1.875 2.5 1.875 4 4 C4.4375 7.125 4.4375 7.125 4 10 C0.7243083 12.18379446 -0.20070529 12.54275639 -4 12 C-4.7425 11.319375 -5.485 10.63875 -6.25 9.9375 C-9.77640226 7.45298932 -11.75431602 7.63312236 -15.90625 8.33203125 C-18.24662829 8.93481903 -18.24662829 8.93481903 -20.5625 11.125 C-22.38719803 14.77439606 -22.57650862 16.96443968 -22 21 C-20.20437595 23.75329021 -18.94745078 25.52627461 -16 27 C-10.81633518 27.52554571 -10.81633518 27.52554571 -6.5 24.9375 C-4 23 -4 23 -0.1875 23.25 C0.864375 23.4975 1.91625 23.745 3 24 C3.9375 27.125 3.9375 27.125 4 31 C1.06361353 34.85999765 -3.28912383 37.87836282 -8 39 C-14.74484974 39.84641252 -20.23166417 38.62484917 -26 35 C-30.61897182 31.01297706 -33.38068445 25.67254123 -34.390625 19.68359375 C-34.88752736 12.46721628 -32.33767441 7.63897673 -28 2 C-20.07558481 -6.12760532 -8.99902575 -5.77371121 0 0 Z " fill="#8F39FF" transform="translate(375,294)"/>
<path d="M0 0 C1.670625 0.4021875 1.670625 0.4021875 3.375 0.8125 C4.75726016 3.57702033 4.47025387 5.8586363 4.4375 8.9375 C4.42847656 10.03320312 4.41945313 11.12890625 4.41015625 12.2578125 C4.39855469 13.10085938 4.38695312 13.94390625 4.375 14.8125 C5.468125 14.750625 6.56125 14.68875 7.6875 14.625 C11.375 14.8125 11.375 14.8125 13.3125 15.9375 C14.85638276 18.66199899 14.7017107 20.74141945 14.375 23.8125 C12.375 25.8125 12.375 25.8125 10.4296875 26.0078125 C8.41145833 25.94270833 6.39322917 25.87760417 4.375 25.8125 C4.4080288 27.91733555 4.47744546 30.0216243 4.5625 32.125 C4.61470703 33.88263672 4.61470703 33.88263672 4.66796875 35.67578125 C5.06071052 38.97942556 5.06071052 38.97942556 7.78125 40.65625 C9.06515625 41.22859375 9.06515625 41.22859375 10.375 41.8125 C11.5196875 42.4003125 11.5196875 42.4003125 12.6875 43 C13.244375 43.268125 13.80125 43.53625 14.375 43.8125 C14.74140339 49.30855086 14.74140339 49.30855086 13.13671875 51.515625 C10.8618307 53.19026543 9.77427765 53.08613262 7 52.75 C1.21057328 51.85859718 -1.30884489 49.44880095 -4.9375 44.9375 C-7.9262434 39.47614157 -6.92528595 32.82656027 -6.625 26.8125 C-8.03652344 26.84730469 -8.03652344 26.84730469 -9.4765625 26.8828125 C-12.625 26.8125 -12.625 26.8125 -15 25.6875 C-16.625 23.8125 -16.625 23.8125 -17.0625 20.8125 C-16.625 17.8125 -16.625 17.8125 -15.5625 15.9375 C-12.62272876 14.23053605 -9.94629197 14.62450234 -6.625 14.8125 C-6.65980469 13.98105469 -6.69460938 13.14960938 -6.73046875 12.29296875 C-6.75753906 11.20628906 -6.78460937 10.11960937 -6.8125 9 C-6.86470703 7.38158203 -6.86470703 7.38158203 -6.91796875 5.73046875 C-6.625 2.8125 -6.625 2.8125 -5.33984375 0.9140625 C-3.625 -0.1875 -3.625 -0.1875 0 0 Z " fill="#903BFF" transform="translate(768.625,280.1875)"/>
<path d="M0 0 C3.61777699 2.87476167 5.90280863 5.51178483 6.62109375 10.10546875 C6.73500389 16.5983468 5.07085324 19.96498634 0.59765625 24.76953125 C-3.58516963 26.91746887 -8.14362897 27.71533873 -12.71484375 26.3671875 C-17.30649681 24.06146517 -19.99891752 20.77990083 -21.71484375 15.95703125 C-22.57228334 9.95495414 -21.1180915 6.73997404 -17.71484375 1.95703125 C-12.38513594 -2.04024961 -6.11530889 -3.71933365 0 0 Z " fill="#1A1B1E" transform="translate(120.71484375,90.04296875)"/>
<path d="M0 0 C1.8125 1.125 1.8125 1.125 3 3 C3.3125 6.0625 3.3125 6.0625 3 9 C0.52712828 11.47287172 -1.55829453 11.5997244 -4.9296875 12.14453125 C-8.21272276 13.5011062 -9.22975354 14.89430445 -11 18 C-11.57387534 21.72645841 -11.60555318 25.42211038 -11.625 29.1875 C-11.65044499 31.18111465 -11.68389611 33.1746483 -11.7265625 35.16796875 C-11.73252441 36.04735107 -11.73848633 36.9267334 -11.74462891 37.83276367 C-12 40 -12 40 -14 42 C-17.5 42.3125 -17.5 42.3125 -21 42 C-23.50822042 38.23766937 -23.28865784 35.25861633 -23.265625 30.90234375 C-23.26753845 30.11227432 -23.2694519 29.3222049 -23.27142334 28.50819397 C-23.27278333 26.83968792 -23.26909988 25.17117122 -23.26074219 23.50268555 C-23.25002558 20.9436072 -23.26065082 18.38522858 -23.2734375 15.82617188 C-23.27211615 14.20572761 -23.26955427 12.58528379 -23.265625 10.96484375 C-23.26967346 10.19712143 -23.27372192 9.42939911 -23.27789307 8.63841248 C-23.22993107 3.22993107 -23.22993107 3.22993107 -21 1 C-18.14752988 0.81396934 -15.74184144 0.76817455 -13 1.625 C-8.56973767 2.45567419 -4.70218069 -0.63542982 0 0 Z " fill="#8E37FF" transform="translate(505,290)"/>
<path d="M0 0 C3.375 0.75 3.375 0.75 4.375 1.75 C4.47850194 3.24321297 4.51350739 4.74125657 4.52026367 6.23803711 C4.52664352 7.19250229 4.53302338 8.14696747 4.53959656 9.13035583 C4.54070938 10.16886185 4.5418222 11.20736786 4.54296875 12.27734375 C4.54629715 13.33659561 4.54962555 14.39584747 4.55305481 15.48719788 C4.55812869 17.73259038 4.56046299 19.97799045 4.56030273 22.22338867 C4.56248841 25.66923378 4.58063721 29.11475852 4.59960938 32.56054688 C4.60254329 34.73697807 4.6045281 36.91341079 4.60546875 39.08984375 C4.61265427 40.12632553 4.61983978 41.16280731 4.62724304 42.23069763 C4.62416641 43.18831497 4.62108978 44.14593231 4.61791992 45.13256836 C4.61934494 45.97782578 4.62076996 46.82308319 4.62223816 47.69395447 C4.375 49.75 4.375 49.75 2.375 51.75 C-1.125 52.0625 -1.125 52.0625 -4.625 51.75 C-6.72611 48.59833501 -6.87896555 47.83394762 -6.8996582 44.234375 C-6.90919022 43.32333008 -6.91872223 42.41228516 -6.92854309 41.47363281 C-6.92763168 40.49233398 -6.92672028 39.51103516 -6.92578125 38.5 C-6.93006638 37.4903418 -6.9343515 36.48068359 -6.93876648 35.44042969 C-6.9445105 33.30534617 -6.94500952 31.17024309 -6.94067383 29.03515625 C-6.93751225 25.7626828 -6.96097815 22.49111174 -6.98632812 19.21875 C-6.98860088 17.14583448 -6.98930472 15.07291652 -6.98828125 13 C-6.997491 12.01870117 -7.00670074 11.03740234 -7.01618958 10.02636719 C-7.00996078 9.11532227 -7.00373199 8.20427734 -6.99731445 7.265625 C-6.99794388 6.46415039 -6.9985733 5.66267578 -6.9992218 4.83691406 C-6.20373133 0.40072078 -4.29291698 -0.29606324 0 0 Z " fill="#903BFF" transform="translate(431.625,280.25)"/>
<path d="M0 0 C3.375 0.75 3.375 0.75 4.375 1.75 C4.47850194 3.24321297 4.51350739 4.74125657 4.52026367 6.23803711 C4.52664352 7.19250229 4.53302338 8.14696747 4.53959656 9.13035583 C4.54070938 10.16886185 4.5418222 11.20736786 4.54296875 12.27734375 C4.54629715 13.33659561 4.54962555 14.39584747 4.55305481 15.48719788 C4.55812869 17.73259038 4.56046299 19.97799045 4.56030273 22.22338867 C4.56248841 25.66923378 4.58063721 29.11475852 4.59960938 32.56054688 C4.60254329 34.73697807 4.6045281 36.91341079 4.60546875 39.08984375 C4.61265427 40.12632553 4.61983978 41.16280731 4.62724304 42.23069763 C4.62416641 43.18831497 4.62108978 44.14593231 4.61791992 45.13256836 C4.61934494 45.97782578 4.62076996 46.82308319 4.62223816 47.69395447 C4.375 49.75 4.375 49.75 2.375 51.75 C-1.125 52.0625 -1.125 52.0625 -4.625 51.75 C-6.72611 48.59833501 -6.87896555 47.83394762 -6.8996582 44.234375 C-6.90919022 43.32333008 -6.91872223 42.41228516 -6.92854309 41.47363281 C-6.92763168 40.49233398 -6.92672028 39.51103516 -6.92578125 38.5 C-6.93006638 37.4903418 -6.9343515 36.48068359 -6.93876648 35.44042969 C-6.9445105 33.30534617 -6.94500952 31.17024309 -6.94067383 29.03515625 C-6.93751225 25.7626828 -6.96097815 22.49111174 -6.98632812 19.21875 C-6.98860088 17.14583448 -6.98930472 15.07291652 -6.98828125 13 C-6.997491 12.01870117 -7.00670074 11.03740234 -7.01618958 10.02636719 C-7.00996078 9.11532227 -7.00373199 8.20427734 -6.99731445 7.265625 C-6.99794388 6.46415039 -6.9985733 5.66267578 -6.9992218 4.83691406 C-6.20373133 0.40072078 -4.29291698 -0.29606324 0 0 Z " fill="#8F38FF" transform="translate(212.625,280.25)"/>
<path d="M0 0 C10.29411765 0 10.29411765 0 15 4 C16.86905348 7.73810695 16.27116522 12.19831178 16.3125 16.3125 C16.34150391 17.26318359 16.37050781 18.21386719 16.40039062 19.19335938 C16.4403874 23.59608078 16.44192033 26.25090264 14.16796875 30.10546875 C9.54318839 34.14694348 6.73004741 33 0 33 C0 22.11 0 11.22 0 0 Z " fill="#FDFDFD" transform="translate(503,146)"/>
<path d="M0 0 C3.0625 0.3125 3.0625 0.3125 4.73120117 1.41015625 C6.72597671 4.26056721 6.43419014 6.61531049 6.42578125 10.0625 C6.42627975 10.71702148 6.42677826 11.37154297 6.42729187 12.04589844 C6.42495457 13.42776531 6.41524615 14.80963669 6.39868164 16.19140625 C6.3750829 18.30507524 6.3781232 20.41748268 6.38476562 22.53125 C6.34175898 32.89361153 6.34175898 32.89361153 4.0625 36.3125 C0.5625 36.625 0.5625 36.625 -2.9375 36.3125 C-5.84191659 33.40808341 -5.19617736 31.24492155 -5.203125 27.1875 C-5.20503845 26.4847998 -5.2069519 25.78209961 -5.20892334 25.05810547 C-5.21028475 23.57193646 -5.20659132 22.08575555 -5.19824219 20.59960938 C-5.18754154 18.32134354 -5.19813839 16.04386623 -5.2109375 13.765625 C-5.2096159 12.32291492 -5.20705349 10.88020534 -5.203125 9.4375 C-5.20086914 8.12007813 -5.19861328 6.80265625 -5.19628906 5.4453125 C-4.85234168 1.28160231 -4.16845606 0.44345277 0 0 Z " fill="#913CFF" transform="translate(642.9375,295.6875)"/>
<path d="M0 0 C3.06471302 1.65023009 5.30778907 3.056076 7.375 5.875 C8.23478424 8.79826641 8.37183472 10.96334977 8 14 C5.90741149 17.17496188 4.17308714 18.88460857 1 21 C-3.40728399 21.58209411 -5.49052963 21.29247373 -9.375 19.0625 C-12.39866894 16.19368203 -13.09394423 13.31374699 -13.3125 9.22265625 C-12.76471499 5.32653534 -10.83898983 3.64092077 -8 1 C-5.13391871 -0.43304064 -3.18699217 -0.30644155 0 0 Z " fill="#FAF6FF" transform="translate(186,301)"/>
<path d="M0 0 C3.41701722 1.77422048 5.47190862 3.06383801 7.375 6.4375 C8.05345865 9.21918046 8.42634151 11.15772328 8 14 C5.89178292 17.12597705 4.14927285 18.90048477 1 21 C-3.40728399 21.58209411 -5.49052963 21.29247373 -9.375 19.0625 C-12.39866894 16.19368203 -13.09394423 13.31374699 -13.3125 9.22265625 C-12.76471499 5.32653534 -10.83898983 3.64092077 -8 1 C-5.13391871 -0.43304064 -3.18699217 -0.30644155 0 0 Z " fill="#FAF6FF" transform="translate(405,301)"/>
<path d="M0 0 C3.02182284 2.05741129 4.69011377 3.49949825 5.4453125 7.15625 C5.64857748 11.22154953 5.32172362 13.46749194 3.1875 17 C0.35137661 19.5930271 -1.5759293 19.95288103 -5.375 20.375 C-9.91993735 19.90483407 -11.14368962 18.44437428 -14 15 C-14.33 14.67 -14.66 14.34 -15 14 C-15.4781408 9.29828209 -15.72931068 6.32594144 -12.6875 2.5625 C-8.43281867 -1.49428917 -5.56756452 -1.34389488 0 0 Z " fill="#8F39FF" transform="translate(536,301)"/>
<path d="M0 0 C2.92937654 1.81310142 5.43647949 3.87295899 7 7 C7.04053539 11.19946671 6.67640997 14.87265006 4.5 18.5 C0.80021003 20.71987398 -2.70238049 21.32999578 -7 21 C-10.46074119 19.01191464 -12.8883834 16.89065811 -14 13 C-13.9188061 8.5343354 -13.47785505 6.56362391 -10.5625 3.125 C-6.85098036 0.04715444 -4.8320847 -0.55754823 0 0 Z " fill="#FAF7FF" transform="translate(734,301)"/>
<path d="M0 0 C2.94681403 1.547225 5.06209524 3.28693333 7 6 C7.88739165 9.20134964 7.8275799 11.79017226 7 15 C4.55660889 18.66508667 2.30129886 20.23005206 -1.9375 21.125 C-5.23957287 21.36890311 -6.87311558 20.76489796 -9.4375 18.6875 C-12.36386311 15.61838747 -12.89536745 14.90681546 -13.375 10.75 C-12.88072704 5.80727042 -11.46171699 4.46171699 -8 1 C-5.04206277 -0.47896861 -3.29779776 -0.4355582 0 0 Z " fill="#FCFAFF" transform="translate(579,301)"/>
<path d="M0 0 C2.92937654 1.81310142 5.43647949 3.87295899 7 7 C7.67660495 12.86390959 7.67660495 12.86390959 5.953125 15.7578125 C3.24830146 19.05133293 1.48199038 20.7979104 -2.75 21.375 C-7.2753858 20.8528401 -8.7671103 19.15770622 -12 16 C-13.57455739 12.85088521 -13.34799118 10.47991184 -13 7 C-9.72475752 1.50052568 -6.40578074 -0.73912855 0 0 Z " fill="#FCFBFF" transform="translate(462,301)"/>
<path d="M0 0 C2.92937654 1.81310142 5.43647949 3.87295899 7 7 C7.43023798 10.87214182 7.31669086 12.52496371 5.125 15.8125 C2.22424254 18.79857385 1.43881175 18.95683819 -2.8125 19.375 C-6.2013027 19.31327317 -7.01699814 18.98866791 -10 17 C-12.23495494 13.64756759 -12.67920629 11.87083725 -12.43359375 7.93359375 C-11.75194607 4.89381354 -10.19767713 3.13303956 -8 1 C-5.09704195 -0.45147903 -3.22738221 -0.37239025 0 0 Z " fill="#8F39FF" transform="translate(320,301)"/>
<path d="M0 0 C3.04569423 2.31737605 4.73181298 3.77825913 5.5625 7.5625 C4.7842913 10.93473771 3.87810459 12.0572794 1 14 C-2.52636345 14.63857688 -5.76063399 14.65841319 -9 12.9375 C-10.60856522 9.82090489 -10.42213381 7.43737531 -10 4 C-7.27238925 -0.09141613 -4.79563536 -0.88083098 0 0 Z " fill="#FBF9FF" transform="translate(279,302)"/>
<path d="M0 0 C3.0625 0.1875 3.0625 0.1875 5.0625 2.1875 C5.3125 5.1875 5.3125 5.1875 5.0625 8.1875 C3.0625 10.1875 3.0625 10.1875 0.0625 10.4375 C-2.9375 10.1875 -2.9375 10.1875 -4.9375 8.1875 C-4.24305556 0.27083333 -4.24305556 0.27083333 0 0 Z " fill="#903AFF" transform="translate(642.9375,279.8125)"/>
<path d="M0 0 C0.66 0.53625 1.32 1.0725 2 1.625 C2 2.285 2 2.945 2 3.625 C-3.94 3.625 -9.88 3.625 -16 3.625 C-15 0.625 -15 0.625 -13.4375 -0.5625 C-8.63286837 -2.16404388 -4.52390553 -2.0734567 0 0 Z " fill="#F7F1FF" transform="translate(812,302.375)"/>
</svg>
