<?xml version="1.0" encoding="utf-8"?>
<!-- Generator: Adobe Illustrator 24.0.0, SVG Export Plug-In . SVG Version: 6.00 Build 0)  -->
<svg version="1.1" id="Layer_2" xmlns="http://www.w3.org/2000/svg" xmlns:xlink="http://www.w3.org/1999/xlink" x="0px" y="0px"
	 viewBox="0 0 921.36 379.3" style="enable-background:new 0 0 921.36 379.3;" xml:space="preserve">
<style type="text/css">
	.st0{fill:#ADDFED;}
	.st1{fill:#231F20;}
	.st2{fill:#ABE0F9;}
	.st3{fill:#9753A0;}
</style>
<polygon class="st0" points="830.39,168.73 840.47,262.15 868.97,258.84 860.17,169.51 "/>
<polygon class="st1" points="830.39,168.73 829.09,168.87 839.31,263.6 870.39,259.98 861.35,168.24 828.93,167.39 829.09,168.87 
	830.39,168.73 830.35,170.03 858.98,170.78 867.55,257.69 841.62,260.71 831.68,168.59 830.39,168.73 830.35,170.03 "/>
<path class="st2" d="M178.71,112.49c-0.05,42.6-35.45,65.69-57.63,65.66c-4.18-0.01-7.07-3.68-7.06-8.45
	c0.01-4.04,2.9-6.97,6.76-7.33c18.33-1.08,43.75-19.41,43.79-49.88c0.04-28.64-19.55-48.86-46.55-48.9
	c-14.47-0.02-27.65,4-39.24,11.7c13.15,28.29,18.56,66.12,18.52,102.84c-0.09,67.2-18.46,105.73-46.11,105.69
	c-23.79-0.03-39.83-24.65-39.76-77.9c0.06-46.64,14.92-102.06,48.72-135.07C50.83,57.61,37.66,48.05,21.9,48.03
	c-3.86-0.01-7.07-2.95-7.06-7.35c0.01-4.41,3.55-8.07,7.08-8.07c19.61,0.02,37.28,11.43,48.83,29.44
	c14.16-9.16,29.92-13.91,47.28-13.89C154.03,48.2,178.76,75.77,178.71,112.49z M66.87,84.44c-29.94,30.81-41.26,84.77-41.31,121.49
	c-0.04,31.95,7.96,63.54,25.96,63.56c16.72,0.02,30.58-34.11,31.3-88.09C83.18,146.88,78.73,110.16,66.87,84.44z"/>
<path class="st1" d="M178.71,112.49l-2.61,0c-0.04,20.55-8.52,36.23-19.69,46.91c-5.58,5.33-11.84,9.39-17.99,12.09
	c-6.15,2.71-12.21,4.06-17.3,4.05h-0.06h0.02c-1.31-0.02-2.26-0.51-3.09-1.48c-0.8-0.97-1.38-2.49-1.37-4.35l0,0l-2.37-0.01
	l2.37,0.07l0-0.06l-2.37-0.01l2.37,0.07l0-0.03v-0.04c0.01-1.4,0.48-2.46,1.23-3.26c0.76-0.8,1.83-1.35,3.17-1.48l-0.24-2.59
	l0.15,2.6c9.94-0.61,21.33-5.72,30.43-14.66c9.08-8.93,15.8-21.84,15.81-37.82v0v-0.08c0.01-14.89-5.12-27.78-13.88-36.92
	c-8.76-9.15-21.13-14.49-35.27-14.5l-0.1,0C103,60.96,89.3,65.15,77.33,73.11l-1.86,1.24l0.94,2.03
	c12.85,27.62,18.28,64.96,18.27,101.27l0,0.47v0c-0.03,33.34-4.65,59.47-12.48,76.98c-3.91,8.75-8.6,15.33-13.81,19.65
	c-5.22,4.32-10.88,6.46-17.18,6.47h-0.05h0.02c-5.49-0.01-10.4-1.41-14.82-4.26c-6.61-4.27-12.21-11.98-16.16-23.7
	c-3.95-11.7-6.19-27.31-6.19-46.99l0-0.33v0c0.03-23.04,3.72-48.31,11.57-71.82c7.85-23.52,19.84-45.26,36.36-61.38l1.59-1.55
	l-1.28-1.81C57.45,62.5,51.6,56.55,44.82,52.28c-6.77-4.27-14.51-6.85-22.92-6.85c-1.27-0.01-2.35-0.47-3.14-1.26
	c-0.78-0.8-1.32-1.91-1.32-3.48v0l-2.35-0.01l2.35,0.07l0-0.06l-2.35-0.01l2.35,0.07l0-0.03l0-0.04c0-1.49,0.62-2.92,1.54-3.94
	c0.92-1.03,2.08-1.54,2.93-1.53h0v-2.37l-0.04,2.37l0.04,0v-2.37l-0.04,2.37l0.02,0h0.02c9.3,0.01,18.13,2.71,26.08,7.59
	c7.94,4.88,14.98,11.94,20.56,20.65l1.41,2.2l2.2-1.42c13.74-8.88,28.91-13.47,45.74-13.47h0.11h0
	c17.32,0.03,31.73,6.61,41.93,17.55c10.18,10.94,16.15,26.32,16.15,44.07v0.1v0L178.71,112.49h2.6l0-0.1
	c0-18.91-6.39-35.63-17.55-47.62c-11.15-12-27.08-19.2-45.73-19.21h0h-0.12c-17.79-0.01-34.06,4.91-48.57,14.31l1.42,2.19l2.19-1.41
	c-5.97-9.3-13.54-16.94-22.22-22.28c-8.68-5.33-18.48-8.35-28.8-8.36l0,2.61L21.97,30l-0.05,0c-2.69,0.02-5.06,1.34-6.79,3.24
	c-1.73,1.92-2.88,4.52-2.89,7.43l2.61,0l-2.6-0.07l0,0.09c-0.01,2.83,1.06,5.39,2.85,7.16c1.78,1.78,4.23,2.79,6.82,2.79
	c7.34,0.01,14.07,2.23,20.15,6.05c6.07,3.82,11.46,9.27,15.95,15.66l2.13-1.5l-1.82-1.86c-17.28,16.89-29.61,39.36-37.66,63.46
	c-8.04,24.11-11.81,49.87-11.84,73.47v0l0,0.35c0.01,26.76,4.01,46.52,11.3,59.9c3.65,6.68,8.16,11.77,13.43,15.17
	c5.26,3.41,11.26,5.09,17.64,5.09h0.01h0.01h0.02c7.52,0.01,14.51-2.67,20.51-7.67c9.01-7.51,15.95-20.05,20.74-36.96
	c4.78-16.93,7.39-38.3,7.43-63.66v0l0-0.48c-0.01-36.83-5.43-74.74-18.76-103.46l-2.36,1.1l1.44,2.17
	c11.15-7.4,23.75-11.26,37.7-11.27l0.09,0c12.84,0.03,23.74,4.79,31.52,12.89c7.76,8.11,12.43,19.61,12.44,33.32v0.08v0
	c-0.03,14.5-6.04,25.99-14.26,34.12c-8.21,8.11-18.69,12.7-27.07,13.17l-0.04,0l-0.05,0c-2.52,0.23-4.82,1.33-6.48,3.1
	c-1.66,1.76-2.65,4.18-2.64,6.83l2.61,0l-2.6-0.08l0,0.09c0,2.91,0.87,5.61,2.56,7.66c1.66,2.06,4.24,3.4,7.11,3.39h0.01h0.01h0.03
	c6,0,12.68-1.54,19.4-4.49c10.07-4.43,20.22-12.06,27.91-22.77c7.69-10.7,12.87-24.49,12.88-41v0H178.71z M66.87,84.44L65,82.63
	c-15.38,15.84-25.82,37.39-32.49,59.6c-6.66,22.21-9.53,45.09-9.55,63.71l0,0.25c0.01,16.16,2,32.19,6.4,44.48
	c2.21,6.14,5.01,11.37,8.65,15.21c3.61,3.83,8.24,6.24,13.52,6.23h0h0.01c2.53,0,5.02-0.66,7.32-1.87
	c4.04-2.13,7.57-5.86,10.69-10.88c4.68-7.54,8.48-18.07,11.23-31.21c2.74-13.13,4.4-28.86,4.64-46.7l0-0.01
	c0.01-1.3,0.02-2.61,0.02-3.92c-0.02-33.61-4.54-68.81-16.21-94.16l-1.59-3.45L65,82.63L66.87,84.44l-2.37,1.09
	c11.16,24.15,15.75,58.86,15.73,91.98c0,1.29-0.01,2.58-0.02,3.86v-0.01c-0.35,26.76-3.98,48.55-9.48,63.41
	c-2.74,7.43-5.95,13.11-9.29,16.79c-1.67,1.84-3.35,3.18-5,4.05c-1.65,0.86-3.26,1.27-4.9,1.27l-0.01,0h0
	c-3.7-0.02-6.8-1.55-9.75-4.61c-4.39-4.58-7.92-12.71-10.2-22.66c-2.3-9.94-3.41-21.66-3.41-33.44v-0.24
	c0.02-18.1,2.84-40.56,9.33-62.22c6.49-21.66,16.68-42.49,31.23-57.46L66.87,84.44l-2.37,1.09L66.87,84.44z"/>
<path class="st2" d="M199.42,186.27c0-6.47-4.5-11-12.86-11c-16.07,0-38.9,20.71-38.9,55.33c0,11,3.54,30.74,26.68,30.74
	c8.36,0,17.04-3.88,22.5-10.68c1.29-1.62,2.89-2.59,5.14-2.59c3.86,0,6.43,3.24,6.43,7.44c0,6.15-15.43,19.09-35.04,19.09
	c-24.43,0-40.19-16.5-40.19-44.01c0-40.77,28.29-69.25,53.69-69.25c19.29,0,27.01,11.97,27.01,24.92
	c0,25.56-26.68,38.18-45.65,38.18c-3.86,0-7.07-2.59-7.07-6.8c0-3.56,2.89-6.8,7.07-7.12C183.35,210.22,199.42,200.83,199.42,186.27
	z"/>
<path class="st1" d="M199.42,186.27h2.61c0.02-3.83-1.39-7.41-4.16-9.87c-2.76-2.47-6.67-3.74-11.3-3.74
	c-4.58,0-9.42,1.46-14.14,4.11c-14.11,7.98-27.35,26.98-27.37,53.83c0.01,5.77,0.88,13.86,5.03,20.83c2.08,3.48,5.02,6.66,9.04,8.92
	c4.02,2.27,9.06,3.6,15.21,3.59c9.16-0.02,18.51-4.19,24.53-11.65l0.01-0.01c0.48-0.6,0.92-0.97,1.39-1.22
	c0.46-0.24,0.97-0.38,1.72-0.39c1.19,0.02,1.98,0.43,2.67,1.22c0.67,0.79,1.16,2.04,1.15,3.62c0.01,0.22-0.09,0.75-0.44,1.44
	c-0.59,1.22-1.87,2.89-3.73,4.58c-2.78,2.55-6.84,5.2-11.7,7.17c-4.86,1.98-10.52,3.29-16.57,3.29
	c-11.64-0.02-20.88-3.88-27.34-10.85c-6.45-6.98-10.23-17.28-10.24-30.55c0-19.78,6.86-36.5,16.71-48.24
	c9.85-11.76,22.66-18.42,34.37-18.4c9.12,0.02,15.04,2.77,18.84,6.78c3.79,4.02,5.56,9.55,5.56,15.53c0,5.94-1.53,11.03-4.11,15.43
	c-3.86,6.6-10.17,11.66-17.28,15.06c-7.1,3.4-14.97,5.09-21.66,5.09c-1.35,0-2.47-0.45-3.23-1.14c-0.75-0.7-1.22-1.61-1.24-3.05
	c0-2.12,1.75-4.28,4.67-4.52l-0.2-2.6l0.06,2.6c8.07-0.18,16.3-2.73,22.71-7.28c3.2-2.28,5.95-5.08,7.91-8.38
	c1.96-3.29,3.12-7.1,3.11-11.22H199.42h-2.61c0,3.16-0.86,5.99-2.38,8.56c-2.28,3.85-6.15,7.1-10.83,9.39
	c-4.68,2.29-10.14,3.61-15.42,3.72l-0.07,0l-0.07,0.01c-5.44,0.41-9.47,4.72-9.48,9.72c-0.02,2.77,1.11,5.26,2.94,6.9
	c1.82,1.66,4.23,2.5,6.74,2.5c10.05-0.02,21.87-3.28,31.44-9.98c4.77-3.35,8.98-7.59,12-12.74c3.02-5.15,4.83-11.22,4.82-18.07
	c0-6.97-2.09-13.9-6.98-19.1c-4.89-5.21-12.47-8.44-22.63-8.42c-13.69,0.02-27.72,7.59-38.36,20.26
	c-10.64,12.69-17.93,30.59-17.93,51.59c-0.01,14.24,4.09,25.94,11.62,34.09c7.52,8.15,18.38,12.54,31.17,12.53
	c10.39-0.01,19.58-3.41,26.27-7.65c3.35-2.13,6.07-4.46,8.04-6.79c0.98-1.17,1.78-2.34,2.37-3.53c0.58-1.19,0.96-2.41,0.97-3.73
	c0-2.63-0.8-5.1-2.38-6.98c-1.56-1.88-3.99-3.09-6.65-3.07c-1.5,0-2.93,0.34-4.15,0.99c-1.23,0.65-2.22,1.56-3.04,2.58l-0.01,0.01
	l0.02-0.02c-4.91,6.13-12.91,9.72-20.47,9.71c-5.42,0-9.5-1.14-12.65-2.92c-4.71-2.66-7.53-6.85-9.24-11.54
	c-1.7-4.67-2.19-9.76-2.18-13.67c0-16.73,5.51-29.97,12.84-39.01c3.67-4.52,7.79-7.98,11.88-10.28c4.09-2.31,8.12-3.45,11.58-3.44
	c3.72,0,6.25,1,7.83,2.41c1.57,1.42,2.41,3.34,2.43,5.99H199.42z"/>
<path class="st2" d="M257.61,274.61c-0.32,0-1.93-0.32-2.25-0.32c-16.07-2.59-23.79-15.86-23.79-40.77
	c0-15.53,1.93-33.65,8.04-58.25c-9.32,0-12.86,1.62-17.36,1.62c-2.25,0-4.5-1.94-4.5-5.5c0-9.06,13.5-9.38,25.08-9.71
	c2.57-10.68,6.43-25.56,9.97-38.51c0.96-2.91,3.54-4.85,6.43-5.18c4.18,0,7.39,2.59,7.39,6.47c0,1.29-0.32,2.91-0.64,3.56
	c-3.22,9.71-7.39,26.86-9,33.98c4.5,0,10.93,0.32,19.61,0.65c3.54,0.65,7.07,3.24,7.07,6.8c0,3.88-2.57,6.47-6.11,6.47
	c-6.11,0-17.04-0.65-23.15-0.97c-5.79,20.71-8.68,41.1-8.68,57.6c0,25.56,9.32,27.18,12.54,27.83c3.54,0,6.43,3.24,6.43,6.8
	C264.68,271.05,261.46,274.29,257.61,274.61z"/>
<path class="st1" d="M257.61,274.61v-2.61v1.67l0.13-1.67l-0.13,0v1.67l0.13-1.67l0,0c-0.12-0.01-0.58-0.09-1-0.16l-0.63-0.1
	c-0.23-0.03-0.34-0.06-0.75-0.07v2.61l0.41-2.57c-3.71-0.6-6.82-1.79-9.46-3.55c-3.95-2.65-6.93-6.64-9-12.36
	c-2.06-5.72-3.14-13.14-3.13-22.28c0-15.31,1.89-33.19,7.96-57.62l0.8-3.23h-3.33c-4.81,0-8.21,0.42-10.89,0.84
	c-2.69,0.42-4.55,0.78-6.47,0.78c-0.37,0-0.79-0.15-1.16-0.56c-0.36-0.41-0.72-1.1-0.73-2.34c0-0.81,0.14-1.42,0.38-1.94
	c0.4-0.9,1.14-1.66,2.43-2.37c1.92-1.07,4.98-1.79,8.49-2.18c3.51-0.4,7.45-0.51,11.25-0.61l1.99-0.06l0.47-1.94
	c2.56-10.64,6.42-25.51,9.95-38.43l-2.51-0.69l2.47,0.82c0.63-1.91,2.32-3.19,4.25-3.41l-0.29-2.59v2.61c1.56,0,2.79,0.48,3.57,1.16
	c0.78,0.69,1.2,1.5,1.22,2.71c0,0.43-0.06,1.04-0.16,1.55c-0.05,0.25-0.1,0.48-0.15,0.65l-0.06,0.19l-0.01,0.04l0.29,0.12
	l-0.28-0.14l-0.01,0.02l0.29,0.12l-0.28-0.14l-0.08,0.16l-0.06,0.17c-3.28,9.91-7.44,27.03-9.07,34.22l-0.72,3.18h3.26
	c4.38,0,10.82,0.32,19.51,0.65l0.1-2.6l-0.47,2.56c1.32,0.23,2.7,0.88,3.61,1.69c0.92,0.83,1.33,1.66,1.33,2.54
	c-0.01,1.37-0.43,2.28-1,2.89c-0.58,0.6-1.36,0.97-2.5,0.98c-5.96,0-16.9-0.64-23.01-0.97l-2.09-0.11l-0.56,2.01
	c-5.84,20.92-8.77,41.5-8.78,58.3c0.01,13.08,2.35,20.43,5.58,24.81c1.61,2.18,3.45,3.54,5.12,4.34c1.65,0.8,3.15,1.08,3.94,1.24
	l0.25,0.05h0.26c0.96,0,1.89,0.44,2.63,1.23c0.74,0.79,1.2,1.89,1.19,2.96c0,1.21-0.5,2.35-1.36,3.25c-0.86,0.9-2.06,1.49-3.33,1.6
	L257.61,274.61v-2.61V274.61l0.22,2.6c2.59-0.22,4.93-1.4,6.64-3.18c1.71-1.77,2.82-4.19,2.82-6.86c-0.01-2.49-0.99-4.79-2.59-6.51
	c-1.59-1.71-3.87-2.89-6.45-2.89v2.61l0.51-2.55c-0.82-0.16-1.7-0.34-2.69-0.82c-1.46-0.73-3.24-2.06-4.86-5.65
	c-1.6-3.58-2.9-9.46-2.89-18.81c0-16.2,2.85-36.4,8.59-56.9l-2.51-0.7l-0.14,2.6c6.11,0.32,17.03,0.97,23.28,0.97
	c2.4,0.01,4.68-0.91,6.26-2.58c1.6-1.66,2.46-3.98,2.45-6.49c0-2.68-1.36-4.93-3.09-6.44c-1.75-1.53-3.9-2.5-6.12-2.92l-0.18-0.03
	l-0.19-0.01c-8.67-0.32-15.09-0.65-19.71-0.65V162l2.54,0.57c1.59-7.05,5.78-24.22,8.93-33.73l-2.47-0.82l2.33,1.16
	c0.19-0.39,0.3-0.72,0.41-1.09c0.3-1.07,0.5-2.34,0.51-3.63c0.02-2.67-1.17-5.1-3.04-6.67c-1.87-1.59-4.33-2.4-6.96-2.4h-0.15
	l-0.14,0.02c-3.86,0.43-7.31,3.03-8.61,6.95l-0.02,0.06l-0.02,0.07c-3.54,12.97-7.4,27.87-9.99,38.58l2.53,0.61l-0.07-2.6
	c-5.8,0.17-12.17,0.3-17.46,1.66c-2.64,0.69-5.07,1.7-7,3.43c-0.96,0.86-1.77,1.92-2.32,3.16c-0.55,1.23-0.83,2.61-0.83,4.07
	c-0.01,2.32,0.76,4.38,2.08,5.84c1.31,1.45,3.15,2.27,5.02,2.27c2.58,0,4.73-0.45,7.27-0.84c2.55-0.39,5.57-0.78,10.09-0.78v-2.61
	l-2.53-0.63c-6.15,24.75-8.12,43.12-8.11,58.87c0.01,12.72,1.94,22.7,6.22,30.07c2.14,3.68,4.9,6.68,8.23,8.91
	c3.33,2.23,7.2,3.67,11.53,4.37l0.21,0.03h0.21v-1.67l-0.13,1.67l0.13,0v-1.67l-0.13,1.67l0,0c0.12,0.01,0.58,0.09,1,0.16l0.63,0.1
	c0.23,0.03,0.34,0.06,0.75,0.07h0.11l0.11-0.01L257.61,274.61z"/>
<path class="st2" d="M305.18,234.16c0,5.5-4.5,6.47-6.43,6.15c-1.93-0.32-2.89-0.97-5.14-0.97c-6.11,0-7.72,4.85-7.72,9.38
	c0,7.77,9.32,15.53,20.9,15.53s23.79-6.8,23.79-21.36c0-7.77-3.86-16.83-18.33-24.59c-10.29-5.5-23.47-14.24-23.47-30.42
	c0-13.27,10.61-27.18,30.54-27.18c19.29,0,26.68,13.91,26.68,19.41c0,4.21-3.22,7.44-7.39,7.44c-1.93,0-5.14-1.62-5.79-4.21
	C331.86,180.12,327.36,173,319,173c-10.29,0-16.07,6.47-16.07,14.88c0,6.15,2.89,10.03,15.75,17.8
	c15.75,9.38,26.36,18.77,26.36,35.27c0,20.06-14.15,34.95-38.58,34.95c-18.32,0-35.04-10.68-35.04-26.86
	c0-13.59,9.97-23.3,22.18-23.3C299.39,225.75,305.18,227.69,305.18,234.16z"/>
<path class="st1" d="M305.18,234.16h-2.61c0,0.91-0.16,1.52-0.36,1.96c-0.3,0.64-0.69,0.99-1.2,1.26c-0.5,0.27-1.14,0.38-1.55,0.38
	l-0.29-0.02c-0.75-0.12-1.34-0.32-2.21-0.56c-0.87-0.23-1.99-0.46-3.36-0.45c-1.87,0-3.56,0.38-4.99,1.12
	c-2.16,1.12-3.56,3-4.32,4.94c-0.77,1.95-1.01,4-1.02,5.92c0,2.47,0.74,4.86,1.99,7.01c1.88,3.23,4.88,5.98,8.59,7.96
	c3.71,1.97,8.14,3.17,12.92,3.17c6.29-0.01,12.77-1.82,17.84-5.77c2.53-1.98,4.69-4.5,6.2-7.56c1.51-3.06,2.36-6.63,2.36-10.63
	c0.01-4.31-1.1-9.09-4.17-13.73c-3.06-4.65-8.02-9.12-15.53-13.16l0,0c-5.05-2.69-10.67-6.14-14.92-10.69
	c-4.25-4.57-7.16-10.07-7.17-17.43c0-5.94,2.39-12.09,7.03-16.72c4.65-4.63,11.54-7.84,20.9-7.85c9.01,0.02,14.93,3.19,18.75,6.9
	c1.9,1.86,3.26,3.87,4.12,5.68c0.87,1.79,1.21,3.42,1.2,4.23c0,1.44-0.53,2.61-1.37,3.46c-0.85,0.85-2,1.37-3.42,1.38
	c-0.26,0.02-1.24-0.23-1.96-0.71c-0.76-0.48-1.22-1.11-1.3-1.52l-0.01-0.06l-0.02-0.06c-0.65-2.13-2.18-4.97-4.84-7.53
	c-2.64-2.53-6.54-4.69-11.48-4.68c-5.68-0.01-10.44,1.82-13.71,5.03c-3.28,3.2-4.97,7.67-4.96,12.46c0,1.74,0.21,3.46,0.8,5.14
	c0.89,2.54,2.59,4.85,5.18,7.17c2.6,2.33,6.14,4.76,11.03,7.71l0,0l0.01,0.01c7.78,4.63,14.12,9.19,18.41,14.39
	c4.29,5.21,6.65,10.95,6.68,18.64c-0.01,9.43-3.28,17.39-9.31,23.1c-6.04,5.7-14.96,9.23-26.66,9.24
	c-8.66,0.01-16.92-2.55-22.86-6.87c-2.97-2.16-5.37-4.74-7.01-7.65c-1.64-2.91-2.56-6.15-2.56-9.74c0.01-6.16,2.24-11.29,5.77-14.93
	c3.54-3.63,8.39-5.76,13.81-5.77c2.61-0.01,5.1,0.48,6.62,1.41c0.77,0.46,1.32,1,1.7,1.66c0.38,0.67,0.64,1.51,0.64,2.74H305.18
	h2.61c0-2-0.46-3.83-1.35-5.35c-1.33-2.3-3.48-3.74-5.73-4.55c-2.27-0.83-4.71-1.11-7.1-1.11c-6.8,0-13.04,2.72-17.54,7.34
	c-4.5,4.62-7.25,11.13-7.25,18.56c0,4.5,1.17,8.66,3.24,12.31c3.1,5.47,8.13,9.75,14.13,12.66c6.01,2.92,13.03,4.49,20.28,4.49
	c12.73,0.01,23.1-3.9,30.24-10.66c7.15-6.75,10.96-16.25,10.94-26.89c0.02-8.81-2.92-16.02-7.87-21.97
	c-4.95-5.97-11.78-10.78-19.76-15.54l0.01,0.01c-6.34-3.82-10.1-6.66-12.07-8.97c-0.99-1.16-1.56-2.16-1.92-3.17
	c-0.35-1.01-0.51-2.09-0.51-3.42c0.01-3.62,1.21-6.59,3.39-8.73c2.19-2.13,5.47-3.53,10.07-3.55c3.41,0.01,5.94,1.41,7.89,3.24
	c1.92,1.81,3.13,4.14,3.44,5.25l2.5-0.74l-2.53,0.63c0.56,2.18,2.03,3.66,3.53,4.63c1.53,0.97,3.12,1.53,4.79,1.55
	c2.77,0,5.31-1.09,7.11-2.91c1.81-1.82,2.89-4.36,2.89-7.14c-0.01-1.94-0.59-4.12-1.71-6.48c-1.69-3.52-4.67-7.39-9.22-10.41
	c-4.54-3.02-10.66-5.13-18.36-5.13c-10.57-0.01-18.95,3.73-24.59,9.38c-5.64,5.64-8.56,13.08-8.56,20.41
	c-0.02,8.82,3.67,15.78,8.58,20.99c4.91,5.24,11.02,8.91,16.27,11.72l0,0c6.95,3.73,11.16,7.67,13.65,11.43
	c2.48,3.77,3.3,7.41,3.31,10.86c0,3.28-0.68,6.01-1.82,8.33c-1.71,3.46-4.51,6.04-7.94,7.79c-3.42,1.75-7.47,2.64-11.43,2.63
	c-5.2,0-9.9-1.76-13.2-4.31c-1.65-1.27-2.95-2.73-3.81-4.22c-0.86-1.49-1.29-2.98-1.29-4.4c-0.01-1.97,0.39-3.85,1.14-4.96
	c0.38-0.57,0.8-0.97,1.39-1.28c0.59-0.31,1.39-0.53,2.58-0.53c0.88,0.01,1.36,0.11,2.02,0.28c0.65,0.17,1.51,0.46,2.69,0.66
	c0.37,0.06,0.75,0.09,1.15,0.09c1.58-0.01,3.53-0.44,5.3-1.85c0.87-0.7,1.66-1.67,2.19-2.85c0.54-1.19,0.83-2.57,0.82-4.11H305.18z"
	/>
<path class="st1" d="M374.52,158.9h16.69v91.71c0,2.29,0.8,4.26,2.4,5.91c1.65,1.6,3.62,2.4,5.91,2.4c2.29,0,4.26-0.81,5.91-2.44
	c1.65-1.62,2.47-3.58,2.47-5.87V158.9h16.62v91.71c0,6.92-2.43,12.82-7.28,17.72c-4.9,4.85-10.81,7.28-17.72,7.28
	c-6.92,0-12.81-2.44-17.69-7.32c-4.88-4.87-7.32-10.77-7.32-17.69V158.9z"/>
<path class="st1" d="M484.85,275.61h-16.69V183.9c0-2.29-0.8-4.26-2.4-5.91c-1.65-1.6-3.62-2.4-5.91-2.4
	c-2.29,0-4.26,0.81-5.91,2.44c-1.65,1.63-2.47,3.58-2.47,5.87v91.71h-16.62V183.9c0-6.92,2.43-12.8,7.28-17.65
	c4.9-4.9,10.81-7.35,17.72-7.35c6.92,0,12.81,2.44,17.69,7.31c4.88,4.88,7.32,10.77,7.32,17.69V275.61z"/>
<path class="st1" d="M495.15,158.9h24.94c6.92,0,12.82,2.45,17.72,7.35c4.9,4.9,7.35,10.81,7.35,17.72v16.55
	c0,6.92-2.45,12.82-7.35,17.72c-4.9,4.9-10.81,7.35-17.72,7.35h-8.31v50.01h-16.62V158.9z M518.44,208.91
	c2.75,0,5.11-0.98,7.08-2.95c1.97-1.97,2.95-4.33,2.95-7.08v-13.26c0-2.79-0.98-5.16-2.95-7.11c-1.97-1.95-4.33-2.92-7.08-2.92
	h-6.66v33.32H518.44z"/>
<polygon class="st1" points="600.27,275.61 550.26,275.61 550.26,158.9 566.95,158.9 566.95,258.92 600.27,258.92 "/>
<path class="st1" d="M594.95,158.9h16.69v91.71c0,2.29,0.8,4.26,2.4,5.91c1.65,1.6,3.62,2.4,5.91,2.4s4.26-0.81,5.91-2.44
	c1.65-1.62,2.47-3.58,2.47-5.87V158.9h16.62v91.71c0,6.92-2.43,12.82-7.28,17.72c-4.9,4.85-10.81,7.28-17.72,7.28
	c-6.92,0-12.81-2.44-17.69-7.32c-4.88-4.87-7.32-10.77-7.32-17.69V158.9z"/>
<path class="st1" d="M705.28,208.91h-16.62v-25c0-2.29-0.81-4.25-2.44-5.87c-1.63-1.62-3.61-2.44-5.94-2.44
	c-2.29,0-4.25,0.81-5.87,2.44c-1.63,1.63-2.44,3.58-2.44,5.87v66.7c0,2.29,0.81,4.25,2.44,5.87c1.62,1.63,3.58,2.44,5.87,2.44
	c2.34,0,4.32-0.81,5.94-2.44c1.62-1.62,2.44-3.58,2.44-5.87v-8.31h-8.38V225.6h25v25c0,6.92-2.44,12.81-7.32,17.69
	c-4.87,4.88-10.77,7.32-17.69,7.32c-6.87,0-12.75-2.44-17.65-7.32c-4.9-4.87-7.35-10.77-7.35-17.69v-66.7
	c0-6.92,2.45-12.81,7.35-17.69c4.9-4.87,10.79-7.31,17.65-7.31c6.92,0,12.81,2.44,17.69,7.31c4.88,4.88,7.32,10.77,7.32,17.69
	V208.91z"/>
<path class="st1" d="M765.59,208.91h-16.62v-25c0-2.29-0.81-4.25-2.44-5.87c-1.63-1.62-3.61-2.44-5.94-2.44
	c-2.29,0-4.25,0.81-5.87,2.44c-1.63,1.63-2.44,3.58-2.44,5.87v66.7c0,2.29,0.81,4.25,2.44,5.87c1.62,1.63,3.58,2.44,5.87,2.44
	c2.34,0,4.31-0.81,5.94-2.44c1.62-1.62,2.44-3.58,2.44-5.87v-8.31h-8.38V225.6h25v25c0,6.92-2.44,12.81-7.32,17.69
	c-4.87,4.88-10.77,7.32-17.69,7.32c-6.87,0-12.75-2.44-17.65-7.32c-4.9-4.87-7.35-10.77-7.35-17.69v-66.7
	c0-6.92,2.45-12.81,7.35-17.69c4.9-4.87,10.79-7.31,17.65-7.31c6.92,0,12.81,2.44,17.69,7.31c4.88,4.88,7.32,10.77,7.32,17.69
	V208.91z"/>
<polygon class="st1" points="811.96,208.91 811.96,225.6 792.59,225.6 792.59,258.92 811.96,258.92 811.96,275.61 775.89,275.61 
	775.89,158.9 811.96,158.9 811.96,175.59 792.59,175.59 792.59,208.91 "/>
<rect x="807.91" y="233.66" transform="matrix(0.9941 -0.1089 0.1089 0.9941 -21.4423 91.2588)" class="st1" width="34.29" height="16.69"/>
<rect x="860.61" y="198.22" transform="matrix(0.994 -0.1089 0.1089 0.994 -17.2311 97.7004)" class="st1" width="50.01" height="16.69"/>
<rect x="802.32" y="182.65" transform="matrix(0.9941 -0.1089 0.1089 0.9941 -15.9226 90.3497)" class="st1" width="34.29" height="16.69"/>
<path class="st1" d="M820.97,158.72l25.47-2.79c6.69-0.73,12.66,1.01,17.92,5.22c5.25,4.22,8.25,9.67,8.98,16.36l7.4,67.54
	c0.73,6.69-1.01,12.66-5.22,17.92c-4.22,5.25-9.67,8.25-16.36,8.98l-25.47,2.79L820.97,158.72z M855.22,255.59
	c2.73-0.3,4.94-1.5,6.62-3.6c1.68-2.09,2.37-4.51,2.07-7.24l-6.93-63.3c-0.29-2.68-1.49-4.88-3.59-6.58
	c-2.1-1.71-4.51-2.41-7.25-2.11l-6.76,0.74l9.08,82.83L855.22,255.59z"/>
<path class="st3" d="M114.53,360.85c-0.83,0.45-1.62,0.82-2.39,1.1c-0.76,0.28-1.52,0.42-2.27,0.42c-2.72,0-5.29-0.73-7.69-2.19
	c-2.41-1.46-4.33-3.41-5.76-5.85c-1.43-2.44-2.15-5.04-2.15-7.79v-21.26c0-1.6,0.51-2.83,1.54-3.7c1.02-0.87,2.23-1.31,3.62-1.31
	c1.41,0,2.64,0.44,3.7,1.33c1.05,0.89,1.58,2.11,1.58,3.68v21.26c0,1.58,0.51,2.82,1.54,3.72c1.02,0.9,2.23,1.35,3.62,1.35
	c1.42,0,2.66-0.45,3.71-1.35c1.05-0.9,1.57-2.14,1.57-3.72v-21.26c0-1.6,0.51-2.83,1.54-3.7c1.03-0.87,2.25-1.31,3.68-1.31
	c1.42,0,2.67,0.45,3.74,1.34c1.07,0.89,1.61,2.11,1.61,3.67v31.77c0,1.37-0.55,2.6-1.65,3.69c-1.1,1.09-2.35,1.63-3.75,1.63
	c-0.53,0-1.03-0.22-1.48-0.67c-0.46-0.45-1.07-1.17-1.85-2.17C116.18,359.95,115.36,360.4,114.53,360.85z"/>
<path class="st3" d="M145.53,320.68c0.93-0.4,1.94-0.6,3.02-0.6c2.77,0,5.38,0.72,7.82,2.17c2.44,1.45,4.39,3.39,5.84,5.83
	c1.45,2.44,2.18,5.05,2.18,7.83v21.14c0,1.55-0.53,2.77-1.58,3.66c-1.05,0.9-2.29,1.34-3.7,1.34c-1.42,0-2.66-0.45-3.71-1.34
	c-1.05-0.89-1.57-2.11-1.57-3.67v-21.14c0-1.55-0.52-2.75-1.55-3.62c-1.03-0.87-2.26-1.31-3.67-1.31c-1.44,0-2.67,0.43-3.69,1.3
	c-1.02,0.87-1.53,2.08-1.53,3.63v21.14c0,1.58-0.52,2.82-1.57,3.72c-1.05,0.9-2.28,1.35-3.71,1.35c-1.39,0-2.6-0.45-3.62-1.35
	c-1.02-0.9-1.54-2.14-1.54-3.72v-31.77c0-1.31,0.53-2.5,1.57-3.58c1.05-1.08,2.24-1.62,3.59-1.62c0.63,0,1.18,0.21,1.63,0.63
	c0.46,0.42,1.04,1.08,1.76,1.96C143.25,321.74,144.6,321.07,145.53,320.68z"/>
<path class="st3" d="M180.1,321.69c1.06,1.07,1.6,2.27,1.6,3.58c0.53-0.31,1.57-0.99,3.11-2.05c1.54-1.06,2.86-1.84,3.97-2.36
	c1.11-0.52,2.22-0.78,3.35-0.78c3.77,0,7.27,0.94,10.5,2.83c3.23,1.89,5.8,4.45,7.68,7.68c1.89,3.24,2.83,6.78,2.83,10.63
	c0,3.81-0.95,7.34-2.84,10.59c-1.89,3.25-4.45,5.82-7.68,7.71c-3.23,1.9-6.73,2.84-10.49,2.84c-1.66,0-3.2-0.32-4.61-0.97
	c-1.42-0.64-3.35-1.69-5.81-3.14v9.18c0,1.58-0.52,2.82-1.57,3.72c-1.04,0.9-2.26,1.35-3.65,1.35c-1.42,0-2.65-0.45-3.68-1.34
	c-1.03-0.9-1.54-2.14-1.54-3.72v-42.16c0-0.84,0.24-1.67,0.71-2.47c0.48-0.8,1.12-1.46,1.93-1.96c0.81-0.5,1.64-0.76,2.5-0.76
	C177.8,320.08,179.04,320.62,180.1,321.69z M197.29,350.28c1.63-0.97,2.94-2.27,3.93-3.89c0.99-1.63,1.48-3.35,1.48-5.16
	c0-1.86-0.49-3.6-1.47-5.22c-0.98-1.61-2.29-2.9-3.92-3.86c-1.63-0.96-3.36-1.44-5.18-1.44c-1.82,0-3.53,0.48-5.14,1.44
	c-1.6,0.96-2.88,2.24-3.85,3.86c-0.96,1.61-1.44,3.35-1.44,5.22c0,1.81,0.48,3.53,1.44,5.16c0.96,1.63,2.25,2.93,3.85,3.89
	c1.61,0.97,3.32,1.45,5.13,1.45C193.94,351.73,195.66,351.25,197.29,350.28z"/>
<path class="st3" d="M225.84,357.05c0,1.55-0.53,2.77-1.58,3.66c-1.05,0.9-2.29,1.34-3.7,1.34c-1.42,0-2.66-0.45-3.71-1.34
	c-1.05-0.89-1.57-2.11-1.57-3.67v-42.28c0-1.62,0.52-2.87,1.57-3.75c1.04-0.88,2.28-1.32,3.72-1.32c1.43,0,2.67,0.44,3.72,1.32
	c1.04,0.88,1.57,2.13,1.57,3.75V357.05z"/>
<path class="st3" d="M253.12,360.85c-0.83,0.45-1.62,0.82-2.39,1.1c-0.76,0.28-1.52,0.42-2.27,0.42c-2.72,0-5.29-0.73-7.69-2.19
	c-2.41-1.46-4.33-3.41-5.76-5.85c-1.43-2.44-2.15-5.04-2.15-7.79v-21.26c0-1.6,0.51-2.83,1.54-3.7c1.02-0.87,2.23-1.31,3.62-1.31
	c1.41,0,2.64,0.44,3.7,1.33c1.05,0.89,1.58,2.11,1.58,3.68v21.26c0,1.58,0.51,2.82,1.54,3.72c1.02,0.9,2.23,1.35,3.62,1.35
	c1.42,0,2.66-0.45,3.71-1.35c1.05-0.9,1.57-2.14,1.57-3.72v-21.26c0-1.6,0.51-2.83,1.54-3.7c1.03-0.87,2.25-1.31,3.68-1.31
	c1.42,0,2.67,0.45,3.74,1.34c1.07,0.89,1.61,2.11,1.61,3.67v31.77c0,1.37-0.55,2.6-1.65,3.69c-1.1,1.09-2.35,1.63-3.75,1.63
	c-0.53,0-1.03-0.22-1.48-0.67c-0.46-0.45-1.07-1.17-1.85-2.17C254.77,359.95,253.95,360.4,253.12,360.85z"/>
<path class="st3" d="M298.27,320.96c1.35,0,2.5,0.42,3.43,1.25c0.94,0.83,1.4,2.02,1.4,3.57v31.26c0,3.06-0.88,5.78-2.63,8.15
	c-1.76,2.38-4.03,4.21-6.82,5.49c-2.79,1.29-5.7,1.93-8.71,1.93c-1.79,0-3.62-0.27-5.47-0.82c-1.86-0.55-3.59-1.33-5.2-2.34
	c-1.61-1.02-3-2.22-4.18-3.62c-0.5-0.75-0.75-1.61-0.75-2.58c0-1.93,0.77-3.43,2.32-4.5c0.62-0.38,1.34-0.57,2.15-0.57
	c0.88,0,1.76,0.19,2.63,0.57c0.88,0.38,1.57,0.84,2.08,1.39c0.69,0.66,1.64,1.18,2.88,1.57c1.23,0.39,2.54,0.58,3.91,0.58
	c2.07,0,3.83-0.44,5.3-1.33c1.46-0.89,2.2-2.19,2.2-3.93v-1.7c-2.38,1.09-4.89,1.64-7.55,1.64c-2.35,0-4.64-0.44-6.85-1.32
	c-2.21-0.88-4.19-2.14-5.93-3.78c-1.74-1.64-3.11-3.58-4.1-5.83c-0.99-2.25-1.49-4.68-1.49-7.31c0-3.22,0.82-6.22,2.46-8.99
	c1.64-2.77,3.85-4.97,6.63-6.6c2.78-1.63,5.77-2.44,8.97-2.44c2.6,0,5.43,0.87,8.49,2.6C294.61,321.75,296.22,320.96,298.27,320.96z
	 M281.16,332.17c-1.19,0.72-2.15,1.66-2.87,2.84c-0.72,1.18-1.08,2.42-1.08,3.73c0,2.39,0.77,4.26,2.32,5.59
	c1.55,1.34,3.37,2.01,5.48,2.01c1.35,0,2.62-0.29,3.81-0.86c1.19-0.58,2.15-1.44,2.89-2.59c0.74-1.15,1.11-2.53,1.11-4.15
	c0-1.29-0.37-2.53-1.1-3.72c-0.73-1.19-1.71-2.14-2.92-2.86c-1.22-0.72-2.5-1.07-3.84-1.07
	C283.61,331.1,282.35,331.46,281.16,332.17z"/>
<path class="st3" d="M362.06,346.63c1.01,1.6,2.33,2.84,3.98,3.72c1.64,0.88,3.35,1.32,5.13,1.32c2.84,0,5.23-1.01,7.17-3.04
	c1.07-1.6,2.37-2.4,3.9-2.4c0.92,0,1.83,0.29,2.72,0.88c0.89,0.59,1.61,1.35,2.14,2.29c0.54,0.94,0.81,1.91,0.81,2.9
	c0,1.54-0.69,2.82-2.07,3.86c-1.91,1.96-4.15,3.48-6.72,4.57c-2.56,1.09-5.27,1.63-8.13,1.63c-3.73,0-7.21-0.95-10.43-2.84
	c-3.21-1.9-5.76-4.47-7.64-7.73c-1.88-3.26-2.82-6.78-2.82-10.57c0-3.83,0.94-7.37,2.81-10.62c1.87-3.25,4.42-5.81,7.63-7.7
	c3.21-1.89,6.7-2.83,10.44-2.83c2.85,0,5.56,0.54,8.13,1.63c2.56,1.09,4.8,2.61,6.72,4.57c0.36,0.43,0.8,1.05,1.34,1.86
	c0.53,0.81,0.8,1.5,0.8,2.06c0,1.58-0.55,2.87-1.65,3.88c-1.1,1.01-2.35,1.52-3.75,1.52c-1.67,0-2.99-0.67-3.98-2.03
	c-2.04-1.86-4.42-2.8-7.15-2.8c-1.86,0-3.63,0.43-5.3,1.3c-1.67,0.87-3.02,2.09-4.05,3.68c-1.03,1.59-1.54,3.41-1.54,5.47
	C360.54,343.23,361.05,345.03,362.06,346.63z"/>
<path class="st3" d="M421.66,322.91c3.24,1.89,5.8,4.45,7.69,7.68c1.89,3.24,2.83,6.78,2.83,10.63c0,3.81-0.95,7.34-2.84,10.59
	c-1.9,3.25-4.46,5.82-7.69,7.71c-3.23,1.9-6.73,2.84-10.49,2.84c-3.73,0-7.2-0.95-10.41-2.84c-3.21-1.9-5.76-4.47-7.64-7.73
	c-1.88-3.26-2.82-6.78-2.82-10.57c0-3.83,0.94-7.37,2.81-10.62c1.87-3.25,4.42-5.81,7.63-7.7c3.21-1.89,6.69-2.83,10.43-2.83
	C414.93,320.08,418.43,321.02,421.66,322.91z M402.18,346.38c0.96,1.63,2.25,2.93,3.85,3.89c1.61,0.97,3.32,1.45,5.13,1.45
	c1.81,0,3.53-0.48,5.16-1.45c1.63-0.97,2.94-2.27,3.93-3.89c0.99-1.63,1.48-3.35,1.48-5.16c0-1.86-0.49-3.6-1.47-5.22
	c-0.98-1.61-2.29-2.9-3.92-3.86c-1.63-0.96-3.36-1.44-5.18-1.44c-1.82,0-3.53,0.48-5.14,1.44c-1.6,0.96-2.88,2.24-3.84,3.86
	c-0.96,1.61-1.45,3.35-1.45,5.22C400.74,343.04,401.22,344.76,402.18,346.38z"/>
<path class="st3" d="M444.88,357.05c0,1.55-0.53,2.77-1.58,3.66c-1.05,0.9-2.29,1.34-3.7,1.34c-1.42,0-2.66-0.45-3.71-1.34
	c-1.05-0.89-1.57-2.11-1.57-3.67v-42.28c0-1.62,0.52-2.87,1.57-3.75c1.04-0.88,2.28-1.32,3.71-1.32c1.43,0,2.67,0.44,3.71,1.32
	c1.05,0.88,1.57,2.13,1.57,3.75V357.05z"/>
<path class="st3" d="M478.25,322.91c3.24,1.89,5.8,4.45,7.69,7.68c1.89,3.24,2.83,6.78,2.83,10.63c0,3.81-0.95,7.34-2.84,10.59
	c-1.9,3.25-4.45,5.82-7.69,7.71c-3.23,1.9-6.73,2.84-10.49,2.84c-3.73,0-7.2-0.95-10.41-2.84c-3.21-1.9-5.76-4.47-7.64-7.73
	c-1.88-3.26-2.82-6.78-2.82-10.57c0-3.83,0.94-7.37,2.81-10.62c1.87-3.25,4.42-5.81,7.63-7.7c3.21-1.89,6.69-2.83,10.43-2.83
	C471.52,320.08,475.02,321.02,478.25,322.91z M458.77,346.38c0.96,1.63,2.25,2.93,3.85,3.89c1.61,0.97,3.32,1.45,5.13,1.45
	c1.81,0,3.53-0.48,5.16-1.45c1.63-0.97,2.94-2.27,3.93-3.89c0.99-1.63,1.48-3.35,1.48-5.16c0-1.86-0.49-3.6-1.47-5.22
	c-0.98-1.61-2.29-2.9-3.92-3.86c-1.63-0.96-3.36-1.44-5.18-1.44c-1.82,0-3.53,0.48-5.14,1.44c-1.6,0.96-2.88,2.24-3.84,3.86
	c-0.96,1.61-1.45,3.35-1.45,5.22C457.33,343.04,457.81,344.76,458.77,346.38z"/>
<path class="st3" d="M511.9,320.08c1.54,0,2.75,0.53,3.63,1.6c0.89,1.07,1.33,2.33,1.33,3.78c0,1.45-0.43,2.69-1.3,3.72
	c-0.86,1.03-2.09,1.54-3.66,1.54c-1.82,0-3.54,0.48-5.14,1.44c-1.61,0.96-2.89,2.24-3.85,3.86c-0.96,1.61-1.44,3.35-1.44,5.22v15.82
	c0,1.58-0.52,2.82-1.57,3.72c-1.05,0.9-2.28,1.35-3.71,1.35c-1.39,0-2.6-0.45-3.62-1.35c-1.02-0.9-1.54-2.14-1.54-3.72v-31.77
	c0-1.55,0.48-2.76,1.43-3.63c0.95-0.88,2.09-1.31,3.41-1.31c0.99,0,1.93,0.25,2.82,0.76c0.89,0.51,1.6,1.25,2.15,2.22
	C504.36,321.16,508.05,320.08,511.9,320.08z"/>
<path class="st3" d="M605.93,357.05c0,1.37-0.53,2.6-1.59,3.69c-1.06,1.09-2.29,1.63-3.71,1.63c-3.31-0.37-5.02-2.14-5.14-5.32
	c-1.25,1.4-2.85,2.64-4.81,3.71c-1.96,1.07-3.88,1.61-5.77,1.61c-3.73,0-7.2-0.95-10.41-2.84c-3.21-1.9-5.76-4.47-7.64-7.73
	c-1.88-3.26-2.82-6.78-2.82-10.57c0-3.83,0.94-7.37,2.81-10.62c1.87-3.25,4.42-5.81,7.63-7.7c3.21-1.89,6.69-2.83,10.43-2.83
	c3.77,0,7.27,0.94,10.5,2.83c3.24,1.89,5.8,4.45,7.69,7.68c1.89,3.24,2.83,6.78,2.83,10.63V357.05z M579.77,332.15
	c-1.6,0.96-2.88,2.24-3.84,3.86c-0.96,1.61-1.45,3.35-1.45,5.22c0,1.81,0.48,3.53,1.45,5.16c0.96,1.63,2.25,2.93,3.85,3.89
	c1.61,0.97,3.32,1.45,5.13,1.45c1.81,0,3.53-0.48,5.16-1.45c1.63-0.97,2.94-2.27,3.93-3.89c0.99-1.63,1.48-3.35,1.48-5.16
	c0-1.86-0.49-3.6-1.47-5.22c-0.98-1.61-2.29-2.9-3.92-3.86c-1.63-0.96-3.36-1.44-5.18-1.44
	C583.09,330.71,581.38,331.19,579.77,332.15z"/>
<path class="st3" d="M620.88,320.68c0.93-0.4,1.94-0.6,3.03-0.6c2.77,0,5.38,0.72,7.82,2.17c2.44,1.45,4.39,3.39,5.84,5.83
	c1.46,2.44,2.18,5.05,2.18,7.83v21.14c0,1.55-0.53,2.77-1.58,3.66c-1.06,0.9-2.29,1.34-3.7,1.34c-1.42,0-2.66-0.45-3.71-1.34
	c-1.05-0.89-1.57-2.11-1.57-3.67v-21.14c0-1.55-0.52-2.75-1.55-3.62c-1.03-0.87-2.26-1.31-3.67-1.31c-1.44,0-2.67,0.43-3.69,1.3
	c-1.02,0.87-1.53,2.08-1.53,3.63v21.14c0,1.58-0.52,2.82-1.57,3.72c-1.05,0.9-2.29,1.35-3.71,1.35c-1.39,0-2.6-0.45-3.62-1.35
	c-1.02-0.9-1.53-2.14-1.53-3.72v-31.77c0-1.31,0.52-2.5,1.57-3.58c1.05-1.08,2.24-1.62,3.58-1.62c0.64,0,1.18,0.21,1.64,0.63
	c0.46,0.42,1.04,1.08,1.76,1.96C618.61,321.74,619.95,321.07,620.88,320.68z"/>
<path class="st3" d="M646.73,330.7c0-1.61,0.52-2.85,1.55-3.73c1.03-0.88,2.28-1.32,3.73-1.32c1.44,0,2.68,0.44,3.72,1.32
	c1.04,0.88,1.56,2.13,1.56,3.73v26.34c0,1.55-0.53,2.77-1.58,3.66c-1.05,0.9-2.29,1.34-3.7,1.34c-1.42,0-2.66-0.45-3.71-1.34
	c-1.05-0.89-1.57-2.12-1.57-3.67V330.7z M655.53,311.12c0.84,1.03,1.26,2.27,1.26,3.71c0,1.42-0.42,2.65-1.26,3.69
	c-0.84,1.04-2.01,1.56-3.52,1.56c-1.63,0-2.89-0.52-3.8-1.55c-0.91-1.03-1.36-2.25-1.36-3.65c0-1.42,0.46-2.66,1.38-3.72
	c0.92-1.06,2.18-1.59,3.78-1.59C653.52,309.57,654.69,310.09,655.53,311.12z"/>
<path class="st3" d="M676.21,320.72c0.99-0.43,2.06-0.64,3.21-0.64c2.11,0,3.98,0.44,5.61,1.31c1.63,0.87,3.2,2.17,4.71,3.89
	c1.16-1.21,2.24-2.17,3.26-2.91c1.02-0.73,2.13-1.29,3.33-1.69c1.2-0.4,2.52-0.6,3.97-0.6c2.78,0,5.37,0.72,7.79,2.16
	c2.42,1.44,4.35,3.38,5.78,5.82c1.43,2.44,2.15,5.05,2.15,7.84v21.14c0,1.55-0.52,2.77-1.55,3.66c-1.03,0.9-2.26,1.34-3.67,1.34
	c-1.39,0-2.61-0.45-3.65-1.34c-1.04-0.9-1.57-2.12-1.57-3.66v-21.14c0-1.55-0.52-2.75-1.55-3.62c-1.04-0.87-2.26-1.31-3.67-1.31
	c-1.45,0-2.67,0.43-3.69,1.3c-1.02,0.87-1.53,2.08-1.53,3.63v21.14c0,1.55-0.53,2.77-1.58,3.66c-1.05,0.9-2.29,1.34-3.7,1.34
	c-1.42,0-2.66-0.45-3.71-1.34c-1.05-0.89-1.57-2.11-1.57-3.67v-21.14c0-1.56-0.51-2.77-1.53-3.63c-1.03-0.87-2.25-1.3-3.69-1.3
	c-1.41,0-2.64,0.44-3.67,1.31c-1.03,0.87-1.55,2.08-1.55,3.62v21.14c0,1.58-0.52,2.82-1.57,3.72c-1.05,0.9-2.28,1.35-3.71,1.35
	c-1.39,0-2.6-0.45-3.62-1.35c-1.03-0.9-1.54-2.14-1.54-3.72v-31.77c0-1.31,0.52-2.5,1.57-3.58c1.05-1.08,2.24-1.62,3.58-1.62
	c0.63,0,1.16,0.2,1.59,0.59c0.42,0.39,1.05,1.06,1.87,2.01C673.92,321.8,675.22,321.15,676.21,320.72z"/>
<path class="st3" d="M760.42,357.05c0,1.37-0.53,2.6-1.59,3.69c-1.06,1.09-2.29,1.63-3.71,1.63c-3.3-0.37-5.02-2.14-5.14-5.32
	c-1.25,1.4-2.85,2.64-4.81,3.71c-1.96,1.07-3.88,1.61-5.77,1.61c-3.73,0-7.2-0.95-10.41-2.84c-3.21-1.9-5.76-4.47-7.64-7.73
	c-1.88-3.26-2.82-6.78-2.82-10.57c0-3.83,0.94-7.37,2.81-10.62c1.87-3.25,4.42-5.81,7.63-7.7c3.21-1.89,6.69-2.83,10.43-2.83
	c3.77,0,7.27,0.94,10.5,2.83c3.24,1.89,5.8,4.45,7.69,7.68c1.89,3.24,2.83,6.78,2.83,10.63V357.05z M734.27,332.15
	c-1.6,0.96-2.88,2.24-3.84,3.86c-0.96,1.61-1.45,3.35-1.45,5.22c0,1.81,0.48,3.53,1.45,5.16c0.96,1.63,2.25,2.93,3.85,3.89
	c1.61,0.97,3.32,1.45,5.13,1.45c1.81,0,3.53-0.48,5.16-1.45c1.63-0.97,2.94-2.27,3.93-3.89c0.99-1.63,1.48-3.35,1.48-5.16
	c0-1.86-0.49-3.6-1.47-5.22c-0.98-1.61-2.29-2.9-3.92-3.86c-1.63-0.96-3.36-1.44-5.18-1.44S735.87,331.19,734.27,332.15z"/>
<path class="st3" d="M772.67,311.02c1.04-0.88,2.26-1.32,3.66-1.32c1.42,0,2.65,0.44,3.68,1.32c1.03,0.88,1.54,2.13,1.54,3.75v10.51
	h5.28c1.57,0,2.8,0.53,3.69,1.58c0.89,1.05,1.34,2.3,1.34,3.74c0,1.45-0.44,2.7-1.33,3.75c-0.89,1.05-2.12,1.57-3.69,1.57h-5.28
	v10.63c0,1.57,0.44,2.68,1.31,3.34c0.87,0.66,2.18,1.27,3.94,1.84c1.76,0.57,3.09,1.2,3.98,1.9c0.89,0.7,1.34,1.84,1.34,3.43
	c0,1.36-0.54,2.59-1.63,3.68c-1.09,1.09-2.3,1.64-3.66,1.64c-2.75,0-5.34-0.73-7.76-2.18c-2.42-1.45-4.35-3.4-5.8-5.84
	c-1.44-2.44-2.17-5.04-2.17-7.8v-10.63h-5.28c-1.56,0-2.8-0.53-3.69-1.58c-0.9-1.05-1.34-2.28-1.34-3.68c0-1.46,0.45-2.73,1.34-3.79
	c0.89-1.06,2.12-1.59,3.7-1.59h5.28v-10.51C771.11,313.15,771.63,311.9,772.67,311.02z"/>
<path class="st3" d="M833.21,341.15c-0.45,0.87-1.03,1.57-1.74,2.11c-0.72,0.54-1.46,0.8-2.24,0.8h-25.92
	c0.19,0.31,0.45,0.73,0.76,1.25c0.31,0.53,0.54,0.97,0.68,1.34c0.96,1.6,2.24,2.84,3.84,3.73c1.6,0.89,3.27,1.34,5.03,1.34
	c2.85,0,5.31-1.04,7.35-3.1c1.15-1.64,2.6-2.46,4.35-2.46c1.52,0,2.76,0.6,3.75,1.78c0.98,1.19,1.47,2.53,1.47,4.03
	c0,1.81-0.69,3.21-2.07,4.19c-1.91,1.96-4.15,3.48-6.72,4.57c-2.56,1.09-5.27,1.63-8.13,1.63c-3.74,0-7.2-0.95-10.39-2.84
	c-3.19-1.9-5.71-4.47-7.58-7.73c-1.86-3.26-2.8-6.78-2.8-10.57c0-3.83,0.93-7.37,2.79-10.62c1.86-3.25,4.38-5.82,7.58-7.7
	c3.19-1.88,6.66-2.82,10.39-2.82c2.41,0,4.74,0.45,6.97,1.34c2.23,0.9,4.25,2.17,6.06,3.81c1.81,1.64,3.35,3.6,4.6,5.86
	c1.25,2.26,2.12,4.69,2.62,7.29C833.87,339.36,833.65,340.28,833.21,341.15z M820.03,332.16c-2.06-1-4.26-1.51-6.59-1.51
	c-2.22,0-4.24,0.48-6.07,1.43c-1.83,0.95-3.18,2.36-4.06,4.21h21.26C823.61,334.54,822.09,333.16,820.03,332.16z"/>
<path class="st1" d="M135.74,132.16c0,7.62-6.18,13.8-13.8,13.8c-7.62,0-13.8-6.18-13.8-13.8c0-7.62,6.18-13.8,13.8-13.8
	C129.56,118.37,135.74,124.54,135.74,132.16z"/>
<path class="st3" d="M335.45,340.34c0,5.2-4.21,9.41-9.41,9.41c-5.19,0-9.41-4.21-9.41-9.41c0-5.2,4.21-9.41,9.41-9.41
	C331.24,330.94,335.45,335.15,335.45,340.34z"/>
<path class="st3" d="M550.26,340.34c0,5.64-4.57,10.21-10.21,10.21c-5.64,0-10.21-4.57-10.21-10.21c0-5.64,4.57-10.21,10.21-10.21
	C545.69,330.14,550.26,334.71,550.26,340.34z"/>
<g>
	<path d="M889.68,150.29c-14.01,0-25.4-11.4-25.4-25.4s11.4-25.4,25.4-25.4c14.01,0,25.4,11.4,25.4,25.4
		S903.68,150.29,889.68,150.29z M889.68,104.88c-11.03,0-20,8.97-20,20s8.97,20,20,20c11.03,0,20-8.97,20-20
		S900.7,104.88,889.68,104.88z"/>
	<g>
		<path d="M872.18,117.6h14.27v3.75h-4.79v11.44h-4.7v-11.44h-4.79V117.6z"/>
		<path d="M888.53,117.6h6.17l2.38,9.25l2.37-9.25h6.17v15.2h-3.85v-11.59l-2.96,11.59h-3.48l-2.96-11.59v11.59h-3.84V117.6z"/>
	</g>
</g>
</svg>
